{
.appVersion = "3192";
.formatVersion = 3;
axes = (
{
name = Weight;
tag = wght;
}
);
classes = (
{
automatic = 1;

glyphs = (
{
glyphname = A;
kernLeft = A;
kernRight = A;
layers = (
{
anchors = (
{
name = bottom;
pos = (380,0);
},
{
name = ogonek;
pos = (665,2);
},
{
name = top;
pos = (380,700);
}
);
background = {
anchors = (
{
name = bottom;
pos = (380,0);
},
{
name = ogonek;
pos = (665,2);
},
{
name = top;
pos = (380,700);
}
);
shapes = (
{
closed = 1;
nodes = (
(91,0,ls),
(95,0,o),
(97,2,o),
(98,5,c),
(372,663,ls),
(374,668,o),
(379,680,o),
(380,684,c),
(381,680,o),
(386,668,o),
(388,663,cs),
(662,5,l),
(663,2,o),
(665,0,o),
(668,0,cs),
(677,0,l),
(385,700,l),
(375,700,l),
(83,0,l)
);
},
{
closed = 1;
nodes = (
(102,0,l),
(102,11,l),
(89,11,l),
(89,0,l)
);
},
{
closed = 1;
nodes = (
(565,250,l),
(563,260,l),
(196,260,l),
(194,250,l)
);
},
{
closed = 1;
nodes = (
(669,0,l),
(669,11,l),
(656,11,l),
(656,0,l)
);
},
{
closed = 1;
nodes = (
(101,0,l),
(100,12,l),
(23,10,ls),
(20,10,o),
(16,8,o),
(16,5,cs),
(16,0,l)
);
},
{
closed = 1;
nodes = (
(184,0,l),
(184,5,ls),
(184,8,o),
(180,10,o),
(177,10,cs),
(100,12,l),
(99,0,l)
);
},
{
closed = 1;
nodes = (
(661,0,l),
(660,12,l),
(583,10,ls),
(580,10,o),
(576,8,o),
(576,5,cs),
(576,0,l)
);
},
{
closed = 1;
nodes = (
(744,0,l),
(744,5,ls),
(744,8,o),
(740,10,o),
(737,10,cs),
(660,12,l),
(659,0,l)
);
}
);
};
layerId = "A1468767-BE48-4A45-9F09-053256197B3B";
shapes = (
{
closed = 1;
nodes = (
(91,0,ls),
(95,0,o),
(97,2,o),
(98,5,c),
(372,663,ls),
(374,668,o),
(379,680,o),
(380,684,c),
(381,680,o),
(386,668,o),
(388,663,cs),
(662,5,l),
(663,2,o),
(665,0,o),
(668,0,cs),
(677,0,l),
(385,700,l),
(375,700,l),
(83,0,l)
);
},
{
closed = 1;
nodes = (
(102,0,l),
(102,11,l),
(89,11,l),
(89,0,l)
);
},
{
closed = 1;
nodes = (
(565,250,l),
(563,260,l),
(196,260,l),
(194,250,l)
);
},
{
closed = 1;
nodes = (
(669,0,l),
(669,11,l),
(656,11,l),
(656,0,l)
);
},
{
pos = (98,0);
ref = SerifBottomLeft;
},
{
pos = (102,0);
ref = SerifBottomRight;
},
{
pos = (658,0);
ref = SerifBottomLeft;
},
{
pos = (662,0);
ref = SerifBottomRight;
}
);
userData = {
assembly = "SVTCA[0]	/* SetFreedomAndProjectionVectorToAxis */
PUSHW[ ]	/* 1 value pushed */
0 
RCVT[ ]	/* ReadCVT */
IF[ ]	/* If */
PUSHW[ ]	/* 1 value pushed */
10 
MDAP[1]	/* MoveDirectAbsPt */
ELSE[ ]	/* Else */
PUSHW[ ]	/* 2 values pushed */
10 11 
MIAP[0]	/* MoveIndirectAbsPt */
EIF[ ]	/* EndIf */
PUSHW[ ]	/* 1 value pushed */
0 
RCVT[ ]	/* ReadCVT */
IF[ ]	/* If */
PUSHW[ ]	/* 1 value pushed */
0 
MDAP[1]	/* MoveDirectAbsPt */
ELSE[ ]	/* Else */
PUSHW[ ]	/* 2 values pushed */
0 5 
MIAP[0]	/* MoveIndirectAbsPt */
EIF[ ]	/* EndIf */
PUSHW[ ]	/* 1 value pushed */
0 
RCVT[ ]	/* ReadCVT */
IF[ ]	/* If */
PUSHW[ ]	/* 1 value pushed */
8 
MDAP[1]	/* MoveDirectAbsPt */
ELSE[ ]	/* Else */
PUSHW[ ]	/* 2 values pushed */
8 5 
MIAP[0]	/* MoveIndirectAbsPt */
EIF[ ]	/* EndIf */
PUSHW[ ]	/* 4 values pushed */
13 1 4 4 
CALL[ ]	/* CallFunction */
IUP[0]	/* InterpolateUntPts */
IUP[1]	/* InterpolateUntPts */";
};
width = 760;
},
{
anchors = (
{
name = bottom;
pos = (407,0);
},
{
name = ogonek;
pos = (645,2);
},
{
name = top;
pos = (407,729);
}
);
background = {
anchors = (
{
name = bottom;
pos = (407,0);
},
{
name = ogonek;
pos = (645,2);
},
{
name = top;
pos = (407,729);
}
);
shapes = (
{
closed = 1;
nodes = (
(170,0,ls),
(198,0,o),
(218,18,o),
(225,37,c),
(374,477,ls),
(385,510,o),
(396,537,o),
(407,579,c),
(417,538,o),
(429,507,o),
(439,478,cs),
(588,37,ls),
(595,16,o),
(614,0,o),
(644,0,cs),
(775,0,l),
(493,729,l),
(320,729,l),
(38,0,l)
);
},
{
closed = 1;
nodes = (
(260,0,l),
(260,71,l),
(138,71,l),
(138,0,l)
);
},
{
closed = 1;
nodes = (
(574,190,l),
(564,305,l),
(238,305,l),
(228,190,l)
);
},
{
closed = 1;
nodes = (
(665,0,l),
(665,71,l),
(533,71,l),
(533,0,l)
);
},
{
closed = 1;
nodes = (
(105,0,l),
(91,118,l),
(47,109,ls),
(23,104,o),
(8,94,o),
(8,71,cs),
(8,0,l)
);
},
{
closed = 1;
nodes = (
(319,0,l),
(319,71,ls),
(319,94,o),
(304,104,o),
(280,109,cs),
(236,118,l),
(222,0,l)
);
},
{
closed = 1;
nodes = (
(591,0,l),
(577,118,l),
(533,109,ls),
(509,104,o),
(494,94,o),
(494,71,cs),
(494,0,l)
);
},
{
closed = 1;
nodes = (
(805,0,l),
(805,71,ls),
(805,94,o),
(790,104,o),
(766,109,cs),
(722,118,l),
(708,0,l)
);
}
);
};
layerId = "2C516476-8145-48E3-8501-3D313ADE77C9";
shapes = (
{
closed = 1;
nodes = (
(170,0,ls),
(198,0,o),
(218,18,o),
(225,37,c),
(374,477,ls),
(385,510,o),
(396,537,o),
(407,579,c),
(417,538,o),
(429,507,o),
(439,478,cs),
(588,37,ls),
(595,16,o),
(614,0,o),
(644,0,cs),
(775,0,l),
(493,729,l),
(320,729,l),
(38,0,l)
);
},
{
closed = 1;
nodes = (
(260,0,l),
(260,71,l),
(138,71,l),
(138,0,l)
);
},
{
closed = 1;
nodes = (
(574,190,l),
(564,305,l),
(238,305,l),
(228,190,l)
);
},
{
closed = 1;
nodes = (
(665,0,l),
(665,71,l),
(533,71,l),
(533,0,l)
);
},
{
pos = (85,0);
ref = SerifBottomLeft;
},
{
pos = (242,0);
ref = SerifBottomRight;
},
{
pos = (571,0);
ref = SerifBottomLeft;
},
{
pos = (728,0);
ref = SerifBottomRight;
}
);
userData = {
assembly = "NPUSHB[ ]	/* 12 values pushed */
15 14 13 12 11 9 6 5 2 0 5 7 
CALL[ ]	/* CallFunction */
MPPEM[ ]	/* MeasurePixelPerEm */
PUSHB[ ]	/* 1 value pushed */
94 
LT[ ]	/* LessThan */
IF[ ]	/* If */
NPUSHB[ ]	/* 29 values pushed */
19 1 4 3 1 30 0 4 0 1 0 4 1 0 2 38 0 3 3 11 31 2 1 0 0 12 0 32 4 
ELSE[ ]	/* Else */
MPPEM[ ]	/* MeasurePixelPerEm */
PUSHB[ ]	/* 1 value pushed */
232 
LT[ ]	/* LessThan */
IF[ ]	/* If */
NPUSHB[ ]	/* 40 values pushed */
19 1 4 3 1 30 0 3 4 3 52 2 1 0 1 0 53 0 4 1 1 4 0 0 35 0 4 4 1 0 2 36 0 1 4 1 0 2 33 6 
ELSE[ ]	/* Else */
NPUSHB[ ]	/* 46 values pushed */
19 1 4 3 1 30 0 3 4 3 52 0 2 1 0 1 2 0 50 0 0 0 51 0 4 1 1 4 0 0 35 0 4 4 1 0 2 36 0 1 4 1 0 2 33 7 
EIF[ ]	/* EndIf */
EIF[ ]	/* EndIf */
PUSHB[ ]	/* 1 value pushed */
56 
CALL[ ]	/* CallFunction */";
};
width = 813;
},
{
anchors = (
{
name = bottom;
pos = (378,0);
},
{
name = ogonek;
pos = (636,2);
},
{
name = top;
pos = (378,717);
}
);
background = {
anchors = (
{
name = bottom;
pos = (378,0);
},
{
name = ogonek;
pos = (636,2);
},
{
name = top;
pos = (378,717);
}
);
shapes = (
{
closed = 1;
nodes = (
(117,0,ls),
(134,0,o),
(146,11,o),
(150,23,c),
(357,557,ls),
(364,576,o),
(370,598,o),
(378,625,c),
(385,598,o),
(392,576,o),
(399,558,cs),
(606,23,l),
(611,10,o),
(622,0,o),
(639,0,cs),
(714,0,l),
(427,717,l),
(329,717,l),
(42,0,l)
);
},
{
closed = 1;
nodes = (
(169,0,l),
(169,62,l),
(116,62,l),
(116,0,l)
);
},
{
closed = 1;
nodes = (
(554,212,l),
(527,282,l),
(232,282,l),
(205,212,l)
);
},
{
closed = 1;
nodes = (
(643,0,l),
(643,62,l),
(590,62,l),
(590,0,l)
);
},
{
closed = 1;
nodes = (
(115,0,l),
(104,78,l),
(29,62,ls),
(18,60,o),
(13,53,o),
(13,41,cs),
(13,0,l)
);
},
{
closed = 1;
nodes = (
(222,0,l),
(222,41,ls),
(222,53,o),
(217,60,o),
(206,62,cs),
(131,78,l),
(120,0,l)
);
},
{
closed = 1;
nodes = (
(636,0,l),
(625,78,l),
(550,62,ls),
(539,60,o),
(534,53,o),
(534,41,cs),
(534,0,l)
);
},
{
closed = 1;
nodes = (
(743,0,l),
(743,41,ls),
(743,53,o),
(738,60,o),
(727,62,cs),
(652,78,l),
(641,0,l)
);
}
);
};
layerId = "BF33A826-8254-4501-9165-758AB68FE84B";
shapes = (
{
closed = 1;
nodes = (
(117,0,ls),
(134,0,o),
(146,11,o),
(150,23,c),
(357,557,ls),
(364,576,o),
(370,598,o),
(378,625,c),
(385,598,o),
(392,576,o),
(399,558,cs),
(606,23,l),
(611,10,o),
(622,0,o),
(639,0,cs),
(714,0,l),
(427,717,l),
(329,717,l),
(42,0,l)
);
},
{
closed = 1;
nodes = (
(169,0,l),
(169,62,l),
(116,62,l),
(116,0,l)
);
},
{
closed = 1;
nodes = (
(554,212,l),
(527,282,l),
(232,282,l),
(205,212,l)
);
},
{
closed = 1;
nodes = (
(643,0,l),
(643,62,l),
(590,62,l),
(590,0,l)
);
},
{
pos = (85,0);
ref = SerifBottomLeft;
},
{
pos = (150,0);
ref = SerifBottomRight;
},
{
pos = (606,0);
ref = SerifBottomLeft;
},
{
pos = (671,0);
ref = SerifBottomRight;
}
);
userData = {
assembly = "NPUSHB[ ]	/* 12 values pushed */
15 14 13 12 11 9 6 5 2 0 5 7 
CALL[ ]	/* CallFunction */
MPPEM[ ]	/* MeasurePixelPerEm */
PUSHB[ ]	/* 1 value pushed */
95 
LT[ ]	/* LessThan */
IF[ ]	/* If */
NPUSHB[ ]	/* 29 values pushed */
18 1 4 3 1 30 0 4 0 1 0 4 1 0 2 38 0 3 3 11 31 2 1 0 0 12 0 32 4 
ELSE[ ]	/* Else */
MPPEM[ ]	/* MeasurePixelPerEm */
PUSHB[ ]	/* 1 value pushed */
108 
LT[ ]	/* LessThan */
IF[ ]	/* If */
NPUSHB[ ]	/* 29 values pushed */
18 1 4 3 1 30 0 3 4 3 52 0 4 0 1 0 4 1 0 2 38 2 1 0 0 15 0 32 4 
ELSE[ ]	/* Else */
MPPEM[ ]	/* MeasurePixelPerEm */
PUSHB[ ]	/* 1 value pushed */
232 
LT[ ]	/* LessThan */
IF[ ]	/* If */
NPUSHB[ ]	/* 40 values pushed */
18 1 4 3 1 30 0 3 4 3 52 2 1 0 1 0 53 0 4 1 1 4 0 0 35 0 4 4 1 0 2 36 0 1 4 1 0 2 33 6 
ELSE[ ]	/* Else */
NPUSHB[ ]	/* 46 values pushed */
18 1 4 3 1 30 0 3 4 3 52 0 2 1 0 1 2 0 50 0 0 0 51 0 4 1 1 4 0 0 35 0 4 4 1 0 2 36 0 1 4 1 0 2 33 7 
EIF[ ]	/* EndIf */
EIF[ ]	/* EndIf */
EIF[ ]	/* EndIf */
PUSHB[ ]	/* 1 value pushed */
56 
CALL[ ]	/* CallFunction */";
};
width = 756;
},
{
associatedMasterId = "BF33A826-8254-4501-9165-758AB68FE84B";
layerId = "B4FF3473-ADCA-472E-8E31-2DFB44C61FA2";
name = "1.4";
shapes = (
{
closed = 1;
nodes = (
(672,68,l),
(413,716,l),
(315,716,l),
(55,68,l),
(15,56,l),
(7,54,o),
(2,49,o),
(2,40,cs),
(2,0,l),
(207,0,l),
(207,40,ls),
(207,49,o),
(203,54,o),
(194,56,c),
(153,68,l),
(209,212,l),
(518,212,l),
(574,68,l),
(533,56,l),
(524,54,o),
(519,49,o),
(519,40,cs),
(519,0,l),
(725,0,l),
(725,40,ls),
(725,49,o),
(720,54,o),
(712,56,c)
);
},
{
closed = 1;
nodes = (
(236,282,l),
(343,557,ls),
(350,576,o),
(356,598,o),
(363,625,c),
(371,598,o),
(378,575,o),
(385,557,c),
(491,282,l)
);
}
);
userData = {
assembly = "NPUSHB[ ]	/* 12 values pushed */
15 14 13 12 11 9 6 5 2 0 5 7 
CALL[ ]	/* CallFunction */
MPPEM[ ]	/* MeasurePixelPerEm */
PUSHB[ ]	/* 1 value pushed */
95 
LT[ ]	/* LessThan */
IF[ ]	/* If */
NPUSHB[ ]	/* 29 values pushed */
18 1 4 3 1 30 0 4 0 1 0 4 1 0 2 38 0 3 3 11 31 2 1 0 0 12 0 32 4 
ELSE[ ]	/* Else */
MPPEM[ ]	/* MeasurePixelPerEm */
PUSHB[ ]	/* 1 value pushed */
108 
LT[ ]	/* LessThan */
IF[ ]	/* If */
NPUSHB[ ]	/* 29 values pushed */
18 1 4 3 1 30 0 3 4 3 52 0 4 0 1 0 4 1 0 2 38 2 1 0 0 15 0 32 4 
ELSE[ ]	/* Else */
MPPEM[ ]	/* MeasurePixelPerEm */
PUSHB[ ]	/* 1 value pushed */
232 
LT[ ]	/* LessThan */
IF[ ]	/* If */
NPUSHB[ ]	/* 40 values pushed */
18 1 4 3 1 30 0 3 4 3 52 2 1 0 1 0 53 0 4 1 1 4 0 0 35 0 4 4 1 0 2 36 0 1 4 1 0 2 33 6 
ELSE[ ]	/* Else */
NPUSHB[ ]	/* 46 values pushed */
18 1 4 3 1 30 0 3 4 3 52 0 2 1 0 1 2 0 50 0 0 0 51 0 4 1 1 4 0 0 35 0 4 4 1 0 2 36 0 1 4 1 0 2 33 7 
EIF[ ]	/* EndIf */
EIF[ ]	/* EndIf */
EIF[ ]	/* EndIf */
PUSHB[ ]	/* 1 value pushed */
56 
CALL[ ]	/* CallFunction */";
};
width = 725;
},
{
associatedMasterId = "BF33A826-8254-4501-9165-758AB68FE84B";
layerId = "E5DD44B5-C3F5-4E3B-82F7-BE8D4482A099";
name = "Jan 24 23, 21:44";
shapes = (
{
closed = 1;
nodes = (
(292,717,l),
(5,0,l),
(80,0,ls),
(97.333,0,o),
(109,11,o),
(113,23,cs),
(180,196,l),
(502,196,l),
(569,23,ls),
(574.333,9.667,o),
(584.667,0,o),
(602,0,cs),
(677,0,l),
(390,717,l),
(390,717,l)
);
},
{
closed = 1;
nodes = (
(323.333,565.667,o),
(326.667,575.833,o),
(330,587.5,cs),
(333.333,599.167,o),
(337,611.667,o),
(341,625,c),
(347.667,598.333,o),
(354.667,576,o),
(362,558,cs),
(475,266,l),
(207,266,l),
(320,557,l),
(320,557,l)
);
}
);
userData = {
assembly = "NPUSHB[ ]	/* 12 values pushed */
15 14 13 12 11 9 6 5 2 0 5 7 
CALL[ ]	/* CallFunction */
MPPEM[ ]	/* MeasurePixelPerEm */
PUSHB[ ]	/* 1 value pushed */
95 
LT[ ]	/* LessThan */
IF[ ]	/* If */
NPUSHB[ ]	/* 29 values pushed */
18 1 4 3 1 30 0 4 0 1 0 4 1 0 2 38 0 3 3 11 31 2 1 0 0 12 0 32 4 
ELSE[ ]	/* Else */
MPPEM[ ]	/* MeasurePixelPerEm */
PUSHB[ ]	/* 1 value pushed */
108 
LT[ ]	/* LessThan */
IF[ ]	/* If */
NPUSHB[ ]	/* 29 values pushed */
18 1 4 3 1 30 0 3 4 3 52 0 4 0 1 0 4 1 0 2 38 2 1 0 0 15 0 32 4 
ELSE[ ]	/* Else */
MPPEM[ ]	/* MeasurePixelPerEm */
PUSHB[ ]	/* 1 value pushed */
232 
LT[ ]	/* LessThan */
IF[ ]	/* If */
NPUSHB[ ]	/* 40 values pushed */
18 1 4 3 1 30 0 3 4 3 52 2 1 0 1 0 53 0 4 1 1 4 0 0 35 0 4 4 1 0 2 36 0 1 4 1 0 2 33 6 
ELSE[ ]	/* Else */
NPUSHB[ ]	/* 46 values pushed */
18 1 4 3 1 30 0 3 4 3 52 0 2 1 0 1 2 0 50 0 0 0 51 0 4 1 1 4 0 0 35 0 4 4 1 0 2 36 0 1 4 1 0 2 33 7 
EIF[ ]	/* EndIf */
EIF[ ]	/* EndIf */
EIF[ ]	/* EndIf */
PUSHB[ ]	/* 1 value pushed */
56 
CALL[ ]	/* CallFunction */";
};
width = 680;
}
);
note = A;
unicode = 65;
},
{
glyphname = Aacute;
layers = (
{
background = {
anchors = (
{
name = bottom;
pos = (380,0);
},
{
name = ogonek;
pos = (665,2);
},
{
name = top;
pos = (380,700);
}
);
shapes = (
{
closed = 1;
nodes = (
(91,0,ls),
(95,0,o),
(97,2,o),
(98,5,c),
(372,663,ls),
(374,668,o),
(379,680,o),
(380,684,c),
(381,680,o),
(386,668,o),
(388,663,cs),
(662,5,l),
(663,2,o),
(665,0,o),
(668,0,cs),
(677,0,l),
(385,700,l),
(375,700,l),
(83,0,l)
);
},
{
closed = 1;
nodes = (
(102,0,l),
(102,11,l),
(89,11,l),
(89,0,l)
);
},
{
closed = 1;
nodes = (
(565,250,l),
(563,260,l),
(196,260,l),
(194,250,l)
);
},
{
closed = 1;
nodes = (
(669,0,l),
(669,11,l),
(656,11,l),
(656,0,l)
);
},
{
closed = 1;
nodes = (
(101,0,l),
(100,12,l),
(23,10,ls),
(20,10,o),
(16,8,o),
(16,5,cs),
(16,0,l)
);
},
{
closed = 1;
nodes = (
(184,0,l),
(184,5,ls),
(184,8,o),
(180,10,o),
(177,10,cs),
(100,12,l),
(99,0,l)
);
},
{
closed = 1;
nodes = (
(661,0,l),
(660,12,l),
(583,10,ls),
(580,10,o),
(576,8,o),
(576,5,cs),
(576,0,l)
);
},
{
closed = 1;
nodes = (
(744,0,l),
(744,5,ls),
(744,8,o),
(740,10,o),
(737,10,cs),
(660,12,l),
(659,0,l)
);
},
{
closed = 1;
nodes = (
(377,789,ls),
(380,789,o),
(383,790,o),
(385,793,cs),
(486,918,l),
(473,918,ls),
(462,918,o),
(459,916,o),
(452,907,cs),
(370,789,l)
);
}
);
};
layerId = "A1468767-BE48-4A45-9F09-053256197B3B";
shapes = (
{
ref = A;
},
{
pos = (254,210);
ref = acutecomb;
}
);
width = 760;
},
{
background = {
anchors = (
{
name = bottom;
pos = (378,0);
},
{
name = ogonek;
pos = (636,2);
},
{
name = top;
pos = (378,717);
}
);
shapes = (
{
closed = 1;
nodes = (
(117,0,ls),
(134,0,o),
(146,11,o),
(150,23,c),
(357,557,ls),
(364,576,o),
(370,598,o),
(378,625,c),
(385,598,o),
(392,576,o),
(399,558,cs),
(606,23,l),
(611,10,o),
(622,0,o),
(639,0,cs),
(714,0,l),
(427,717,l),
(329,717,l),
(42,0,l)
);
},
{
closed = 1;
nodes = (
(169,0,l),
(169,62,l),
(116,62,l),
(116,0,l)
);
},
{
closed = 1;
nodes = (
(554,212,l),
(527,282,l),
(232,282,l),
(205,212,l)
);
},
{
closed = 1;
nodes = (
(643,0,l),
(643,62,l),
(590,62,l),
(590,0,l)
);
},
{
closed = 1;
nodes = (
(115,0,l),
(104,78,l),
(29,62,ls),
(18,60,o),
(13,53,o),
(13,41,cs),
(13,0,l)
);
},
{
closed = 1;
nodes = (
(222,0,l),
(222,41,ls),
(222,53,o),
(217,60,o),
(206,62,cs),
(131,78,l),
(120,0,l)
);
},
{
closed = 1;
nodes = (
(636,0,l),
(625,78,l),
(550,62,ls),
(539,60,o),
(534,53,o),
(534,41,cs),
(534,0,l)
);
},
{
closed = 1;
nodes = (
(743,0,l),
(743,41,ls),
(743,53,o),
(738,60,o),
(727,62,cs),
(652,78,l),
(641,0,l)
);
},
{
closed = 1;
nodes = (
(391,792,ls),
(406,792,o),
(413,795,o),
(422,806,cs),
(539,935,l),
(452,935,ls),
(431,935,o),
(421,928,o),
(412,913,cs),
(338,792,l)
);
}
);
};
layerId = "BF33A826-8254-4501-9165-758AB68FE84B";
shapes = (
{
ref = A;
},
{
pos = (247,210);
ref = acutecomb;
}
);
width = 756;
},
{
background = {
anchors = (
{
name = bottom;
pos = (407,0);
},
{
name = ogonek;
pos = (645,2);
},
{
name = top;
pos = (407,729);
}
);
shapes = (
{
closed = 1;
nodes = (
(170,0,ls),
(198,0,o),
(218,18,o),
(225,37,c),
(374,477,ls),
(385,510,o),
(396,537,o),
(407,579,c),
(417,538,o),
(429,507,o),
(439,478,cs),
(588,37,ls),
(595,16,o),
(614,0,o),
(644,0,cs),
(775,0,l),
(493,729,l),
(320,729,l),
(38,0,l)
);
},
{
closed = 1;
nodes = (
(260,0,l),
(260,71,l),
(138,71,l),
(138,0,l)
);
},
{
closed = 1;
nodes = (
(574,190,l),
(564,305,l),
(238,305,l),
(228,190,l)
);
},
{
closed = 1;
nodes = (
(665,0,l),
(665,71,l),
(533,71,l),
(533,0,l)
);
},
{
closed = 1;
nodes = (
(105,0,l),
(91,118,l),
(47,109,ls),
(23,104,o),
(8,94,o),
(8,71,cs),
(8,0,l)
);
},
{
closed = 1;
nodes = (
(319,0,l),
(319,71,ls),
(319,94,o),
(304,104,o),
(280,109,cs),
(236,118,l),
(222,0,l)
);
},
{
closed = 1;
nodes = (
(591,0,l),
(577,118,l),
(533,109,ls),
(509,104,o),
(494,94,o),
(494,71,cs),
(494,0,l)
);
},
{
closed = 1;
nodes = (
(805,0,l),
(805,71,ls),
(805,94,o),
(790,104,o),
(766,109,cs),
(722,118,l),
(708,0,l)
);
},
{
closed = 1;
nodes = (
(415,794,ls),
(439,794,o),
(450,800,o),
(465,815,cs),
(595,947,l),
(445,947,ls),
(414,947,o),
(402,936,o),
(390,917,c),
(322,794,l)
);
}
);
};
layerId = "2C516476-8145-48E3-8501-3D313ADE77C9";
shapes = (
{
ref = A;
},
{
pos = (278,210);
ref = acutecomb;
}
);
width = 813;
}
);
unicode = 193;
},
{
glyphname = Abreve;
layers = (
{
background = {
anchors = (
{
name = bottom;
pos = (380,0);
},
{
name = ogonek;
pos = (665,2);
},
{
name = top;
pos = (380,700);
}
);
shapes = (
{
closed = 1;
nodes = (
(91,0,ls),
(95,0,o),
(97,2,o),
(98,5,c),
(372,663,ls),
(374,668,o),
(379,680,o),
(380,684,c),
(381,680,o),
(386,668,o),
(388,663,cs),
(662,5,l),
(663,2,o),
(665,0,o),
(668,0,cs),
(677,0,l),
(385,700,l),
(375,700,l),
(83,0,l)
);
},
{
closed = 1;
nodes = (
(102,0,l),
(102,11,l),
(89,11,l),
(89,0,l)
);
},
{
closed = 1;
nodes = (
(565,250,l),
(563,260,l),
(196,260,l),
(194,250,l)
);
},
{
closed = 1;
nodes = (
(669,0,l),
(669,11,l),
(656,11,l),
(656,0,l)
);
},
{
closed = 1;
nodes = (
(101,0,l),
(100,12,l),
(23,10,ls),
(20,10,o),
(16,8,o),
(16,5,cs),
(16,0,l)
);
},
{
closed = 1;
nodes = (
(184,0,l),
(184,5,ls),
(184,8,o),
(180,10,o),
(177,10,cs),
(100,12,l),
(99,0,l)
);
},
{
closed = 1;
nodes = (
(661,0,l),
(660,12,l),
(583,10,ls),
(580,10,o),
(576,8,o),
(576,5,cs),
(576,0,l)
);
},
{
closed = 1;
nodes = (
(744,0,l),
(744,5,ls),
(744,8,o),
(740,10,o),
(737,10,cs),
(660,12,l),
(659,0,l)
);
},
{
closed = 1;
nodes = (
(380,796,l),
(453,796,o),
(485,845,o),
(485,910,c),
(475,910,l),
(475,853,o),
(447,806,o),
(380,806,cs),
(313,806,o),
(285,854,o),
(285,910,c),
(275,910,l),
(275,845,o),
(309,796,o),
(380,796,c)
);
}
);
};
layerId = "A1468767-BE48-4A45-9F09-053256197B3B";
shapes = (
{
ref = A;
},
{
pos = (240,210);
ref = brevecomb;
}
);
width = 760;
},
{
background = {
anchors = (
{
name = bottom;
pos = (378,0);
},
{
name = ogonek;
pos = (636,2);
},
{
name = top;
pos = (378,717);
}
);
shapes = (
{
closed = 1;
nodes = (
(117,0,ls),
(134,0,o),
(146,11,o),
(150,23,c),
(357,557,ls),
(364,576,o),
(370,598,o),
(378,625,c),
(385,598,o),
(392,576,o),
(399,558,cs),
(606,23,l),
(611,10,o),
(622,0,o),
(639,0,cs),
(714,0,l),
(427,717,l),
(329,717,l),
(42,0,l)
);
},
{
closed = 1;
nodes = (
(169,0,l),
(169,62,l),
(116,62,l),
(116,0,l)
);
},
{
closed = 1;
nodes = (
(554,212,l),
(527,282,l),
(232,282,l),
(205,212,l)
);
},
{
closed = 1;
nodes = (
(643,0,l),
(643,62,l),
(590,62,l),
(590,0,l)
);
},
{
closed = 1;
nodes = (
(115,0,l),
(104,78,l),
(29,62,ls),
(18,60,o),
(13,53,o),
(13,41,cs),
(13,0,l)
);
},
{
closed = 1;
nodes = (
(222,0,l),
(222,41,ls),
(222,53,o),
(217,60,o),
(206,62,cs),
(131,78,l),
(120,0,l)
);
},
{
closed = 1;
nodes = (
(636,0,l),
(625,78,l),
(550,62,ls),
(539,60,o),
(534,53,o),
(534,41,cs),
(534,0,l)
);
},
{
closed = 1;
nodes = (
(743,0,l),
(743,41,ls),
(743,53,o),
(738,60,o),
(727,62,cs),
(652,78,l),
(641,0,l)
);
},
{
closed = 1;
nodes = (
(378,792,l),
(475,792,o),
(515,847,o),
(515,927,c),
(452,927,l),
(452,880,o),
(433,850,o),
(378,850,cs),
(324,850,o),
(304,880,o),
(304,927,c),
(241,927,l),
(241,848,o),
(282,792,o),
(378,792,c)
);
}
);
};
layerId = "BF33A826-8254-4501-9165-758AB68FE84B";
shapes = (
{
ref = A;
},
{
pos = (224,210);
ref = brevecomb;
}
);
width = 756;
},
{
background = {
anchors = (
{
name = bottom;
pos = (407,0);
},
{
name = ogonek;
pos = (645,2);
},
{
name = top;
pos = (407,729);
}
);
shapes = (
{
closed = 1;
nodes = (
(170,0,ls),
(198,0,o),
(218,18,o),
(225,37,c),
(374,477,ls),
(385,510,o),
(396,537,o),
(407,579,c),
(417,538,o),
(429,507,o),
(439,478,cs),
(588,37,ls),
(595,16,o),
(614,0,o),
(644,0,cs),
(775,0,l),
(493,729,l),
(320,729,l),
(38,0,l)
);
},
{
closed = 1;
nodes = (
(260,0,l),
(260,71,l),
(138,71,l),
(138,0,l)
);
},
{
closed = 1;
nodes = (
(574,190,l),
(564,305,l),
(238,305,l),
(228,190,l)
);
},
{
closed = 1;
nodes = (
(665,0,l),
(665,71,l),
(533,71,l),
(533,0,l)
);
},
{
closed = 1;
nodes = (
(105,0,l),
(91,118,l),
(47,109,ls),
(23,104,o),
(8,94,o),
(8,71,cs),
(8,0,l)
);
},
{
closed = 1;
nodes = (
(319,0,l),
(319,71,ls),
(319,94,o),
(304,104,o),
(280,109,cs),
(236,118,l),
(222,0,l)
);
},
{
closed = 1;
nodes = (
(591,0,l),
(577,118,l),
(533,109,ls),
(509,104,o),
(494,94,o),
(494,71,cs),
(494,0,l)
);
},
{
closed = 1;
nodes = (
(805,0,l),
(805,71,ls),
(805,94,o),
(790,104,o),
(766,109,cs),
(722,118,l),
(708,0,l)
);
},
{
closed = 1;
nodes = (
(407,790,l),
(524,790,o),
(571,849,o),
(571,939,c),
(463,939,l),
(463,900,o),
(453,884,o),
(407,884,cs),
(363,884,o),
(351,900,o),
(351,939,c),
(243,939,l),
(243,849,o),
(290,790,o),
(407,790,c)
);
}
);
};
layerId = "2C516476-8145-48E3-8501-3D313ADE77C9";
shapes = (
{
ref = A;
},
{
pos = (242,210);
ref = brevecomb;
}
);
width = 813;
}
);
unicode = 258;
},
{
glyphname = Abreveacute;
layers = (
{
background = {
anchors = (
{
name = bottom;
pos = (380,0);
},
{
name = ogonek;
pos = (665,2);
},
{
name = top;
pos = (380,1031);
}
);
shapes = (
{
closed = 1;
nodes = (
(91,0,ls),
(95,0,o),
(97,2,o),
(98,5,c),
(372,663,ls),
(374,668,o),
(379,680,o),
(380,684,c),
(381,680,o),
(386,668,o),
(388,663,cs),
(662,5,l),
(663,2,o),
(665,0,o),
(668,0,cs),
(677,0,l),
(385,700,l),
(375,700,l),
(83,0,l)
);
},
{
closed = 1;
nodes = (
(102,0,l),
(102,11,l),
(89,11,l),
(89,0,l)
);
},
{
closed = 1;
nodes = (
(565,250,l),
(563,260,l),
(196,260,l),
(194,250,l)
);
},
{
closed = 1;
nodes = (
(669,0,l),
(669,11,l),
(656,11,l),
(656,0,l)
);
},
{
closed = 1;
nodes = (
(101,0,l),
(100,12,l),
(23,10,ls),
(20,10,o),
(16,8,o),
(16,5,cs),
(16,0,l)
);
},
{
closed = 1;
nodes = (
(184,0,l),
(184,5,ls),
(184,8,o),
(180,10,o),
(177,10,cs),
(100,12,l),
(99,0,l)
);
},
{
closed = 1;
nodes = (
(661,0,l),
(660,12,l),
(583,10,ls),
(580,10,o),
(576,8,o),
(576,5,cs),
(576,0,l)
);
},
{
closed = 1;
nodes = (
(744,0,l),
(744,5,ls),
(744,8,o),
(740,10,o),
(737,10,cs),
(660,12,l),
(659,0,l)
);
},
{
closed = 1;
nodes = (
(378,796,l),
(451,796,o),
(483,845,o),
(483,910,c),
(473,910,l),
(473,853,o),
(445,806,o),
(378,806,cs),
(311,806,o),
(283,854,o),
(283,910,c),
(273,910,l),
(273,845,o),
(307,796,o),
(378,796,c)
);
},
{
closed = 1;
nodes = (
(377,902,ls),
(380,902,o),
(383,903,o),
(385,906,cs),
(486,1031,l),
(473,1031,ls),
(462,1031,o),
(459,1029,o),
(452,1020,cs),
(370,902,l)
);
}
);
};
layerId = "A1468767-BE48-4A45-9F09-053256197B3B";
shapes = (
{
ref = A;
},
{
pos = (238,210);
ref = brevecomb_acutecomb;
}
);
width = 760;
},
{
background = {
anchors = (
{
name = bottom;
pos = (378,0);
},
{
name = ogonek;
pos = (636,2);
},
{
name = top;
pos = (378,1045);
}
);
shapes = (
{
closed = 1;
nodes = (
(117,0,ls),
(134,0,o),
(146,11,o),
(150,23,c),
(357,557,ls),
(364,576,o),
(370,598,o),
(378,625,c),
(385,598,o),
(392,576,o),
(399,558,cs),
(606,23,l),
(611,10,o),
(622,0,o),
(639,0,cs),
(714,0,l),
(427,717,l),
(329,717,l),
(42,0,l)
);
},
{
closed = 1;
nodes = (
(169,0,l),
(169,62,l),
(116,62,l),
(116,0,l)
);
},
{
closed = 1;
nodes = (
(554,212,l),
(527,282,l),
(232,282,l),
(205,212,l)
);
},
{
closed = 1;
nodes = (
(643,0,l),
(643,62,l),
(590,62,l),
(590,0,l)
);
},
{
closed = 1;
nodes = (
(115,0,l),
(104,78,l),
(29,62,ls),
(18,60,o),
(13,53,o),
(13,41,cs),
(13,0,l)
);
},
{
closed = 1;
nodes = (
(222,0,l),
(222,41,ls),
(222,53,o),
(217,60,o),
(206,62,cs),
(131,78,l),
(120,0,l)
);
},
{
closed = 1;
nodes = (
(636,0,l),
(625,78,l),
(550,62,ls),
(539,60,o),
(534,53,o),
(534,41,cs),
(534,0,l)
);
},
{
closed = 1;
nodes = (
(743,0,l),
(743,41,ls),
(743,53,o),
(738,60,o),
(727,62,cs),
(652,78,l),
(641,0,l)
);
},
{
closed = 1;
nodes = (
(369,792,l),
(466,792,o),
(506,847,o),
(506,927,c),
(443,927,l),
(443,880,o),
(424,850,o),
(369,850,cs),
(315,850,o),
(295,880,o),
(295,927,c),
(232,927,l),
(232,848,o),
(273,792,o),
(369,792,c)
);
},
{
closed = 1;
nodes = (
(375,902,ls),
(390,902,o),
(397,905,o),
(406,916,cs),
(523,1045,l),
(436,1045,ls),
(415,1045,o),
(405,1038,o),
(396,1023,cs),
(322,902,l)
);
}
);
};
layerId = "BF33A826-8254-4501-9165-758AB68FE84B";
shapes = (
{
ref = A;
},
{
pos = (215,210);
ref = brevecomb_acutecomb;
}
);
width = 756;
},
{
background = {
anchors = (
{
name = bottom;
pos = (407,0);
},
{
name = ogonek;
pos = (645,2);
},
{
name = top;
pos = (407,1105);
}
);
shapes = (
{
closed = 1;
nodes = (
(170,0,ls),
(198,0,o),
(218,18,o),
(225,37,c),
(374,477,ls),
(385,510,o),
(396,537,o),
(407,579,c),
(417,538,o),
(429,507,o),
(439,478,cs),
(588,37,ls),
(595,16,o),
(614,0,o),
(644,0,cs),
(775,0,l),
(493,729,l),
(320,729,l),
(38,0,l)
);
},
{
closed = 1;
nodes = (
(260,0,l),
(260,71,l),
(138,71,l),
(138,0,l)
);
},
{
closed = 1;
nodes = (
(574,190,l),
(564,305,l),
(238,305,l),
(228,190,l)
);
},
{
closed = 1;
nodes = (
(665,0,l),
(665,71,l),
(533,71,l),
(533,0,l)
);
},
{
closed = 1;
nodes = (
(105,0,l),
(91,118,l),
(47,109,ls),
(23,104,o),
(8,94,o),
(8,71,cs),
(8,0,l)
);
},
{
closed = 1;
nodes = (
(319,0,l),
(319,71,ls),
(319,94,o),
(304,104,o),
(280,109,cs),
(236,118,l),
(222,0,l)
);
},
{
closed = 1;
nodes = (
(591,0,l),
(577,118,l),
(533,109,ls),
(509,104,o),
(494,94,o),
(494,71,cs),
(494,0,l)
);
},
{
closed = 1;
nodes = (
(805,0,l),
(805,71,ls),
(805,94,o),
(790,104,o),
(766,109,cs),
(722,118,l),
(708,0,l)
);
},
{
closed = 1;
nodes = (
(380,790,l),
(497,790,o),
(544,849,o),
(544,939,c),
(436,939,l),
(436,900,o),
(426,884,o),
(380,884,cs),
(336,884,o),
(324,900,o),
(324,939,c),
(216,939,l),
(216,849,o),
(263,790,o),
(380,790,c)
);
},
{
closed = 1;
nodes = (
(418,952,ls),
(442,952,o),
(453,958,o),
(468,973,cs),
(598,1105,l),
(448,1105,ls),
(417,1105,o),
(405,1094,o),
(393,1075,c),
(325,952,l)
);
}
);
};
layerId = "2C516476-8145-48E3-8501-3D313ADE77C9";
shapes = (
{
ref = A;
},
{
pos = (215,210);
ref = brevecomb_acutecomb;
}
);
width = 813;
}
);
unicode = 7854;
},
{
glyphname = Abrevedotbelow;
layers = (
{
background = {
anchors = (
{
name = bottom;
pos = (380,-164);
},
{
name = ogonek;
pos = (665,2);
},
{
name = top;
pos = (380,700);
}
);
shapes = (
{
closed = 1;
nodes = (
(91,0,ls),
(95,0,o),
(97,2,o),
(98,5,c),
(372,663,ls),
(374,668,o),
(379,680,o),
(380,684,c),
(381,680,o),
(386,668,o),
(388,663,cs),
(662,5,l),
(663,2,o),
(665,0,o),
(668,0,cs),
(677,0,l),
(385,700,l),
(375,700,l),
(83,0,l)
);
},
{
closed = 1;
nodes = (
(102,0,l),
(102,11,l),
(89,11,l),
(89,0,l)
);
},
{
closed = 1;
nodes = (
(565,250,l),
(563,260,l),
(196,260,l),
(194,250,l)
);
},
{
closed = 1;
nodes = (
(669,0,l),
(669,11,l),
(656,11,l),
(656,0,l)
);
},
{
closed = 1;
nodes = (
(101,0,l),
(100,12,l),
(23,10,ls),
(20,10,o),
(16,8,o),
(16,5,cs),
(16,0,l)
);
},
{
closed = 1;
nodes = (
(184,0,l),
(184,5,ls),
(184,8,o),
(180,10,o),
(177,10,cs),
(100,12,l),
(99,0,l)
);
},
{
closed = 1;
nodes = (
(661,0,l),
(660,12,l),
(583,10,ls),
(580,10,o),
(576,8,o),
(576,5,cs),
(576,0,l)
);
},
{
closed = 1;
nodes = (
(744,0,l),
(744,5,ls),
(744,8,o),
(740,10,o),
(737,10,cs),
(660,12,l),
(659,0,l)
);
},
{
closed = 1;
nodes = (
(395,-164,o),
(408,-150,o),
(408,-137,cs),
(408,-121,o),
(395,-109,o),
(380,-109,cs),
(365,-109,o),
(352,-121,o),
(352,-137,cs),
(352,-150,o),
(365,-164,o),
(380,-164,cs)
);
},
{
closed = 1;
nodes = (
(380,796,l),
(453,796,o),
(485,845,o),
(485,910,c),
(475,910,l),
(475,853,o),
(447,806,o),
(380,806,cs),
(313,806,o),
(285,854,o),
(285,910,c),
(275,910,l),
(275,845,o),
(309,796,o),
(380,796,c)
);
}
);
};
layerId = "A1468767-BE48-4A45-9F09-053256197B3B";
shapes = (
{
ref = A;
},
{
pos = (342,0);
ref = dotbelowcomb;
},
{
pos = (240,210);
ref = brevecomb;
}
);
width = 760;
},
{
background = {
anchors = (
{
name = bottom;
pos = (378,-181);
},
{
name = ogonek;
pos = (636,2);
},
{
name = top;
pos = (378,717);
}
);
shapes = (
{
closed = 1;
nodes = (
(117,0,ls),
(134,0,o),
(146,11,o),
(150,23,c),
(357,557,ls),
(364,576,o),
(370,598,o),
(378,625,c),
(385,598,o),
(392,576,o),
(399,558,cs),
(606,23,l),
(611,10,o),
(622,0,o),
(639,0,cs),
(714,0,l),
(427,717,l),
(329,717,l),
(42,0,l)
);
},
{
closed = 1;
nodes = (
(169,0,l),
(169,62,l),
(116,62,l),
(116,0,l)
);
},
{
closed = 1;
nodes = (
(554,212,l),
(527,282,l),
(232,282,l),
(205,212,l)
);
},
{
closed = 1;
nodes = (
(643,0,l),
(643,62,l),
(590,62,l),
(590,0,l)
);
},
{
closed = 1;
nodes = (
(115,0,l),
(104,78,l),
(29,62,ls),
(18,60,o),
(13,53,o),
(13,41,cs),
(13,0,l)
);
},
{
closed = 1;
nodes = (
(222,0,l),
(222,41,ls),
(222,53,o),
(217,60,o),
(206,62,cs),
(131,78,l),
(120,0,l)
);
},
{
closed = 1;
nodes = (
(636,0,l),
(625,78,l),
(550,62,ls),
(539,60,o),
(534,53,o),
(534,41,cs),
(534,0,l)
);
},
{
closed = 1;
nodes = (
(743,0,l),
(743,41,ls),
(743,53,o),
(738,60,o),
(727,62,cs),
(652,78,l),
(641,0,l)
);
},
{
closed = 1;
nodes = (
(409,-181,o),
(435,-156,o),
(435,-124,cs),
(435,-92,o),
(409,-66,o),
(378,-67,cs),
(346,-68,o),
(321,-92,o),
(321,-124,cs),
(321,-156,o),
(346,-181,o),
(378,-181,cs)
);
},
{
closed = 1;
nodes = (
(378,792,l),
(475,792,o),
(515,847,o),
(515,927,c),
(452,927,l),
(452,880,o),
(433,850,o),
(378,850,cs),
(324,850,o),
(304,880,o),
(304,927,c),
(241,927,l),
(241,848,o),
(282,792,o),
(378,792,c)
);
}
);
};
layerId = "BF33A826-8254-4501-9165-758AB68FE84B";
shapes = (
{
ref = A;
},
{
pos = (311,0);
ref = dotbelowcomb;
},
{
pos = (224,210);
ref = brevecomb;
}
);
width = 756;
},
{
background = {
anchors = (
{
name = bottom;
pos = (407,-194);
},
{
name = ogonek;
pos = (645,2);
},
{
name = top;
pos = (407,729);
}
);
shapes = (
{
closed = 1;
nodes = (
(170,0,ls),
(198,0,o),
(218,18,o),
(225,37,c),
(374,477,ls),
(385,510,o),
(396,537,o),
(407,579,c),
(417,538,o),
(429,507,o),
(439,478,cs),
(588,37,ls),
(595,16,o),
(614,0,o),
(644,0,cs),
(775,0,l),
(493,729,l),
(320,729,l),
(38,0,l)
);
},
{
closed = 1;
nodes = (
(260,0,l),
(260,71,l),
(138,71,l),
(138,0,l)
);
},
{
closed = 1;
nodes = (
(574,190,l),
(564,305,l),
(238,305,l),
(228,190,l)
);
},
{
closed = 1;
nodes = (
(665,0,l),
(665,71,l),
(533,71,l),
(533,0,l)
);
},
{
closed = 1;
nodes = (
(105,0,l),
(91,118,l),
(47,109,ls),
(23,104,o),
(8,94,o),
(8,71,cs),
(8,0,l)
);
},
{
closed = 1;
nodes = (
(319,0,l),
(319,71,ls),
(319,94,o),
(304,104,o),
(280,109,cs),
(236,118,l),
(222,0,l)
);
},
{
closed = 1;
nodes = (
(591,0,l),
(577,118,l),
(533,109,ls),
(509,104,o),
(494,94,o),
(494,71,cs),
(494,0,l)
);
},
{
closed = 1;
nodes = (
(805,0,l),
(805,71,ls),
(805,94,o),
(790,104,o),
(766,109,cs),
(722,118,l),
(708,0,l)
);
},
{
closed = 1;
nodes = (
(451,-194,o),
(488,-158,o),
(488,-115,cs),
(488,-72,o),
(451,-36,o),
(405,-36,cs),
(362,-36,o),
(325,-73,o),
(325,-115,cs),
(325,-157,o),
(362,-194,o),
(405,-194,cs)
);
},
{
closed = 1;
nodes = (
(407,790,l),
(524,790,o),
(571,849,o),
(571,939,c),
(463,939,l),
(463,900,o),
(453,884,o),
(407,884,cs),
(363,884,o),
(351,900,o),
(351,939,c),
(243,939,l),
(243,849,o),
(290,790,o),
(407,790,c)
);
}
);
};
layerId = "2C516476-8145-48E3-8501-3D313ADE77C9";
shapes = (
{
ref = A;
},
{
pos = (315,0);
ref = dotbelowcomb;
},
{
pos = (242,210);
ref = brevecomb;
}
);
width = 813;
}
);
unicode = 7862;
},
{
glyphname = Abrevegrave;
layers = (
{
background = {
anchors = (
{
name = bottom;
pos = (380,0);
},
{
name = ogonek;
pos = (665,2);
},
{
name = top;
pos = (380,1031);
}
);
shapes = (
{
closed = 1;
nodes = (
(91,0,ls),
(95,0,o),
(97,2,o),
(98,5,c),
(372,663,ls),
(374,668,o),
(379,680,o),
(380,684,c),
(381,680,o),
(386,668,o),
(388,663,cs),
(662,5,l),
(663,2,o),
(665,0,o),
(668,0,cs),
(677,0,l),
(385,700,l),
(375,700,l),
(83,0,l)
);
},
{
closed = 1;
nodes = (
(102,0,l),
(102,11,l),
(89,11,l),
(89,0,l)
);
},
{
closed = 1;
nodes = (
(565,250,l),
(563,260,l),
(196,260,l),
(194,250,l)
);
},
{
closed = 1;
nodes = (
(669,0,l),
(669,11,l),
(656,11,l),
(656,0,l)
);
},
{
closed = 1;
nodes = (
(101,0,l),
(100,12,l),
(23,10,ls),
(20,10,o),
(16,8,o),
(16,5,cs),
(16,0,l)
);
},
{
closed = 1;
nodes = (
(184,0,l),
(184,5,ls),
(184,8,o),
(180,10,o),
(177,10,cs),
(100,12,l),
(99,0,l)
);
},
{
closed = 1;
nodes = (
(661,0,l),
(660,12,l),
(583,10,ls),
(580,10,o),
(576,8,o),
(576,5,cs),
(576,0,l)
);
},
{
closed = 1;
nodes = (
(744,0,l),
(744,5,ls),
(744,8,o),
(740,10,o),
(737,10,cs),
(660,12,l),
(659,0,l)
);
},
{
closed = 1;
nodes = (
(383,796,l),
(456,796,o),
(488,845,o),
(488,910,c),
(478,910,l),
(478,853,o),
(450,806,o),
(383,806,cs),
(316,806,o),
(288,854,o),
(288,910,c),
(278,910,l),
(278,845,o),
(312,796,o),
(383,796,c)
);
},
{
closed = 1;
nodes = (
(373,906,ls),
(375,903,o),
(378,902,o),
(381,902,cs),
(388,902,l),
(306,1020,l),
(301,1029,o),
(297,1031,o),
(285,1031,cs),
(272,1031,l),
(272,1031,l)
);
}
);
};
layerId = "A1468767-BE48-4A45-9F09-053256197B3B";
shapes = (
{
ref = A;
},
{
pos = (243,210);
ref = brevecomb_gravecomb;
}
);
width = 760;
},
{
background = {
anchors = (
{
name = bottom;
pos = (378,0);
},
{
name = ogonek;
pos = (636,2);
},
{
name = top;
pos = (378,1045);
}
);
shapes = (
{
closed = 1;
nodes = (
(117,0,ls),
(134,0,o),
(146,11,o),
(150,23,c),
(357,557,ls),
(364,576,o),
(370,598,o),
(378,625,c),
(385,598,o),
(392,576,o),
(399,558,cs),
(606,23,l),
(611,10,o),
(622,0,o),
(639,0,cs),
(714,0,l),
(427,717,l),
(329,717,l),
(42,0,l)
);
},
{
closed = 1;
nodes = (
(169,0,l),
(169,62,l),
(116,62,l),
(116,0,l)
);
},
{
closed = 1;
nodes = (
(554,212,l),
(527,282,l),
(232,282,l),
(205,212,l)
);
},
{
closed = 1;
nodes = (
(643,0,l),
(643,62,l),
(590,62,l),
(590,0,l)
);
},
{
closed = 1;
nodes = (
(115,0,l),
(104,78,l),
(29,62,ls),
(18,60,o),
(13,53,o),
(13,41,cs),
(13,0,l)
);
},
{
closed = 1;
nodes = (
(222,0,l),
(222,41,ls),
(222,53,o),
(217,60,o),
(206,62,cs),
(131,78,l),
(120,0,l)
);
},
{
closed = 1;
nodes = (
(636,0,l),
(625,78,l),
(550,62,ls),
(539,60,o),
(534,53,o),
(534,41,cs),
(534,0,l)
);
},
{
closed = 1;
nodes = (
(743,0,l),
(743,41,ls),
(743,53,o),
(738,60,o),
(727,62,cs),
(652,78,l),
(641,0,l)
);
},
{
closed = 1;
nodes = (
(387,792,l),
(484,792,o),
(524,847,o),
(524,927,c),
(461,927,l),
(461,880,o),
(442,850,o),
(387,850,cs),
(333,850,o),
(313,880,o),
(313,927,c),
(250,927,l),
(250,848,o),
(291,792,o),
(387,792,c)
);
},
{
closed = 1;
nodes = (
(348,916,ls),
(357,905,o),
(364,902,o),
(379,902,cs),
(430,902,l),
(355,1023,ls),
(346,1038,o),
(337,1045,o),
(316,1045,cs),
(231,1045,l),
(231,1045,l)
);
}
);
};
layerId = "BF33A826-8254-4501-9165-758AB68FE84B";
shapes = (
{
ref = A;
},
{
pos = (233,210);
ref = brevecomb_gravecomb;
}
);
width = 756;
},
{
background = {
anchors = (
{
name = bottom;
pos = (407,0);
},
{
name = ogonek;
pos = (645,2);
},
{
name = top;
pos = (407,1105);
}
);
shapes = (
{
closed = 1;
nodes = (
(170,0,ls),
(198,0,o),
(218,18,o),
(225,37,c),
(374,477,ls),
(385,510,o),
(396,537,o),
(407,579,c),
(417,538,o),
(429,507,o),
(439,478,cs),
(588,37,ls),
(595,16,o),
(614,0,o),
(644,0,cs),
(775,0,l),
(493,729,l),
(320,729,l),
(38,0,l)
);
},
{
closed = 1;
nodes = (
(260,0,l),
(260,71,l),
(138,71,l),
(138,0,l)
);
},
{
closed = 1;
nodes = (
(574,190,l),
(564,305,l),
(238,305,l),
(228,190,l)
);
},
{
closed = 1;
nodes = (
(665,0,l),
(665,71,l),
(533,71,l),
(533,0,l)
);
},
{
closed = 1;
nodes = (
(105,0,l),
(91,118,l),
(47,109,ls),
(23,104,o),
(8,94,o),
(8,71,cs),
(8,0,l)
);
},
{
closed = 1;
nodes = (
(319,0,l),
(319,71,ls),
(319,94,o),
(304,104,o),
(280,109,cs),
(236,118,l),
(222,0,l)
);
},
{
closed = 1;
nodes = (
(591,0,l),
(577,118,l),
(533,109,ls),
(509,104,o),
(494,94,o),
(494,71,cs),
(494,0,l)
);
},
{
closed = 1;
nodes = (
(805,0,l),
(805,71,ls),
(805,94,o),
(790,104,o),
(766,109,cs),
(722,118,l),
(708,0,l)
);
},
{
closed = 1;
nodes = (
(432,790,l),
(549,790,o),
(596,849,o),
(596,939,c),
(488,939,l),
(488,900,o),
(478,884,o),
(432,884,cs),
(388,884,o),
(376,900,o),
(376,939,c),
(268,939,l),
(268,849,o),
(315,790,o),
(432,790,c)
);
},
{
closed = 1;
nodes = (
(348,973,ls),
(364,958,o),
(375,952,o),
(398,952,cs),
(486,952,l),
(418,1075,ls),
(407,1094,o),
(395,1105,o),
(363,1105,cs),
(218,1105,l),
(218,1105,l)
);
}
);
};
layerId = "2C516476-8145-48E3-8501-3D313ADE77C9";
shapes = (
{
ref = A;
},
{
pos = (267,210);
ref = brevecomb_gravecomb;
}
);
width = 813;
}
);
unicode = 7856;
},
{
glyphname = Abrevehookabove;
layers = (
{
background = {
anchors = (
{
name = bottom;
pos = (380,0);
},
{
name = ogonek;
pos = (665,2);
},
{
name = top;
pos = (380,1038);
}
);
shapes = (
{
closed = 1;
nodes = (
(91,0,ls),
(95,0,o),
(97,2,o),
(98,5,c),
(372,663,ls),
(374,668,o),
(379,680,o),
(380,684,c),
(381,680,o),
(386,668,o),
(388,663,cs),
(662,5,l),
(663,2,o),
(665,0,o),
(668,0,cs),
(677,0,l),
(385,700,l),
(375,700,l),
(83,0,l)
);
},
{
closed = 1;
nodes = (
(102,0,l),
(102,11,l),
(89,11,l),
(89,0,l)
);
},
{
closed = 1;
nodes = (
(565,250,l),
(563,260,l),
(196,260,l),
(194,250,l)
);
},
{
closed = 1;
nodes = (
(669,0,l),
(669,11,l),
(656,11,l),
(656,0,l)
);
},
{
closed = 1;
nodes = (
(101,0,l),
(100,12,l),
(23,10,ls),
(20,10,o),
(16,8,o),
(16,5,cs),
(16,0,l)
);
},
{
closed = 1;
nodes = (
(184,0,l),
(184,5,ls),
(184,8,o),
(180,10,o),
(177,10,cs),
(100,12,l),
(99,0,l)
);
},
{
closed = 1;
nodes = (
(661,0,l),
(660,12,l),
(583,10,ls),
(580,10,o),
(576,8,o),
(576,5,cs),
(576,0,l)
);
},
{
closed = 1;
nodes = (
(744,0,l),
(744,5,ls),
(744,8,o),
(740,10,o),
(737,10,cs),
(660,12,l),
(659,0,l)
);
},
{
closed = 1;
nodes = (
(380,796,l),
(453,796,o),
(485,845,o),
(485,910,c),
(475,910,l),
(475,853,o),
(447,806,o),
(380,806,cs),
(313,806,o),
(285,854,o),
(285,910,c),
(275,910,l),
(275,845,o),
(309,796,o),
(380,796,c)
);
},
{
closed = 1;
nodes = (
(382,901,l),
(384,940,l),
(424,949,o),
(437,966,o),
(437,989,cs),
(437,1016,o),
(419,1038,o),
(378,1038,cs),
(358,1038,o),
(341,1032,o),
(325,1019,c),
(328,1015,ls),
(329,1013,o),
(330,1013,o),
(331,1013,cs),
(335,1013,o),
(358,1029,o),
(377,1029,cs),
(411,1029,o),
(427,1010,o),
(427,989,cs),
(427,968,o),
(411,951,o),
(374,946,c),
(374,901,l)
);
}
);
};
layerId = "A1468767-BE48-4A45-9F09-053256197B3B";
shapes = (
{
ref = A;
},
{
pos = (240,210);
ref = brevecomb_hookabovecomb;
}
);
width = 760;
},
{
background = {
anchors = (
{
name = bottom;
pos = (378,0);
},
{
name = ogonek;
pos = (636,2);
},
{
name = top;
pos = (378,1075);
}
);
shapes = (
{
closed = 1;
nodes = (
(117,0,ls),
(134,0,o),
(146,11,o),
(150,23,c),
(357,557,ls),
(364,576,o),
(370,598,o),
(378,625,c),
(385,598,o),
(392,576,o),
(399,558,cs),
(606,23,l),
(611,10,o),
(622,0,o),
(639,0,cs),
(714,0,l),
(427,717,l),
(329,717,l),
(42,0,l)
);
},
{
closed = 1;
nodes = (
(169,0,l),
(169,62,l),
(116,62,l),
(116,0,l)
);
},
{
closed = 1;
nodes = (
(554,212,l),
(527,282,l),
(232,282,l),
(205,212,l)
);
},
{
closed = 1;
nodes = (
(643,0,l),
(643,62,l),
(590,62,l),
(590,0,l)
);
},
{
closed = 1;
nodes = (
(115,0,l),
(104,78,l),
(29,62,ls),
(18,60,o),
(13,53,o),
(13,41,cs),
(13,0,l)
);
},
{
closed = 1;
nodes = (
(222,0,l),
(222,41,ls),
(222,53,o),
(217,60,o),
(206,62,cs),
(131,78,l),
(120,0,l)
);
},
{
closed = 1;
nodes = (
(636,0,l),
(625,78,l),
(550,62,ls),
(539,60,o),
(534,53,o),
(534,41,cs),
(534,0,l)
);
},
{
closed = 1;
nodes = (
(743,0,l),
(743,41,ls),
(743,53,o),
(738,60,o),
(727,62,cs),
(652,78,l),
(641,0,l)
);
},
{
closed = 1;
nodes = (
(378,792,l),
(475,792,o),
(515,847,o),
(515,927,c),
(452,927,l),
(452,880,o),
(433,850,o),
(378,850,cs),
(324,850,o),
(304,880,o),
(304,927,c),
(241,927,l),
(241,848,o),
(282,792,o),
(378,792,c)
);
},
{
closed = 1;
nodes = (
(400,901,l),
(408,942,l),
(443,955,o),
(467,980,o),
(467,1012,cs),
(467,1052,o),
(433,1075,o),
(378,1075,cs),
(342,1075,o),
(309,1066,o),
(289,1050,c),
(306,1026,l),
(309,1021,o),
(312,1018,o),
(317,1018,cs),
(327,1018,o),
(349,1032,o),
(367,1032,cs),
(394,1032,o),
(403,1018,o),
(403,1003,cs),
(403,986,o),
(392,972,o),
(356,967,c),
(356,901,l)
);
}
);
};
layerId = "BF33A826-8254-4501-9165-758AB68FE84B";
shapes = (
{
ref = A;
},
{
pos = (224,210);
ref = brevecomb_hookabovecomb;
}
);
width = 756;
},
{
background = {
anchors = (
{
name = bottom;
pos = (407,0);
},
{
name = ogonek;
pos = (645,2);
},
{
name = top;
pos = (407,1126);
}
);
shapes = (
{
closed = 1;
nodes = (
(170,0,ls),
(198,0,o),
(218,18,o),
(225,37,c),
(374,477,ls),
(385,510,o),
(396,537,o),
(407,579,c),
(417,538,o),
(429,507,o),
(439,478,cs),
(588,37,ls),
(595,16,o),
(614,0,o),
(644,0,cs),
(775,0,l),
(493,729,l),
(320,729,l),
(38,0,l)
);
},
{
closed = 1;
nodes = (
(260,0,l),
(260,71,l),
(138,71,l),
(138,0,l)
);
},
{
closed = 1;
nodes = (
(574,190,l),
(564,305,l),
(238,305,l),
(228,190,l)
);
},
{
closed = 1;
nodes = (
(665,0,l),
(665,71,l),
(533,71,l),
(533,0,l)
);
},
{
closed = 1;
nodes = (
(105,0,l),
(91,118,l),
(47,109,ls),
(23,104,o),
(8,94,o),
(8,71,cs),
(8,0,l)
);
},
{
closed = 1;
nodes = (
(319,0,l),
(319,71,ls),
(319,94,o),
(304,104,o),
(280,109,cs),
(236,118,l),
(222,0,l)
);
},
{
closed = 1;
nodes = (
(591,0,l),
(577,118,l),
(533,109,ls),
(509,104,o),
(494,94,o),
(494,71,cs),
(494,0,l)
);
},
{
closed = 1;
nodes = (
(805,0,l),
(805,71,ls),
(805,94,o),
(790,104,o),
(766,109,cs),
(722,118,l),
(708,0,l)
);
},
{
closed = 1;
nodes = (
(407,790,l),
(524,790,o),
(571,849,o),
(571,939,c),
(463,939,l),
(463,900,o),
(453,884,o),
(407,884,cs),
(363,884,o),
(351,900,o),
(351,939,c),
(243,939,l),
(243,849,o),
(290,790,o),
(407,790,c)
);
},
{
closed = 1;
nodes = (
(443,923,l),
(457,969,l),
(491,987,o),
(520,1015,o),
(520,1052,cs),
(520,1095,o),
(483,1126,o),
(406,1126,cs),
(357,1126,o),
(310,1113,o),
(286,1096,c),
(314,1057,ls),
(319,1049,o),
(325,1043,o),
(334,1043,cs),
(344,1043,o),
(368,1056,o),
(386,1056,cs),
(403,1056,o),
(411,1048,o),
(411,1035,cs),
(411,1016,o),
(391,1008,o),
(370,1005,c),
(370,923,l)
);
}
);
};
layerId = "2C516476-8145-48E3-8501-3D313ADE77C9";
shapes = (
{
ref = A;
},
{
pos = (242,210);
ref = brevecomb_hookabovecomb;
}
);
width = 813;
}
);
unicode = 7858;
},
{
glyphname = Abrevetilde;
layers = (
{
background = {
anchors = (
{
name = bottom;
pos = (380,0);
},
{
name = ogonek;
pos = (665,2);
},
{
name = top;
pos = (380,995);
}
);
shapes = (
{
closed = 1;
nodes = (
(91,0,ls),
(95,0,o),
(97,2,o),
(98,5,c),
(372,663,ls),
(374,668,o),
(379,680,o),
(380,684,c),
(381,680,o),
(386,668,o),
(388,663,cs),
(662,5,l),
(663,2,o),
(665,0,o),
(668,0,cs),
(677,0,l),
(385,700,l),
(375,700,l),
(83,0,l)
);
},
{
closed = 1;
nodes = (
(102,0,l),
(102,11,l),
(89,11,l),
(89,0,l)
);
},
{
closed = 1;
nodes = (
(565,250,l),
(563,260,l),
(196,260,l),
(194,250,l)
);
},
{
closed = 1;
nodes = (
(669,0,l),
(669,11,l),
(656,11,l),
(656,0,l)
);
},
{
closed = 1;
nodes = (
(101,0,l),
(100,12,l),
(23,10,ls),
(20,10,o),
(16,8,o),
(16,5,cs),
(16,0,l)
);
},
{
closed = 1;
nodes = (
(184,0,l),
(184,5,ls),
(184,8,o),
(180,10,o),
(177,10,cs),
(100,12,l),
(99,0,l)
);
},
{
closed = 1;
nodes = (
(661,0,l),
(660,12,l),
(583,10,ls),
(580,10,o),
(576,8,o),
(576,5,cs),
(576,0,l)
);
},
{
closed = 1;
nodes = (
(744,0,l),
(744,5,ls),
(744,8,o),
(740,10,o),
(737,10,cs),
(660,12,l),
(659,0,l)
);
},
{
closed = 1;
nodes = (
(380,796,l),
(453,796,o),
(485,845,o),
(485,910,c),
(475,910,l),
(475,853,o),
(447,806,o),
(380,806,cs),
(313,806,o),
(285,854,o),
(285,910,c),
(275,910,l),
(275,845,o),
(309,796,o),
(380,796,c)
);
},
{
closed = 1;
nodes = (
(436,954,l),
(396,954,o),
(368,1012,o),
(324,1012,cs),
(287,1012,o),
(265,982,o),
(265,945,c),
(274,945,l),
(277,977,o),
(291,1002,o),
(324,1002,cs),
(361,1002,o),
(396,944,o),
(436,944,cs),
(475,944,o),
(494,974,o),
(494,1011,c),
(486,1011,l),
(485,979,o),
(469,954,o),
(436,954,c)
);
}
);
};
layerId = "A1468767-BE48-4A45-9F09-053256197B3B";
shapes = (
{
ref = A;
},
{
pos = (240,210);
ref = brevecomb_tildecomb;
}
);
width = 760;
},
{
background = {
anchors = (
{
name = bottom;
pos = (378,0);
},
{
name = ogonek;
pos = (636,2);
},
{
name = top;
pos = (378,1053);
}
);
shapes = (
{
closed = 1;
nodes = (
(117,0,ls),
(134,0,o),
(146,11,o),
(150,23,c),
(357,557,ls),
(364,576,o),
(370,598,o),
(378,625,c),
(385,598,o),
(392,576,o),
(399,558,cs),
(606,23,l),
(611,10,o),
(622,0,o),
(639,0,cs),
(714,0,l),
(427,717,l),
(329,717,l),
(42,0,l)
);
},
{
closed = 1;
nodes = (
(169,0,l),
(169,62,l),
(116,62,l),
(116,0,l)
);
},
{
closed = 1;
nodes = (
(554,212,l),
(527,282,l),
(232,282,l),
(205,212,l)
);
},
{
closed = 1;
nodes = (
(643,0,l),
(643,62,l),
(590,62,l),
(590,0,l)
);
},
{
closed = 1;
nodes = (
(115,0,l),
(104,78,l),
(29,62,ls),
(18,60,o),
(13,53,o),
(13,41,cs),
(13,0,l)
);
},
{
closed = 1;
nodes = (
(222,0,l),
(222,41,ls),
(222,53,o),
(217,60,o),
(206,62,cs),
(131,78,l),
(120,0,l)
);
},
{
closed = 1;
nodes = (
(636,0,l),
(625,78,l),
(550,62,ls),
(539,60,o),
(534,53,o),
(534,41,cs),
(534,0,l)
);
},
{
closed = 1;
nodes = (
(743,0,l),
(743,41,ls),
(743,53,o),
(738,60,o),
(727,62,cs),
(652,78,l),
(641,0,l)
);
},
{
closed = 1;
nodes = (
(378,792,l),
(475,792,o),
(515,847,o),
(515,927,c),
(452,927,l),
(452,880,o),
(433,850,o),
(378,850,cs),
(324,850,o),
(304,880,o),
(304,927,c),
(241,927,l),
(241,848,o),
(282,792,o),
(378,792,c)
);
},
{
closed = 1;
nodes = (
(432,1007,l),
(404,1007,o),
(364,1053,o),
(322,1053,cs),
(267,1053,o),
(232,1006,o),
(232,945,c),
(288,945,l),
(289,974,o),
(301,989,o),
(325,989,cs),
(354,989,o),
(393,943,o),
(435,943,cs),
(489,943,o),
(524,989,o),
(524,1050,c),
(470,1050,l),
(469,1021,o),
(456,1007,o),
(432,1007,c)
);
}
);
};
layerId = "BF33A826-8254-4501-9165-758AB68FE84B";
shapes = (
{
ref = A;
},
{
pos = (224,210);
ref = brevecomb_tildecomb;
}
);
width = 756;
},
{
background = {
anchors = (
{
name = bottom;
pos = (407,0);
},
{
name = ogonek;
pos = (645,2);
},
{
name = top;
pos = (407,1092);
}
);
shapes = (
{
closed = 1;
nodes = (
(170,0,ls),
(198,0,o),
(218,18,o),
(225,37,c),
(374,477,ls),
(385,510,o),
(396,537,o),
(407,579,c),
(417,538,o),
(429,507,o),
(439,478,cs),
(588,37,ls),
(595,16,o),
(614,0,o),
(644,0,cs),
(775,0,l),
(493,729,l),
(320,729,l),
(38,0,l)
);
},
{
closed = 1;
nodes = (
(260,0,l),
(260,71,l),
(138,71,l),
(138,0,l)
);
},
{
closed = 1;
nodes = (
(574,190,l),
(564,305,l),
(238,305,l),
(228,190,l)
);
},
{
closed = 1;
nodes = (
(665,0,l),
(665,71,l),
(533,71,l),
(533,0,l)
);
},
{
closed = 1;
nodes = (
(105,0,l),
(91,118,l),
(47,109,ls),
(23,104,o),
(8,94,o),
(8,71,cs),
(8,0,l)
);
},
{
closed = 1;
nodes = (
(319,0,l),
(319,71,ls),
(319,94,o),
(304,104,o),
(280,109,cs),
(236,118,l),
(222,0,l)
);
},
{
closed = 1;
nodes = (
(591,0,l),
(577,118,l),
(533,109,ls),
(509,104,o),
(494,94,o),
(494,71,cs),
(494,0,l)
);
},
{
closed = 1;
nodes = (
(805,0,l),
(805,71,ls),
(805,94,o),
(790,104,o),
(766,109,cs),
(722,118,l),
(708,0,l)
);
},
{
closed = 1;
nodes = (
(405,790,l),
(522,790,o),
(569,849,o),
(569,939,c),
(461,939,l),
(461,900,o),
(451,884,o),
(405,884,cs),
(361,884,o),
(349,900,o),
(349,939,c),
(241,939,l),
(241,849,o),
(288,790,o),
(405,790,c)
);
},
{
closed = 1;
nodes = (
(458,1055,l),
(435,1055,o),
(391,1092,o),
(349,1092,cs),
(283,1092,o),
(234,1033,o),
(234,954,c),
(329,954,l),
(329,982,o),
(339,988,o),
(355,988,cs),
(379,988,o),
(421,951,o),
(464,951,cs),
(533,951,o),
(579,1007,o),
(579,1088,c),
(485,1088,l),
(485,1060,o),
(474,1055,o),
(458,1055,c)
);
}
);
};
layerId = "2C516476-8145-48E3-8501-3D313ADE77C9";
shapes = (
{
ref = A;
},
{
pos = (240,210);
ref = brevecomb_tildecomb;
}
);
width = 813;
}
);
unicode = 7860;
},
{
glyphname = Acaron;
layers = (
{
background = {
anchors = (
{
name = bottom;
pos = (380,0);
},
{
name = ogonek;
pos = (665,2);
},
{
name = top;
pos = (380,700);
}
);
shapes = (
{
closed = 1;
nodes = (
(91,0,ls),
(95,0,o),
(97,2,o),
(98,5,c),
(372,663,ls),
(374,668,o),
(379,680,o),
(380,684,c),
(381,680,o),
(386,668,o),
(388,663,cs),
(662,5,l),
(663,2,o),
(665,0,o),
(668,0,cs),
(677,0,l),
(385,700,l),
(375,700,l),
(83,0,l)
);
},
{
closed = 1;
nodes = (
(102,0,l),
(102,11,l),
(89,11,l),
(89,0,l)
);
},
{
closed = 1;
nodes = (
(565,250,l),
(563,260,l),
(196,260,l),
(194,250,l)
);
},
{
closed = 1;
nodes = (
(669,0,l),
(669,11,l),
(656,11,l),
(656,0,l)
);
},
{
closed = 1;
nodes = (
(101,0,l),
(100,12,l),
(23,10,ls),
(20,10,o),
(16,8,o),
(16,5,cs),
(16,0,l)
);
},
{
closed = 1;
nodes = (
(184,0,l),
(184,5,ls),
(184,8,o),
(180,10,o),
(177,10,cs),
(100,12,l),
(99,0,l)
);
},
{
closed = 1;
nodes = (
(661,0,l),
(660,12,l),
(583,10,ls),
(580,10,o),
(576,8,o),
(576,5,cs),
(576,0,l)
);
},
{
closed = 1;
nodes = (
(744,0,l),
(744,5,ls),
(744,8,o),
(740,10,o),
(737,10,cs),
(660,12,l),
(659,0,l)
);
},
{
closed = 1;
nodes = (
(481,910,ls),
(477,910,o),
(474,907,o),
(473,906,cs),
(380,805,l),
(287,906,ls),
(284,909,o),
(282,910,o),
(279,910,cs),
(270,910,l),
(376,795,l),
(384,795,l),
(490,910,l)
);
}
);
};
layerId = "A1468767-BE48-4A45-9F09-053256197B3B";
shapes = (
{
ref = A;
},
{
pos = (240,210);
ref = caroncomb;
}
);
width = 760;
},
{
background = {
anchors = (
{
name = bottom;
pos = (378,0);
},
{
name = ogonek;
pos = (636,2);
},
{
name = top;
pos = (378,717);
}
);
shapes = (
{
closed = 1;
nodes = (
(117,0,ls),
(134,0,o),
(146,11,o),
(150,23,c),
(357,557,ls),
(364,576,o),
(370,598,o),
(378,625,c),
(385,598,o),
(392,576,o),
(399,558,cs),
(606,23,l),
(611,10,o),
(622,0,o),
(639,0,cs),
(714,0,l),
(427,717,l),
(329,717,l),
(42,0,l)
);
},
{
closed = 1;
nodes = (
(169,0,l),
(169,62,l),
(116,62,l),
(116,0,l)
);
},
{
closed = 1;
nodes = (
(554,212,l),
(527,282,l),
(232,282,l),
(205,212,l)
);
},
{
closed = 1;
nodes = (
(643,0,l),
(643,62,l),
(590,62,l),
(590,0,l)
);
},
{
closed = 1;
nodes = (
(115,0,l),
(104,78,l),
(29,62,ls),
(18,60,o),
(13,53,o),
(13,41,cs),
(13,0,l)
);
},
{
closed = 1;
nodes = (
(222,0,l),
(222,41,ls),
(222,53,o),
(217,60,o),
(206,62,cs),
(131,78,l),
(120,0,l)
);
},
{
closed = 1;
nodes = (
(636,0,l),
(625,78,l),
(550,62,ls),
(539,60,o),
(534,53,o),
(534,41,cs),
(534,0,l)
);
},
{
closed = 1;
nodes = (
(743,0,l),
(743,41,ls),
(743,53,o),
(738,60,o),
(727,62,cs),
(652,78,l),
(641,0,l)
);
},
{
closed = 1;
nodes = (
(469,927,ls),
(461,927,o),
(453,924,o),
(449,920,cs),
(377,849,l),
(304,920,ls),
(298,925,o),
(291,927,o),
(284,927,cs),
(225,927,l),
(336,795,l),
(419,795,l),
(531,927,l)
);
}
);
};
layerId = "BF33A826-8254-4501-9165-758AB68FE84B";
shapes = (
{
ref = A;
},
{
pos = (224,210);
ref = caroncomb;
}
);
width = 756;
},
{
background = {
anchors = (
{
name = bottom;
pos = (407,0);
},
{
name = ogonek;
pos = (645,2);
},
{
name = top;
pos = (407,729);
}
);
shapes = (
{
closed = 1;
nodes = (
(170,0,ls),
(198,0,o),
(218,18,o),
(225,37,c),
(374,477,ls),
(385,510,o),
(396,537,o),
(407,579,c),
(417,538,o),
(429,507,o),
(439,478,cs),
(588,37,ls),
(595,16,o),
(614,0,o),
(644,0,cs),
(775,0,l),
(493,729,l),
(320,729,l),
(38,0,l)
);
},
{
closed = 1;
nodes = (
(260,0,l),
(260,71,l),
(138,71,l),
(138,0,l)
);
},
{
closed = 1;
nodes = (
(574,190,l),
(564,305,l),
(238,305,l),
(228,190,l)
);
},
{
closed = 1;
nodes = (
(665,0,l),
(665,71,l),
(533,71,l),
(533,0,l)
);
},
{
closed = 1;
nodes = (
(105,0,l),
(91,118,l),
(47,109,ls),
(23,104,o),
(8,94,o),
(8,71,cs),
(8,0,l)
);
},
{
closed = 1;
nodes = (
(319,0,l),
(319,71,ls),
(319,94,o),
(304,104,o),
(280,109,cs),
(236,118,l),
(222,0,l)
);
},
{
closed = 1;
nodes = (
(591,0,l),
(577,118,l),
(533,109,ls),
(509,104,o),
(494,94,o),
(494,71,cs),
(494,0,l)
);
},
{
closed = 1;
nodes = (
(805,0,l),
(805,71,ls),
(805,94,o),
(790,104,o),
(766,109,cs),
(722,118,l),
(708,0,l)
);
},
{
closed = 1;
nodes = (
(490,939,ls),
(478,939,o),
(465,934,o),
(460,929,cs),
(407,880,l),
(350,929,ls),
(343,935,o),
(332,939,o),
(320,939,cs),
(217,939,l),
(334,794,l),
(480,794,l),
(597,939,l)
);
}
);
};
layerId = "2C516476-8145-48E3-8501-3D313ADE77C9";
shapes = (
{
ref = A;
},
{
pos = (212,210);
ref = caroncomb;
}
);
width = 813;
}
);
unicode = 461;
},
{
glyphname = Acircumflex;
layers = (
{
background = {
anchors = (
{
name = bottom;
pos = (380,0);
},
{
name = ogonek;
pos = (665,2);
},
{
name = top;
pos = (380,700);
}
);
shapes = (
{
closed = 1;
nodes = (
(91,0,ls),
(95,0,o),
(97,2,o),
(98,5,c),
(372,663,ls),
(374,668,o),
(379,680,o),
(380,684,c),
(381,680,o),
(386,668,o),
(388,663,cs),
(662,5,l),
(663,2,o),
(665,0,o),
(668,0,cs),
(677,0,l),
(385,700,l),
(375,700,l),
(83,0,l)
);
},
{
closed = 1;
nodes = (
(102,0,l),
(102,11,l),
(89,11,l),
(89,0,l)
);
},
{
closed = 1;
nodes = (
(565,250,l),
(563,260,l),
(196,260,l),
(194,250,l)
);
},
{
closed = 1;
nodes = (
(669,0,l),
(669,11,l),
(656,11,l),
(656,0,l)
);
},
{
closed = 1;
nodes = (
(101,0,l),
(100,12,l),
(23,10,ls),
(20,10,o),
(16,8,o),
(16,5,cs),
(16,0,l)
);
},
{
closed = 1;
nodes = (
(184,0,l),
(184,5,ls),
(184,8,o),
(180,10,o),
(177,10,cs),
(100,12,l),
(99,0,l)
);
},
{
closed = 1;
nodes = (
(661,0,l),
(660,12,l),
(583,10,ls),
(580,10,o),
(576,8,o),
(576,5,cs),
(576,0,l)
);
},
{
closed = 1;
nodes = (
(744,0,l),
(744,5,ls),
(744,8,o),
(740,10,o),
(737,10,cs),
(660,12,l),
(659,0,l)
);
},
{
closed = 1;
nodes = (
(279,795,ls),
(283,795,o),
(286,798,o),
(287,799,cs),
(380,900,l),
(473,799,ls),
(476,796,o),
(478,795,o),
(481,795,cs),
(490,795,l),
(384,910,l),
(376,910,l),
(270,795,l)
);
}
);
};
layerId = "A1468767-BE48-4A45-9F09-053256197B3B";
shapes = (
{
ref = A;
},
{
pos = (240,210);
ref = circumflexcomb;
}
);
width = 760;
},
{
background = {
anchors = (
{
name = bottom;
pos = (378,0);
},
{
name = ogonek;
pos = (636,2);
},
{
name = top;
pos = (378,717);
}
);
shapes = (
{
closed = 1;
nodes = (
(117,0,ls),
(134,0,o),
(146,11,o),
(150,23,c),
(357,557,ls),
(364,576,o),
(370,598,o),
(378,625,c),
(385,598,o),
(392,576,o),
(399,558,cs),
(606,23,l),
(611,10,o),
(622,0,o),
(639,0,cs),
(714,0,l),
(427,717,l),
(329,717,l),
(42,0,l)
);
},
{
closed = 1;
nodes = (
(169,0,l),
(169,62,l),
(116,62,l),
(116,0,l)
);
},
{
closed = 1;
nodes = (
(554,212,l),
(527,282,l),
(232,282,l),
(205,212,l)
);
},
{
closed = 1;
nodes = (
(643,0,l),
(643,62,l),
(590,62,l),
(590,0,l)
);
},
{
closed = 1;
nodes = (
(115,0,l),
(104,78,l),
(29,62,ls),
(18,60,o),
(13,53,o),
(13,41,cs),
(13,0,l)
);
},
{
closed = 1;
nodes = (
(222,0,l),
(222,41,ls),
(222,53,o),
(217,60,o),
(206,62,cs),
(131,78,l),
(120,0,l)
);
},
{
closed = 1;
nodes = (
(636,0,l),
(625,78,l),
(550,62,ls),
(539,60,o),
(534,53,o),
(534,41,cs),
(534,0,l)
);
},
{
closed = 1;
nodes = (
(743,0,l),
(743,41,ls),
(743,53,o),
(738,60,o),
(727,62,cs),
(652,78,l),
(641,0,l)
);
},
{
closed = 1;
nodes = (
(287,795,ls),
(295,795,o),
(303,798,o),
(307,802,cs),
(379,873,l),
(452,802,ls),
(458,797,o),
(465,795,o),
(472,795,cs),
(531,795,l),
(420,927,l),
(337,927,l),
(225,795,l)
);
}
);
};
layerId = "BF33A826-8254-4501-9165-758AB68FE84B";
shapes = (
{
ref = A;
},
{
pos = (224,210);
ref = circumflexcomb;
}
);
width = 756;
},
{
background = {
anchors = (
{
name = bottom;
pos = (407,0);
},
{
name = ogonek;
pos = (645,2);
},
{
name = top;
pos = (407,729);
}
);
shapes = (
{
closed = 1;
nodes = (
(170,0,ls),
(198,0,o),
(218,18,o),
(225,37,c),
(374,477,ls),
(385,510,o),
(396,537,o),
(407,579,c),
(417,538,o),
(429,507,o),
(439,478,cs),
(588,37,ls),
(595,16,o),
(614,0,o),
(644,0,cs),
(775,0,l),
(493,729,l),
(320,729,l),
(38,0,l)
);
},
{
closed = 1;
nodes = (
(260,0,l),
(260,71,l),
(138,71,l),
(138,0,l)
);
},
{
closed = 1;
nodes = (
(574,190,l),
(564,305,l),
(238,305,l),
(228,190,l)
);
},
{
closed = 1;
nodes = (
(665,0,l),
(665,71,l),
(533,71,l),
(533,0,l)
);
},
{
closed = 1;
nodes = (
(105,0,l),
(91,118,l),
(47,109,ls),
(23,104,o),
(8,94,o),
(8,71,cs),
(8,0,l)
);
},
{
closed = 1;
nodes = (
(319,0,l),
(319,71,ls),
(319,94,o),
(304,104,o),
(280,109,cs),
(236,118,l),
(222,0,l)
);
},
{
closed = 1;
nodes = (
(591,0,l),
(577,118,l),
(533,109,ls),
(509,104,o),
(494,94,o),
(494,71,cs),
(494,0,l)
);
},
{
closed = 1;
nodes = (
(805,0,l),
(805,71,ls),
(805,94,o),
(790,104,o),
(766,109,cs),
(722,118,l),
(708,0,l)
);
},
{
closed = 1;
nodes = (
(324,794,ls),
(336,794,o),
(349,799,o),
(354,804,cs),
(407,853,l),
(464,804,ls),
(471,798,o),
(482,794,o),
(494,794,cs),
(597,794,l),
(480,939,l),
(334,939,l),
(217,794,l)
);
}
);
};
layerId = "2C516476-8145-48E3-8501-3D313ADE77C9";
shapes = (
{
ref = A;
},
{
pos = (212,210);
ref = circumflexcomb;
}
);
width = 813;
}
);
unicode = 194;
},
{
glyphname = Acircumflexacute;
layers = (
{
background = {
anchors = (
{
name = bottom;
pos = (380,0);
},
{
name = ogonek;
pos = (665,2);
},
{
name = top;
pos = (380,926);
}
);
shapes = (
{
closed = 1;
nodes = (
(91,0,ls),
(95,0,o),
(97,2,o),
(98,5,c),
(372,663,ls),
(374,668,o),
(379,680,o),
(380,684,c),
(381,680,o),
(386,668,o),
(388,663,cs),
(662,5,l),
(663,2,o),
(665,0,o),
(668,0,cs),
(677,0,l),
(385,700,l),
(375,700,l),
(83,0,l)
);
},
{
closed = 1;
nodes = (
(102,0,l),
(102,11,l),
(89,11,l),
(89,0,l)
);
},
{
closed = 1;
nodes = (
(565,250,l),
(563,260,l),
(196,260,l),
(194,250,l)
);
},
{
closed = 1;
nodes = (
(669,0,l),
(669,11,l),
(656,11,l),
(656,0,l)
);
},
{
closed = 1;
nodes = (
(101,0,l),
(100,12,l),
(23,10,ls),
(20,10,o),
(16,8,o),
(16,5,cs),
(16,0,l)
);
},
{
closed = 1;
nodes = (
(184,0,l),
(184,5,ls),
(184,8,o),
(180,10,o),
(177,10,cs),
(100,12,l),
(99,0,l)
);
},
{
closed = 1;
nodes = (
(661,0,l),
(660,12,l),
(583,10,ls),
(580,10,o),
(576,8,o),
(576,5,cs),
(576,0,l)
);
},
{
closed = 1;
nodes = (
(744,0,l),
(744,5,ls),
(744,8,o),
(740,10,o),
(737,10,cs),
(660,12,l),
(659,0,l)
);
},
{
closed = 1;
nodes = (
(509,926,l),
(500,926,ls),
(489,926,o),
(486,924,o),
(479,915,cs),
(429,843,l),
(438,833,l)
);
},
{
closed = 1;
nodes = (
(279,751,ls),
(283,751,o),
(286,754,o),
(287,755,cs),
(380,856,l),
(473,755,ls),
(476,752,o),
(478,751,o),
(481,751,cs),
(490,751,l),
(384,866,l),
(376,866,l),
(270,751,l)
);
}
);
};
layerId = "A1468767-BE48-4A45-9F09-053256197B3B";
shapes = (
{
ref = A;
},
{
pos = (240,166);
ref = circumflexcomb_acutecomb;
}
);
width = 760;
},
{
background = {
anchors = (
{
name = bottom;
pos = (378,0);
},
{
name = ogonek;
pos = (636,2);
},
{
name = top;
pos = (378,996);
}
);
shapes = (
{
closed = 1;
nodes = (
(117,0,ls),
(134,0,o),
(146,11,o),
(150,23,c),
(357,557,ls),
(364,576,o),
(370,598,o),
(378,625,c),
(385,598,o),
(392,576,o),
(399,558,cs),
(606,23,l),
(611,10,o),
(622,0,o),
(639,0,cs),
(714,0,l),
(427,717,l),
(329,717,l),
(42,0,l)
);
},
{
closed = 1;
nodes = (
(169,0,l),
(169,62,l),
(116,62,l),
(116,0,l)
);
},
{
closed = 1;
nodes = (
(554,212,l),
(527,282,l),
(232,282,l),
(205,212,l)
);
},
{
closed = 1;
nodes = (
(643,0,l),
(643,62,l),
(590,62,l),
(590,0,l)
);
},
{
closed = 1;
nodes = (
(115,0,l),
(104,78,l),
(29,62,ls),
(18,60,o),
(13,53,o),
(13,41,cs),
(13,0,l)
);
},
{
closed = 1;
nodes = (
(222,0,l),
(222,41,ls),
(222,53,o),
(217,60,o),
(206,62,cs),
(131,78,l),
(120,0,l)
);
},
{
closed = 1;
nodes = (
(636,0,l),
(625,78,l),
(550,62,ls),
(539,60,o),
(534,53,o),
(534,41,cs),
(534,0,l)
);
},
{
closed = 1;
nodes = (
(743,0,l),
(743,41,ls),
(743,53,o),
(738,60,o),
(727,62,cs),
(652,78,l),
(641,0,l)
);
},
{
closed = 1;
nodes = (
(568,996,l),
(501,996,ls),
(480,996,o),
(470,989,o),
(461,974,cs),
(435,932,l),
(480,877,l)
);
},
{
closed = 1;
nodes = (
(287,795,ls),
(295,795,o),
(303,798,o),
(307,802,cs),
(379,873,l),
(452,802,ls),
(458,797,o),
(465,795,o),
(472,795,cs),
(531,795,l),
(420,927,l),
(337,927,l),
(225,795,l)
);
}
);
};
layerId = "BF33A826-8254-4501-9165-758AB68FE84B";
shapes = (
{
ref = A;
},
{
pos = (224,210);
ref = circumflexcomb_acutecomb;
}
);
width = 756;
},
{
background = {
anchors = (
{
name = bottom;
pos = (407,0);
},
{
name = ogonek;
pos = (645,2);
},
{
name = top;
pos = (407,1015);
}
);
shapes = (
{
closed = 1;
nodes = (
(170,0,ls),
(198,0,o),
(218,18,o),
(225,37,c),
(374,477,ls),
(385,510,o),
(396,537,o),
(407,579,c),
(417,538,o),
(429,507,o),
(439,478,cs),
(588,37,ls),
(595,16,o),
(614,0,o),
(644,0,cs),
(775,0,l),
(493,729,l),
(320,729,l),
(38,0,l)
);
},
{
closed = 1;
nodes = (
(260,0,l),
(260,71,l),
(138,71,l),
(138,0,l)
);
},
{
closed = 1;
nodes = (
(574,190,l),
(564,305,l),
(238,305,l),
(228,190,l)
);
},
{
closed = 1;
nodes = (
(665,0,l),
(665,71,l),
(533,71,l),
(533,0,l)
);
},
{
closed = 1;
nodes = (
(105,0,l),
(91,118,l),
(47,109,ls),
(23,104,o),
(8,94,o),
(8,71,cs),
(8,0,l)
);
},
{
closed = 1;
nodes = (
(319,0,l),
(319,71,ls),
(319,94,o),
(304,104,o),
(280,109,cs),
(236,118,l),
(222,0,l)
);
},
{
closed = 1;
nodes = (
(591,0,l),
(577,118,l),
(533,109,ls),
(509,104,o),
(494,94,o),
(494,71,cs),
(494,0,l)
);
},
{
closed = 1;
nodes = (
(805,0,l),
(805,71,ls),
(805,94,o),
(790,104,o),
(766,109,cs),
(722,118,l),
(708,0,l)
);
},
{
closed = 1;
nodes = (
(681,1015,l),
(561,1015,ls),
(530,1015,o),
(516,1006,o),
(506,985,cs),
(495,961,l),
(567,876,l)
);
},
{
closed = 1;
nodes = (
(324,794,ls),
(336,794,o),
(349,799,o),
(354,804,cs),
(407,853,l),
(464,804,ls),
(471,798,o),
(482,794,o),
(494,794,cs),
(597,794,l),
(480,939,l),
(334,939,l),
(217,794,l)
);
}
);
};
layerId = "2C516476-8145-48E3-8501-3D313ADE77C9";
shapes = (
{
ref = A;
},
{
pos = (212,210);
ref = circumflexcomb_acutecomb;
}
);
width = 813;
}
);
unicode = 7844;
},
{
glyphname = Acircumflexdotbelow;
layers = (
{
background = {
anchors = (
{
name = bottom;
pos = (380,-164);
},
{
name = ogonek;
pos = (665,2);
},
{
name = top;
pos = (380,700);
}
);
shapes = (
{
closed = 1;
nodes = (
(91,0,ls),
(95,0,o),
(97,2,o),
(98,5,c),
(372,663,ls),
(374,668,o),
(379,680,o),
(380,684,c),
(381,680,o),
(386,668,o),
(388,663,cs),
(662,5,l),
(663,2,o),
(665,0,o),
(668,0,cs),
(677,0,l),
(385,700,l),
(375,700,l),
(83,0,l)
);
},
{
closed = 1;
nodes = (
(102,0,l),
(102,11,l),
(89,11,l),
(89,0,l)
);
},
{
closed = 1;
nodes = (
(565,250,l),
(563,260,l),
(196,260,l),
(194,250,l)
);
},
{
closed = 1;
nodes = (
(669,0,l),
(669,11,l),
(656,11,l),
(656,0,l)
);
},
{
closed = 1;
nodes = (
(101,0,l),
(100,12,l),
(23,10,ls),
(20,10,o),
(16,8,o),
(16,5,cs),
(16,0,l)
);
},
{
closed = 1;
nodes = (
(184,0,l),
(184,5,ls),
(184,8,o),
(180,10,o),
(177,10,cs),
(100,12,l),
(99,0,l)
);
},
{
closed = 1;
nodes = (
(661,0,l),
(660,12,l),
(583,10,ls),
(580,10,o),
(576,8,o),
(576,5,cs),
(576,0,l)
);
},
{
closed = 1;
nodes = (
(744,0,l),
(744,5,ls),
(744,8,o),
(740,10,o),
(737,10,cs),
(660,12,l),
(659,0,l)
);
},
{
closed = 1;
nodes = (
(395,-164,o),
(408,-150,o),
(408,-137,cs),
(408,-121,o),
(395,-109,o),
(380,-109,cs),
(365,-109,o),
(352,-121,o),
(352,-137,cs),
(352,-150,o),
(365,-164,o),
(380,-164,cs)
);
},
{
closed = 1;
nodes = (
(279,795,ls),
(283,795,o),
(286,798,o),
(287,799,cs),
(380,900,l),
(473,799,ls),
(476,796,o),
(478,795,o),
(481,795,cs),
(490,795,l),
(384,910,l),
(376,910,l),
(270,795,l)
);
}
);
};
layerId = "A1468767-BE48-4A45-9F09-053256197B3B";
shapes = (
{
ref = A;
},
{
pos = (342,0);
ref = dotbelowcomb;
},
{
pos = (240,210);
ref = circumflexcomb;
}
);
width = 760;
},
{
background = {
anchors = (
{
name = bottom;
pos = (378,-181);
},
{
name = ogonek;
pos = (636,2);
},
{
name = top;
pos = (378,717);
}
);
shapes = (
{
closed = 1;
nodes = (
(117,0,ls),
(134,0,o),
(146,11,o),
(150,23,c),
(357,557,ls),
(364,576,o),
(370,598,o),
(378,625,c),
(385,598,o),
(392,576,o),
(399,558,cs),
(606,23,l),
(611,10,o),
(622,0,o),
(639,0,cs),
(714,0,l),
(427,717,l),
(329,717,l),
(42,0,l)
);
},
{
closed = 1;
nodes = (
(169,0,l),
(169,62,l),
(116,62,l),
(116,0,l)
);
},
{
closed = 1;
nodes = (
(554,212,l),
(527,282,l),
(232,282,l),
(205,212,l)
);
},
{
closed = 1;
nodes = (
(643,0,l),
(643,62,l),
(590,62,l),
(590,0,l)
);
},
{
closed = 1;
nodes = (
(115,0,l),
(104,78,l),
(29,62,ls),
(18,60,o),
(13,53,o),
(13,41,cs),
(13,0,l)
);
},
{
closed = 1;
nodes = (
(222,0,l),
(222,41,ls),
(222,53,o),
(217,60,o),
(206,62,cs),
(131,78,l),
(120,0,l)
);
},
{
closed = 1;
nodes = (
(636,0,l),
(625,78,l),
(550,62,ls),
(539,60,o),
(534,53,o),
(534,41,cs),
(534,0,l)
);
},
{
closed = 1;
nodes = (
(743,0,l),
(743,41,ls),
(743,53,o),
(738,60,o),
(727,62,cs),
(652,78,l),
(641,0,l)
);
},
{
closed = 1;
nodes = (
(409,-181,o),
(435,-156,o),
(435,-124,cs),
(435,-92,o),
(409,-66,o),
(378,-67,cs),
(346,-68,o),
(321,-92,o),
(321,-124,cs),
(321,-156,o),
(346,-181,o),
(378,-181,cs)
);
},
{
closed = 1;
nodes = (
(287,795,ls),
(295,795,o),
(303,798,o),
(307,802,cs),
(379,873,l),
(452,802,ls),
(458,797,o),
(465,795,o),
(472,795,cs),
(531,795,l),
(420,927,l),
(337,927,l),
(225,795,l)
);
}
);
};
layerId = "BF33A826-8254-4501-9165-758AB68FE84B";
shapes = (
{
ref = A;
},
{
pos = (311,0);
ref = dotbelowcomb;
},
{
pos = (224,210);
ref = circumflexcomb;
}
);
width = 756;
},
{
background = {
anchors = (
{
name = bottom;
pos = (407,-194);
},
{
name = ogonek;
pos = (645,2);
},
{
name = top;
pos = (407,729);
}
);
shapes = (
{
closed = 1;
nodes = (
(170,0,ls),
(198,0,o),
(218,18,o),
(225,37,c),
(374,477,ls),
(385,510,o),
(396,537,o),
(407,579,c),
(417,538,o),
(429,507,o),
(439,478,cs),
(588,37,ls),
(595,16,o),
(614,0,o),
(644,0,cs),
(775,0,l),
(493,729,l),
(320,729,l),
(38,0,l)
);
},
{
closed = 1;
nodes = (
(260,0,l),
(260,71,l),
(138,71,l),
(138,0,l)
);
},
{
closed = 1;
nodes = (
(574,190,l),
(564,305,l),
(238,305,l),
(228,190,l)
);
},
{
closed = 1;
nodes = (
(665,0,l),
(665,71,l),
(533,71,l),
(533,0,l)
);
},
{
closed = 1;
nodes = (
(105,0,l),
(91,118,l),
(47,109,ls),
(23,104,o),
(8,94,o),
(8,71,cs),
(8,0,l)
);
},
{
closed = 1;
nodes = (
(319,0,l),
(319,71,ls),
(319,94,o),
(304,104,o),
(280,109,cs),
(236,118,l),
(222,0,l)
);
},
{
closed = 1;
nodes = (
(591,0,l),
(577,118,l),
(533,109,ls),
(509,104,o),
(494,94,o),
(494,71,cs),
(494,0,l)
);
},
{
closed = 1;
nodes = (
(805,0,l),
(805,71,ls),
(805,94,o),
(790,104,o),
(766,109,cs),
(722,118,l),
(708,0,l)
);
},
{
closed = 1;
nodes = (
(451,-194,o),
(488,-158,o),
(488,-115,cs),
(488,-72,o),
(451,-36,o),
(405,-36,cs),
(362,-36,o),
(325,-73,o),
(325,-115,cs),
(325,-157,o),
(362,-194,o),
(405,-194,cs)
);
},
{
closed = 1;
nodes = (
(324,794,ls),
(336,794,o),
(349,799,o),
(354,804,cs),
(407,853,l),
(464,804,ls),
(471,798,o),
(482,794,o),
(494,794,cs),
(597,794,l),
(480,939,l),
(334,939,l),
(217,794,l)
);
}
);
};
layerId = "2C516476-8145-48E3-8501-3D313ADE77C9";
shapes = (
{
ref = A;
},
{
pos = (315,0);
ref = dotbelowcomb;
},
{
pos = (212,210);
ref = circumflexcomb;
}
);
width = 813;
}
);
unicode = 7852;
},
{
glyphname = Acircumflexgrave;
layers = (
{
background = {
anchors = (
{
name = bottom;
pos = (380,0);
},
{
name = ogonek;
pos = (665,2);
},
{
name = top;
pos = (380,970);
}
);
shapes = (
{
closed = 1;
nodes = (
(91,0,ls),
(95,0,o),
(97,2,o),
(98,5,c),
(372,663,ls),
(374,668,o),
(379,680,o),
(380,684,c),
(381,680,o),
(386,668,o),
(388,663,cs),
(662,5,l),
(663,2,o),
(665,0,o),
(668,0,cs),
(677,0,l),
(385,700,l),
(375,700,l),
(83,0,l)
);
},
{
closed = 1;
nodes = (
(102,0,l),
(102,11,l),
(89,11,l),
(89,0,l)
);
},
{
closed = 1;
nodes = (
(565,250,l),
(563,260,l),
(196,260,l),
(194,250,l)
);
},
{
closed = 1;
nodes = (
(669,0,l),
(669,11,l),
(656,11,l),
(656,0,l)
);
},
{
closed = 1;
nodes = (
(101,0,l),
(100,12,l),
(23,10,ls),
(20,10,o),
(16,8,o),
(16,5,cs),
(16,0,l)
);
},
{
closed = 1;
nodes = (
(184,0,l),
(184,5,ls),
(184,8,o),
(180,10,o),
(177,10,cs),
(100,12,l),
(99,0,l)
);
},
{
closed = 1;
nodes = (
(661,0,l),
(660,12,l),
(583,10,ls),
(580,10,o),
(576,8,o),
(576,5,cs),
(576,0,l)
);
},
{
closed = 1;
nodes = (
(744,0,l),
(744,5,ls),
(744,8,o),
(740,10,o),
(737,10,cs),
(660,12,l),
(659,0,l)
);
},
{
closed = 1;
nodes = (
(331,887,l),
(281,959,ls),
(274,968,o),
(271,970,o),
(260,970,cs),
(251,970,l),
(322,877,l)
);
},
{
closed = 1;
nodes = (
(279,795,ls),
(283,795,o),
(286,798,o),
(287,799,cs),
(380,900,l),
(473,799,ls),
(476,796,o),
(478,795,o),
(481,795,cs),
(490,795,l),
(384,910,l),
(376,910,l),
(270,795,l)
);
}
);
};
layerId = "A1468767-BE48-4A45-9F09-053256197B3B";
shapes = (
{
ref = A;
},
{
pos = (240,210);
ref = circumflexcomb_gravecomb;
}
);
width = 760;
},
{
background = {
anchors = (
{
name = bottom;
pos = (378,0);
},
{
name = ogonek;
pos = (636,2);
},
{
name = top;
pos = (378,996);
}
);
shapes = (
{
closed = 1;
nodes = (
(117,0,ls),
(134,0,o),
(146,11,o),
(150,23,c),
(357,557,ls),
(364,576,o),
(370,598,o),
(378,625,c),
(385,598,o),
(392,576,o),
(399,558,cs),
(606,23,l),
(611,10,o),
(622,0,o),
(639,0,cs),
(714,0,l),
(427,717,l),
(329,717,l),
(42,0,l)
);
},
{
closed = 1;
nodes = (
(169,0,l),
(169,62,l),
(116,62,l),
(116,0,l)
);
},
{
closed = 1;
nodes = (
(554,212,l),
(527,282,l),
(232,282,l),
(205,212,l)
);
},
{
closed = 1;
nodes = (
(643,0,l),
(643,62,l),
(590,62,l),
(590,0,l)
);
},
{
closed = 1;
nodes = (
(115,0,l),
(104,78,l),
(29,62,ls),
(18,60,o),
(13,53,o),
(13,41,cs),
(13,0,l)
);
},
{
closed = 1;
nodes = (
(222,0,l),
(222,41,ls),
(222,53,o),
(217,60,o),
(206,62,cs),
(131,78,l),
(120,0,l)
);
},
{
closed = 1;
nodes = (
(636,0,l),
(625,78,l),
(550,62,ls),
(539,60,o),
(534,53,o),
(534,41,cs),
(534,0,l)
);
},
{
closed = 1;
nodes = (
(743,0,l),
(743,41,ls),
(743,53,o),
(738,60,o),
(727,62,cs),
(652,78,l),
(641,0,l)
);
},
{
closed = 1;
nodes = (
(321,932,l),
(295,974,ls),
(286,989,o),
(276,996,o),
(255,996,cs),
(188,996,l),
(276,877,l)
);
},
{
closed = 1;
nodes = (
(287,795,ls),
(295,795,o),
(303,798,o),
(307,802,cs),
(379,873,l),
(452,802,ls),
(458,797,o),
(465,795,o),
(472,795,cs),
(531,795,l),
(420,927,l),
(337,927,l),
(225,795,l)
);
}
);
};
layerId = "BF33A826-8254-4501-9165-758AB68FE84B";
shapes = (
{
ref = A;
},
{
pos = (224,210);
ref = circumflexcomb_gravecomb;
}
);
width = 756;
},
{
background = {
anchors = (
{
name = bottom;
pos = (407,0);
},
{
name = ogonek;
pos = (645,2);
},
{
name = top;
pos = (407,1015);
}
);
shapes = (
{
closed = 1;
nodes = (
(170,0,ls),
(198,0,o),
(218,18,o),
(225,37,c),
(374,477,ls),
(385,510,o),
(396,537,o),
(407,579,c),
(417,538,o),
(429,507,o),
(439,478,cs),
(588,37,ls),
(595,16,o),
(614,0,o),
(644,0,cs),
(775,0,l),
(493,729,l),
(320,729,l),
(38,0,l)
);
},
{
closed = 1;
nodes = (
(260,0,l),
(260,71,l),
(138,71,l),
(138,0,l)
);
},
{
closed = 1;
nodes = (
(574,190,l),
(564,305,l),
(238,305,l),
(228,190,l)
);
},
{
closed = 1;
nodes = (
(665,0,l),
(665,71,l),
(533,71,l),
(533,0,l)
);
},
{
closed = 1;
nodes = (
(105,0,l),
(91,118,l),
(47,109,ls),
(23,104,o),
(8,94,o),
(8,71,cs),
(8,0,l)
);
},
{
closed = 1;
nodes = (
(319,0,l),
(319,71,ls),
(319,94,o),
(304,104,o),
(280,109,cs),
(236,118,l),
(222,0,l)
);
},
{
closed = 1;
nodes = (
(591,0,l),
(577,118,l),
(533,109,ls),
(509,104,o),
(494,94,o),
(494,71,cs),
(494,0,l)
);
},
{
closed = 1;
nodes = (
(805,0,l),
(805,71,ls),
(805,94,o),
(790,104,o),
(766,109,cs),
(722,118,l),
(708,0,l)
);
},
{
closed = 1;
nodes = (
(320,961,l),
(308,985,ls),
(298,1006,o),
(284,1015,o),
(253,1015,cs),
(133,1015,l),
(248,875,l)
);
},
{
closed = 1;
nodes = (
(324,794,ls),
(336,794,o),
(349,799,o),
(354,804,cs),
(407,853,l),
(464,804,ls),
(471,798,o),
(482,794,o),
(494,794,cs),
(597,794,l),
(480,939,l),
(334,939,l),
(217,794,l)
);
}
);
};
layerId = "2C516476-8145-48E3-8501-3D313ADE77C9";
shapes = (
{
ref = A;
},
{
pos = (212,210);
ref = circumflexcomb_gravecomb;
}
);
width = 813;
}
);
unicode = 7846;
},
{
glyphname = Acircumflexhookabove;
layers = (
{
background = {
anchors = (
{
name = bottom;
pos = (380,0);
},
{
name = ogonek;
pos = (665,2);
},
{
name = top;
pos = (380,1002);
}
);
shapes = (
{
closed = 1;
nodes = (
(91,0,ls),
(95,0,o),
(97,2,o),
(98,5,c),
(372,663,ls),
(374,668,o),
(379,680,o),
(380,684,c),
(381,680,o),
(386,668,o),
(388,663,cs),
(662,5,l),
(663,2,o),
(665,0,o),
(668,0,cs),
(677,0,l),
(385,700,l),
(375,700,l),
(83,0,l)
);
},
{
closed = 1;
nodes = (
(102,0,l),
(102,11,l),
(89,11,l),
(89,0,l)
);
},
{
closed = 1;
nodes = (
(565,250,l),
(563,260,l),
(196,260,l),
(194,250,l)
);
},
{
closed = 1;
nodes = (
(669,0,l),
(669,11,l),
(656,11,l),
(656,0,l)
);
},
{
closed = 1;
nodes = (
(101,0,l),
(100,12,l),
(23,10,ls),
(20,10,o),
(16,8,o),
(16,5,cs),
(16,0,l)
);
},
{
closed = 1;
nodes = (
(184,0,l),
(184,5,ls),
(184,8,o),
(180,10,o),
(177,10,cs),
(100,12,l),
(99,0,l)
);
},
{
closed = 1;
nodes = (
(661,0,l),
(660,12,l),
(583,10,ls),
(580,10,o),
(576,8,o),
(576,5,cs),
(576,0,l)
);
},
{
closed = 1;
nodes = (
(744,0,l),
(744,5,ls),
(744,8,o),
(740,10,o),
(737,10,cs),
(660,12,l),
(659,0,l)
);
},
{
closed = 1;
nodes = (
(279,795,ls),
(283,795,o),
(286,798,o),
(287,799,cs),
(380,900,l),
(473,799,ls),
(476,796,o),
(478,795,o),
(481,795,cs),
(490,795,l),
(384,910,l),
(376,910,l),
(270,795,l)
);
},
{
closed = 1;
nodes = (
(449,865,l),
(451,904,l),
(491,913,o),
(504,930,o),
(504,953,cs),
(504,980,o),
(486,1002,o),
(445,1002,cs),
(425,1002,o),
(408,996,o),
(392,983,c),
(395,979,ls),
(396,977,o),
(397,977,o),
(398,977,cs),
(402,977,o),
(425,993,o),
(444,993,cs),
(478,993,o),
(494,974,o),
(494,953,cs),
(494,932,o),
(478,915,o),
(441,910,c),
(441,865,l)
);
}
);
};
layerId = "A1468767-BE48-4A45-9F09-053256197B3B";
shapes = (
{
ref = A;
},
{
pos = (240,210);
ref = circumflexcomb_hookabovecomb;
}
);
width = 760;
},
{
background = {
anchors = (
{
name = bottom;
pos = (378,0);
},
{
name = ogonek;
pos = (636,2);
},
{
name = top;
pos = (378,1057);
}
);
shapes = (
{
closed = 1;
nodes = (
(117,0,ls),
(134,0,o),
(146,11,o),
(150,23,c),
(357,557,ls),
(364,576,o),
(370,598,o),
(378,625,c),
(385,598,o),
(392,576,o),
(399,558,cs),
(606,23,l),
(611,10,o),
(622,0,o),
(639,0,cs),
(714,0,l),
(427,717,l),
(329,717,l),
(42,0,l)
);
},
{
closed = 1;
nodes = (
(169,0,l),
(169,62,l),
(116,62,l),
(116,0,l)
);
},
{
closed = 1;
nodes = (
(554,212,l),
(527,282,l),
(232,282,l),
(205,212,l)
);
},
{
closed = 1;
nodes = (
(643,0,l),
(643,62,l),
(590,62,l),
(590,0,l)
);
},
{
closed = 1;
nodes = (
(115,0,l),
(104,78,l),
(29,62,ls),
(18,60,o),
(13,53,o),
(13,41,cs),
(13,0,l)
);
},
{
closed = 1;
nodes = (
(222,0,l),
(222,41,ls),
(222,53,o),
(217,60,o),
(206,62,cs),
(131,78,l),
(120,0,l)
);
},
{
closed = 1;
nodes = (
(636,0,l),
(625,78,l),
(550,62,ls),
(539,60,o),
(534,53,o),
(534,41,cs),
(534,0,l)
);
},
{
closed = 1;
nodes = (
(743,0,l),
(743,41,ls),
(743,53,o),
(738,60,o),
(727,62,cs),
(652,78,l),
(641,0,l)
);
},
{
closed = 1;
nodes = (
(287,795,ls),
(295,795,o),
(303,798,o),
(307,802,cs),
(379,873,l),
(452,802,ls),
(458,797,o),
(465,795,o),
(472,795,cs),
(531,795,l),
(420,927,l),
(337,927,l),
(225,795,l)
);
},
{
closed = 1;
nodes = (
(506,883,l),
(514,924,l),
(549,937,o),
(573,962,o),
(573,994,cs),
(573,1034,o),
(539,1057,o),
(484,1057,cs),
(448,1057,o),
(415,1048,o),
(395,1032,c),
(412,1008,l),
(415,1003,o),
(418,1000,o),
(423,1000,cs),
(433,1000,o),
(455,1014,o),
(473,1014,cs),
(500,1014,o),
(509,1000,o),
(509,985,cs),
(509,968,o),
(498,954,o),
(462,949,c),
(462,883,l)
);
}
);
};
layerId = "BF33A826-8254-4501-9165-758AB68FE84B";
shapes = (
{
ref = A;
},
{
pos = (224,210);
ref = circumflexcomb_hookabovecomb;
}
);
width = 756;
},
{
background = {
anchors = (
{
name = bottom;
pos = (407,0);
},
{
name = ogonek;
pos = (645,2);
},
{
name = top;
pos = (407,1097);
}
);
shapes = (
{
closed = 1;
nodes = (
(170,0,ls),
(198,0,o),
(218,18,o),
(225,37,c),
(374,477,ls),
(385,510,o),
(396,537,o),
(407,579,c),
(417,538,o),
(429,507,o),
(439,478,cs),
(588,37,ls),
(595,16,o),
(614,0,o),
(644,0,cs),
(775,0,l),
(493,729,l),
(320,729,l),
(38,0,l)
);
},
{
closed = 1;
nodes = (
(260,0,l),
(260,71,l),
(138,71,l),
(138,0,l)
);
},
{
closed = 1;
nodes = (
(574,190,l),
(564,305,l),
(238,305,l),
(228,190,l)
);
},
{
closed = 1;
nodes = (
(665,0,l),
(665,71,l),
(533,71,l),
(533,0,l)
);
},
{
closed = 1;
nodes = (
(105,0,l),
(91,118,l),
(47,109,ls),
(23,104,o),
(8,94,o),
(8,71,cs),
(8,0,l)
);
},
{
closed = 1;
nodes = (
(319,0,l),
(319,71,ls),
(319,94,o),
(304,104,o),
(280,109,cs),
(236,118,l),
(222,0,l)
);
},
{
closed = 1;
nodes = (
(591,0,l),
(577,118,l),
(533,109,ls),
(509,104,o),
(494,94,o),
(494,71,cs),
(494,0,l)
);
},
{
closed = 1;
nodes = (
(805,0,l),
(805,71,ls),
(805,94,o),
(790,104,o),
(766,109,cs),
(722,118,l),
(708,0,l)
);
},
{
closed = 1;
nodes = (
(324,794,ls),
(336,794,o),
(349,799,o),
(354,804,cs),
(407,853,l),
(464,804,ls),
(471,798,o),
(482,794,o),
(494,794,cs),
(597,794,l),
(480,939,l),
(334,939,l),
(217,794,l)
);
},
{
closed = 1;
nodes = (
(595,894,l),
(609,940,l),
(643,958,o),
(672,986,o),
(672,1023,cs),
(672,1066,o),
(635,1097,o),
(558,1097,cs),
(509,1097,o),
(462,1084,o),
(438,1067,c),
(466,1028,ls),
(471,1020,o),
(477,1014,o),
(486,1014,cs),
(496,1014,o),
(520,1027,o),
(538,1027,cs),
(555,1027,o),
(563,1019,o),
(563,1006,cs),
(563,987,o),
(543,979,o),
(522,976,c),
(522,894,l)
);
}
);
};
layerId = "2C516476-8145-48E3-8501-3D313ADE77C9";
shapes = (
{
ref = A;
},
{
pos = (212,210);
ref = circumflexcomb_hookabovecomb;
}
);
width = 813;
}
);
unicode = 7848;
},
{
glyphname = Acircumflextilde;
layers = (
{
background = {
anchors = (
{
name = bottom;
pos = (380,0);
},
{
name = ogonek;
pos = (665,2);
},
{
name = top;
pos = (380,982);
}
);
shapes = (
{
closed = 1;
nodes = (
(91,0,ls),
(95,0,o),
(97,2,o),
(98,5,c),
(372,663,ls),
(374,668,o),
(379,680,o),
(380,684,c),
(381,680,o),
(386,668,o),
(388,663,cs),
(662,5,l),
(663,2,o),
(665,0,o),
(668,0,cs),
(677,0,l),
(385,700,l),
(375,700,l),
(83,0,l)
);
},
{
closed = 1;
nodes = (
(102,0,l),
(102,11,l),
(89,11,l),
(89,0,l)
);
},
{
closed = 1;
nodes = (
(565,250,l),
(563,260,l),
(196,260,l),
(194,250,l)
);
},
{
closed = 1;
nodes = (
(669,0,l),
(669,11,l),
(656,11,l),
(656,0,l)
);
},
{
closed = 1;
nodes = (
(101,0,l),
(100,12,l),
(23,10,ls),
(20,10,o),
(16,8,o),
(16,5,cs),
(16,0,l)
);
},
{
closed = 1;
nodes = (
(184,0,l),
(184,5,ls),
(184,8,o),
(180,10,o),
(177,10,cs),
(100,12,l),
(99,0,l)
);
},
{
closed = 1;
nodes = (
(661,0,l),
(660,12,l),
(583,10,ls),
(580,10,o),
(576,8,o),
(576,5,cs),
(576,0,l)
);
},
{
closed = 1;
nodes = (
(744,0,l),
(744,5,ls),
(744,8,o),
(740,10,o),
(737,10,cs),
(660,12,l),
(659,0,l)
);
},
{
closed = 1;
nodes = (
(279,795,ls),
(283,795,o),
(286,798,o),
(287,799,cs),
(380,900,l),
(473,799,ls),
(476,796,o),
(478,795,o),
(481,795,cs),
(490,795,l),
(384,910,l),
(376,910,l),
(270,795,l)
);
},
{
closed = 1;
nodes = (
(436,935,l),
(396,935,o),
(368,993,o),
(324,993,cs),
(287,993,o),
(265,963,o),
(265,926,c),
(274,926,l),
(277,958,o),
(291,983,o),
(324,983,cs),
(361,983,o),
(396,925,o),
(436,925,cs),
(475,925,o),
(494,955,o),
(494,992,c),
(486,992,l),
(485,960,o),
(469,935,o),
(436,935,c)
);
}
);
};
layerId = "A1468767-BE48-4A45-9F09-053256197B3B";
shapes = (
{
ref = A;
},
{
pos = (240,210);
ref = circumflexcomb_tildecomb;
}
);
width = 760;
},
{
background = {
anchors = (
{
name = bottom;
pos = (378,0);
},
{
name = ogonek;
pos = (636,2);
},
{
name = top;
pos = (378,1049);
}
);
shapes = (
{
closed = 1;
nodes = (
(117,0,ls),
(134,0,o),
(146,11,o),
(150,23,c),
(357,557,ls),
(364,576,o),
(370,598,o),
(378,625,c),
(385,598,o),
(392,576,o),
(399,558,cs),
(606,23,l),
(611,10,o),
(622,0,o),
(639,0,cs),
(714,0,l),
(427,717,l),
(329,717,l),
(42,0,l)
);
},
{
closed = 1;
nodes = (
(169,0,l),
(169,62,l),
(116,62,l),
(116,0,l)
);
},
{
closed = 1;
nodes = (
(554,212,l),
(527,282,l),
(232,282,l),
(205,212,l)
);
},
{
closed = 1;
nodes = (
(643,0,l),
(643,62,l),
(590,62,l),
(590,0,l)
);
},
{
closed = 1;
nodes = (
(115,0,l),
(104,78,l),
(29,62,ls),
(18,60,o),
(13,53,o),
(13,41,cs),
(13,0,l)
);
},
{
closed = 1;
nodes = (
(222,0,l),
(222,41,ls),
(222,53,o),
(217,60,o),
(206,62,cs),
(131,78,l),
(120,0,l)
);
},
{
closed = 1;
nodes = (
(636,0,l),
(625,78,l),
(550,62,ls),
(539,60,o),
(534,53,o),
(534,41,cs),
(534,0,l)
);
},
{
closed = 1;
nodes = (
(743,0,l),
(743,41,ls),
(743,53,o),
(738,60,o),
(727,62,cs),
(652,78,l),
(641,0,l)
);
},
{
closed = 1;
nodes = (
(287,795,ls),
(295,795,o),
(303,798,o),
(307,802,cs),
(379,873,l),
(452,802,ls),
(458,797,o),
(465,795,o),
(472,795,cs),
(531,795,l),
(420,927,l),
(337,927,l),
(225,795,l)
);
},
{
closed = 1;
nodes = (
(432,1003,l),
(404,1003,o),
(364,1049,o),
(322,1049,cs),
(267,1049,o),
(232,1002,o),
(232,941,c),
(288,941,l),
(289,970,o),
(301,985,o),
(325,985,cs),
(354,985,o),
(393,939,o),
(435,939,cs),
(489,939,o),
(524,985,o),
(524,1046,c),
(470,1046,l),
(469,1017,o),
(456,1003,o),
(432,1003,c)
);
}
);
};
layerId = "BF33A826-8254-4501-9165-758AB68FE84B";
shapes = (
{
ref = A;
},
{
pos = (224,210);
ref = circumflexcomb_tildecomb;
}
);
width = 756;
},
{
background = {
anchors = (
{
name = bottom;
pos = (407,0);
},
{
name = ogonek;
pos = (645,2);
},
{
name = top;
pos = (407,1090);
}
);
shapes = (
{
closed = 1;
nodes = (
(170,0,ls),
(198,0,o),
(218,18,o),
(225,37,c),
(374,477,ls),
(385,510,o),
(396,537,o),
(407,579,c),
(417,538,o),
(429,507,o),
(439,478,cs),
(588,37,ls),
(595,16,o),
(614,0,o),
(644,0,cs),
(775,0,l),
(493,729,l),
(320,729,l),
(38,0,l)
);
},
{
closed = 1;
nodes = (
(260,0,l),
(260,71,l),
(138,71,l),
(138,0,l)
);
},
{
closed = 1;
nodes = (
(574,190,l),
(564,305,l),
(238,305,l),
(228,190,l)
);
},
{
closed = 1;
nodes = (
(665,0,l),
(665,71,l),
(533,71,l),
(533,0,l)
);
},
{
closed = 1;
nodes = (
(105,0,l),
(91,118,l),
(47,109,ls),
(23,104,o),
(8,94,o),
(8,71,cs),
(8,0,l)
);
},
{
closed = 1;
nodes = (
(319,0,l),
(319,71,ls),
(319,94,o),
(304,104,o),
(280,109,cs),
(236,118,l),
(222,0,l)
);
},
{
closed = 1;
nodes = (
(591,0,l),
(577,118,l),
(533,109,ls),
(509,104,o),
(494,94,o),
(494,71,cs),
(494,0,l)
);
},
{
closed = 1;
nodes = (
(805,0,l),
(805,71,ls),
(805,94,o),
(790,104,o),
(766,109,cs),
(722,118,l),
(708,0,l)
);
},
{
closed = 1;
nodes = (
(324,794,ls),
(336,794,o),
(349,799,o),
(354,804,cs),
(407,853,l),
(464,804,ls),
(471,798,o),
(482,794,o),
(494,794,cs),
(597,794,l),
(480,939,l),
(334,939,l),
(217,794,l)
);
},
{
closed = 1;
nodes = (
(458,1053,l),
(435,1053,o),
(391,1090,o),
(349,1090,cs),
(283,1090,o),
(234,1031,o),
(234,952,c),
(329,952,l),
(329,980,o),
(339,986,o),
(355,986,cs),
(379,986,o),
(421,949,o),
(464,949,cs),
(533,949,o),
(579,1005,o),
(579,1086,c),
(485,1086,l),
(485,1058,o),
(474,1053,o),
(458,1053,c)
);
}
);
};
layerId = "2C516476-8145-48E3-8501-3D313ADE77C9";
shapes = (
{
ref = A;
},
{
pos = (212,210);
ref = circumflexcomb_tildecomb;
}
);
width = 813;
}
);
unicode = 7850;
},
{
glyphname = Adieresis;
layers = (
{
background = {
anchors = (
{
name = bottom;
pos = (380,0);
},
{
name = ogonek;
pos = (665,2);
},
{
name = top;
pos = (380,847);
}
);
shapes = (
{
closed = 1;
nodes = (
(91,0,ls),
(95,0,o),
(97,2,o),
(98,5,c),
(372,663,ls),
(374,668,o),
(379,680,o),
(380,684,c),
(381,680,o),
(386,668,o),
(388,663,cs),
(662,5,l),
(663,2,o),
(665,0,o),
(668,0,cs),
(677,0,l),
(385,700,l),
(375,700,l),
(83,0,l)
);
},
{
closed = 1;
nodes = (
(102,0,l),
(102,11,l),
(89,11,l),
(89,0,l)
);
},
{
closed = 1;
nodes = (
(565,250,l),
(563,260,l),
(196,260,l),
(194,250,l)
);
},
{
closed = 1;
nodes = (
(669,0,l),
(669,11,l),
(656,11,l),
(656,0,l)
);
},
{
closed = 1;
nodes = (
(101,0,l),
(100,12,l),
(23,10,ls),
(20,10,o),
(16,8,o),
(16,5,cs),
(16,0,l)
);
},
{
closed = 1;
nodes = (
(184,0,l),
(184,5,ls),
(184,8,o),
(180,10,o),
(177,10,cs),
(100,12,l),
(99,0,l)
);
},
{
closed = 1;
nodes = (
(661,0,l),
(660,12,l),
(583,10,ls),
(580,10,o),
(576,8,o),
(576,5,cs),
(576,0,l)
);
},
{
closed = 1;
nodes = (
(744,0,l),
(744,5,ls),
(744,8,o),
(740,10,o),
(737,10,cs),
(660,12,l),
(659,0,l)
);
},
{
closed = 1;
nodes = (
(333,850,l),
(333,866,o),
(320,878,o),
(305,878,cs),
(290,878,o),
(277,866,o),
(277,850,cs),
(277,837,o),
(290,823,o),
(305,823,cs),
(320,823,o),
(333,837,o),
(333,850,c)
);
},
{
closed = 1;
nodes = (
(497,850,l),
(497,866,o),
(484,878,o),
(469,878,cs),
(454,878,o),
(441,866,o),
(441,850,cs),
(441,837,o),
(454,823,o),
(469,823,cs),
(484,823,o),
(497,837,o),
(497,850,c)
);
}
);
};
layerId = "A1468767-BE48-4A45-9F09-053256197B3B";
shapes = (
{
ref = A;
},
{
pos = (240,210);
ref = dieresiscomb;
}
);
width = 760;
},
{
background = {
anchors = (
{
name = bottom;
pos = (378,0);
},
{
name = ogonek;
pos = (636,2);
},
{
name = top;
pos = (378,868);
}
);
shapes = (
{
closed = 1;
nodes = (
(117,0,ls),
(134,0,o),
(146,11,o),
(150,23,c),
(357,557,ls),
(364,576,o),
(370,598,o),
(378,625,c),
(385,598,o),
(392,576,o),
(399,558,cs),
(606,23,l),
(611,10,o),
(622,0,o),
(639,0,cs),
(714,0,l),
(427,717,l),
(329,717,l),
(42,0,l)
);
},
{
closed = 1;
nodes = (
(169,0,l),
(169,62,l),
(116,62,l),
(116,0,l)
);
},
{
closed = 1;
nodes = (
(554,212,l),
(527,282,l),
(232,282,l),
(205,212,l)
);
},
{
closed = 1;
nodes = (
(643,0,l),
(643,62,l),
(590,62,l),
(590,0,l)
);
},
{
closed = 1;
nodes = (
(115,0,l),
(104,78,l),
(29,62,ls),
(18,60,o),
(13,53,o),
(13,41,cs),
(13,0,l)
);
},
{
closed = 1;
nodes = (
(222,0,l),
(222,41,ls),
(222,53,o),
(217,60,o),
(206,62,cs),
(131,78,l),
(120,0,l)
);
},
{
closed = 1;
nodes = (
(636,0,l),
(625,78,l),
(550,62,ls),
(539,60,o),
(534,53,o),
(534,41,cs),
(534,0,l)
);
},
{
closed = 1;
nodes = (
(743,0,l),
(743,41,ls),
(743,53,o),
(738,60,o),
(727,62,cs),
(652,78,l),
(641,0,l)
);
},
{
closed = 1;
nodes = (
(345,855,l),
(345,885,o),
(318,912,o),
(288,912,cs),
(258,912,o),
(232,885,o),
(232,855,cs),
(232,825,o),
(258,799,o),
(288,799,cs),
(319,799,o),
(345,825,o),
(345,855,c)
);
},
{
closed = 1;
nodes = (
(524,855,l),
(524,886,o),
(498,912,o),
(468,912,cs),
(438,912,o),
(412,886,o),
(412,855,cs),
(412,824,o),
(437,799,o),
(468,799,cs),
(498,799,o),
(524,824,o),
(524,855,c)
);
}
);
};
layerId = "BF33A826-8254-4501-9165-758AB68FE84B";
shapes = (
{
ref = A;
},
{
pos = (224,210);
ref = dieresiscomb;
}
);
width = 756;
},
{
background = {
anchors = (
{
name = bottom;
pos = (407,0);
},
{
name = ogonek;
pos = (645,2);
},
{
name = top;
pos = (407,921);
}
);
shapes = (
{
closed = 1;
nodes = (
(170,0,ls),
(198,0,o),
(218,18,o),
(225,37,c),
(374,477,ls),
(385,510,o),
(396,537,o),
(407,579,c),
(417,538,o),
(429,507,o),
(439,478,cs),
(588,37,ls),
(595,16,o),
(614,0,o),
(644,0,cs),
(775,0,l),
(493,729,l),
(320,729,l),
(38,0,l)
);
},
{
closed = 1;
nodes = (
(260,0,l),
(260,71,l),
(138,71,l),
(138,0,l)
);
},
{
closed = 1;
nodes = (
(574,190,l),
(564,305,l),
(238,305,l),
(228,190,l)
);
},
{
closed = 1;
nodes = (
(665,0,l),
(665,71,l),
(533,71,l),
(533,0,l)
);
},
{
closed = 1;
nodes = (
(105,0,l),
(91,118,l),
(47,109,ls),
(23,104,o),
(8,94,o),
(8,71,cs),
(8,0,l)
);
},
{
closed = 1;
nodes = (
(319,0,l),
(319,71,ls),
(319,94,o),
(304,104,o),
(280,109,cs),
(236,118,l),
(222,0,l)
);
},
{
closed = 1;
nodes = (
(591,0,l),
(577,118,l),
(533,109,ls),
(509,104,o),
(494,94,o),
(494,71,cs),
(494,0,l)
);
},
{
closed = 1;
nodes = (
(805,0,l),
(805,71,ls),
(805,94,o),
(790,104,o),
(766,109,cs),
(722,118,l),
(708,0,l)
);
},
{
closed = 1;
nodes = (
(394,858,l),
(394,902,o),
(357,937,o),
(312,937,cs),
(270,937,o),
(233,901,o),
(233,858,cs),
(233,816,o),
(270,781,o),
(312,781,cs),
(357,781,o),
(394,815,o),
(394,858,c)
);
},
{
closed = 1;
nodes = (
(587,858,l),
(587,902,o),
(552,937,o),
(506,937,cs),
(463,937,o),
(426,902,o),
(426,858,cs),
(426,815,o),
(463,781,o),
(506,781,cs),
(552,781,o),
(587,815,o),
(587,858,c)
);
}
);
};
layerId = "2C516476-8145-48E3-8501-3D313ADE77C9";
shapes = (
{
ref = A;
},
{
pos = (212,210);
ref = dieresiscomb;
}
);
width = 813;
}
);
unicode = 196;
},
{
glyphname = Adieresismacron;
layers = (
{
background = {
anchors = (
{
name = bottom;
pos = (380,0);
},
{
name = center;
pos = (380,997);
},
{
name = ogonek;
pos = (665,2);
},
{
name = top;
pos = (380,1002);
}
);
shapes = (
{
closed = 1;
nodes = (
(91,0,ls),
(95,0,o),
(97,2,o),
(98,5,c),
(372,663,ls),
(374,668,o),
(379,680,o),
(380,684,c),
(381,680,o),
(386,668,o),
(388,663,cs),
(662,5,l),
(663,2,o),
(665,0,o),
(668,0,cs),
(677,0,l),
(385,700,l),
(375,700,l),
(83,0,l)
);
},
{
closed = 1;
nodes = (
(102,0,l),
(102,11,l),
(89,11,l),
(89,0,l)
);
},
{
closed = 1;
nodes = (
(565,250,l),
(563,260,l),
(196,260,l),
(194,250,l)
);
},
{
closed = 1;
nodes = (
(669,0,l),
(669,11,l),
(656,11,l),
(656,0,l)
);
},
{
closed = 1;
nodes = (
(101,0,l),
(100,12,l),
(23,10,ls),
(20,10,o),
(16,8,o),
(16,5,cs),
(16,0,l)
);
},
{
closed = 1;
nodes = (
(184,0,l),
(184,5,ls),
(184,8,o),
(180,10,o),
(177,10,cs),
(100,12,l),
(99,0,l)
);
},
{
closed = 1;
nodes = (
(661,0,l),
(660,12,l),
(583,10,ls),
(580,10,o),
(576,8,o),
(576,5,cs),
(576,0,l)
);
},
{
closed = 1;
nodes = (
(744,0,l),
(744,5,ls),
(744,8,o),
(740,10,o),
(737,10,cs),
(660,12,l),
(659,0,l)
);
},
{
closed = 1;
nodes = (
(333,850,l),
(333,866,o),
(320,878,o),
(305,878,cs),
(290,878,o),
(277,866,o),
(277,850,cs),
(277,837,o),
(290,823,o),
(305,823,cs),
(320,823,o),
(333,837,o),
(333,850,c)
);
},
{
closed = 1;
nodes = (
(497,850,l),
(497,866,o),
(484,878,o),
(469,878,cs),
(454,878,o),
(441,866,o),
(441,850,cs),
(441,837,o),
(454,823,o),
(469,823,cs),
(484,823,o),
(497,837,o),
(497,850,c)
);
},
{
closed = 1;
nodes = (
(510,992,l),
(510,1002,l),
(250,1002,l),
(250,992,l)
);
}
);
};
layerId = "A1468767-BE48-4A45-9F09-053256197B3B";
shapes = (
{
ref = A;
},
{
pos = (240,210);
ref = dieresiscomb;
},
{
pos = (240,357);
ref = macroncomb;
}
);
width = 760;
},
{
background = {
anchors = (
{
name = bottom;
pos = (378,0);
},
{
name = center;
pos = (380,1005);
},
{
name = ogonek;
pos = (636,2);
},
{
name = top;
pos = (378,1035);
}
);
shapes = (
{
closed = 1;
nodes = (
(117,0,ls),
(134,0,o),
(146,11,o),
(150,23,c),
(357,557,ls),
(364,576,o),
(370,598,o),
(378,625,c),
(385,598,o),
(392,576,o),
(399,558,cs),
(606,23,l),
(611,10,o),
(622,0,o),
(639,0,cs),
(714,0,l),
(427,717,l),
(329,717,l),
(42,0,l)
);
},
{
closed = 1;
nodes = (
(169,0,l),
(169,62,l),
(116,62,l),
(116,0,l)
);
},
{
closed = 1;
nodes = (
(554,212,l),
(527,282,l),
(232,282,l),
(205,212,l)
);
},
{
closed = 1;
nodes = (
(643,0,l),
(643,62,l),
(590,62,l),
(590,0,l)
);
},
{
closed = 1;
nodes = (
(115,0,l),
(104,78,l),
(29,62,ls),
(18,60,o),
(13,53,o),
(13,41,cs),
(13,0,l)
);
},
{
closed = 1;
nodes = (
(222,0,l),
(222,41,ls),
(222,53,o),
(217,60,o),
(206,62,cs),
(131,78,l),
(120,0,l)
);
},
{
closed = 1;
nodes = (
(636,0,l),
(625,78,l),
(550,62,ls),
(539,60,o),
(534,53,o),
(534,41,cs),
(534,0,l)
);
},
{
closed = 1;
nodes = (
(743,0,l),
(743,41,ls),
(743,53,o),
(738,60,o),
(727,62,cs),
(652,78,l),
(641,0,l)
);
},
{
closed = 1;
nodes = (
(345,855,l),
(345,885,o),
(318,912,o),
(288,912,cs),
(258,912,o),
(232,885,o),
(232,855,cs),
(232,825,o),
(258,799,o),
(288,799,cs),
(319,799,o),
(345,825,o),
(345,855,c)
);
},
{
closed = 1;
nodes = (
(524,855,l),
(524,886,o),
(498,912,o),
(468,912,cs),
(438,912,o),
(412,886,o),
(412,855,cs),
(412,824,o),
(437,799,o),
(468,799,cs),
(498,799,o),
(524,824,o),
(524,855,c)
);
},
{
closed = 1;
nodes = (
(525,977,l),
(525,1035,l),
(238,1035,l),
(238,977,l)
);
}
);
};
layerId = "BF33A826-8254-4501-9165-758AB68FE84B";
shapes = (
{
ref = A;
},
{
pos = (224,210);
ref = dieresiscomb;
},
{
pos = (231,361);
ref = macroncomb;
}
);
width = 756;
},
{
background = {
anchors = (
{
name = bottom;
pos = (407,0);
},
{
name = center;
pos = (407,1050);
},
{
name = ogonek;
pos = (645,2);
},
{
name = top;
pos = (407,1098);
}
);
shapes = (
{
closed = 1;
nodes = (
(170,0,ls),
(198,0,o),
(218,18,o),
(225,37,c),
(374,477,ls),
(385,510,o),
(396,537,o),
(407,579,c),
(417,538,o),
(429,507,o),
(439,478,cs),
(588,37,ls),
(595,16,o),
(614,0,o),
(644,0,cs),
(775,0,l),
(493,729,l),
(320,729,l),
(38,0,l)
);
},
{
closed = 1;
nodes = (
(260,0,l),
(260,71,l),
(138,71,l),
(138,0,l)
);
},
{
closed = 1;
nodes = (
(574,190,l),
(564,305,l),
(238,305,l),
(228,190,l)
);
},
{
closed = 1;
nodes = (
(665,0,l),
(665,71,l),
(533,71,l),
(533,0,l)
);
},
{
closed = 1;
nodes = (
(105,0,l),
(91,118,l),
(47,109,ls),
(23,104,o),
(8,94,o),
(8,71,cs),
(8,0,l)
);
},
{
closed = 1;
nodes = (
(319,0,l),
(319,71,ls),
(319,94,o),
(304,104,o),
(280,109,cs),
(236,118,l),
(222,0,l)
);
},
{
closed = 1;
nodes = (
(591,0,l),
(577,118,l),
(533,109,ls),
(509,104,o),
(494,94,o),
(494,71,cs),
(494,0,l)
);
},
{
closed = 1;
nodes = (
(805,0,l),
(805,71,ls),
(805,94,o),
(790,104,o),
(766,109,cs),
(722,118,l),
(708,0,l)
);
},
{
closed = 1;
nodes = (
(394,858,l),
(394,902,o),
(357,937,o),
(312,937,cs),
(270,937,o),
(233,901,o),
(233,858,cs),
(233,816,o),
(270,781,o),
(312,781,cs),
(357,781,o),
(394,815,o),
(394,858,c)
);
},
{
closed = 1;
nodes = (
(587,858,l),
(587,902,o),
(552,937,o),
(506,937,cs),
(463,937,o),
(426,902,o),
(426,858,cs),
(426,815,o),
(463,781,o),
(506,781,cs),
(552,781,o),
(587,815,o),
(587,858,c)
);
},
{
closed = 1;
nodes = (
(562,1007,l),
(562,1091,l),
(252,1091,l),
(252,1007,l)
);
}
);
};
layerId = "2C516476-8145-48E3-8501-3D313ADE77C9";
shapes = (
{
ref = A;
},
{
pos = (212,210);
ref = dieresiscomb;
},
{
pos = (242,402);
ref = macroncomb;
}
);
width = 813;
}
);
unicode = 478;
},
{
glyphname = Adotbelow;
layers = (
{
background = {
anchors = (
{
name = bottom;
pos = (380,-164);
},
{
name = ogonek;
pos = (665,2);
},
{
name = top;
pos = (380,700);
}
);
shapes = (
{
closed = 1;
nodes = (
(91,0,ls),
(95,0,o),
(97,2,o),
(98,5,c),
(372,663,ls),
(374,668,o),
(379,680,o),
(380,684,c),
(381,680,o),
(386,668,o),
(388,663,cs),
(662,5,l),
(663,2,o),
(665,0,o),
(668,0,cs),
(677,0,l),
(385,700,l),
(375,700,l),
(83,0,l)
);
},
{
closed = 1;
nodes = (
(102,0,l),
(102,11,l),
(89,11,l),
(89,0,l)
);
},
{
closed = 1;
nodes = (
(565,250,l),
(563,260,l),
(196,260,l),
(194,250,l)
);
},
{
closed = 1;
nodes = (
(669,0,l),
(669,11,l),
(656,11,l),
(656,0,l)
);
},
{
closed = 1;
nodes = (
(101,0,l),
(100,12,l),
(23,10,ls),
(20,10,o),
(16,8,o),
(16,5,cs),
(16,0,l)
);
},
{
closed = 1;
nodes = (
(184,0,l),
(184,5,ls),
(184,8,o),
(180,10,o),
(177,10,cs),
(100,12,l),
(99,0,l)
);
},
{
closed = 1;
nodes = (
(661,0,l),
(660,12,l),
(583,10,ls),
(580,10,o),
(576,8,o),
(576,5,cs),
(576,0,l)
);
},
{
closed = 1;
nodes = (
(744,0,l),
(744,5,ls),
(744,8,o),
(740,10,o),
(737,10,cs),
(660,12,l),
(659,0,l)
);
},
{
closed = 1;
nodes = (
(395,-164,o),
(408,-150,o),
(408,-137,cs),
(408,-121,o),
(395,-109,o),
(380,-109,cs),
(365,-109,o),
(352,-121,o),
(352,-137,cs),
(352,-150,o),
(365,-164,o),
(380,-164,cs)
);
}
);
};
layerId = "A1468767-BE48-4A45-9F09-053256197B3B";
shapes = (
{
ref = A;
},
{
pos = (342,0);
ref = dotbelowcomb;
}
);
width = 760;
},
{
background = {
anchors = (
{
name = bottom;
pos = (378,-181);
},
{
name = ogonek;
pos = (636,2);
},
{
name = top;
pos = (378,717);
}
);
shapes = (
{
closed = 1;
nodes = (
(117,0,ls),
(134,0,o),
(146,11,o),
(150,23,c),
(357,557,ls),
(364,576,o),
(370,598,o),
(378,625,c),
(385,598,o),
(392,576,o),
(399,558,cs),
(606,23,l),
(611,10,o),
(622,0,o),
(639,0,cs),
(714,0,l),
(427,717,l),
(329,717,l),
(42,0,l)
);
},
{
closed = 1;
nodes = (
(169,0,l),
(169,62,l),
(116,62,l),
(116,0,l)
);
},
{
closed = 1;
nodes = (
(554,212,l),
(527,282,l),
(232,282,l),
(205,212,l)
);
},
{
closed = 1;
nodes = (
(643,0,l),
(643,62,l),
(590,62,l),
(590,0,l)
);
},
{
closed = 1;
nodes = (
(115,0,l),
(104,78,l),
(29,62,ls),
(18,60,o),
(13,53,o),
(13,41,cs),
(13,0,l)
);
},
{
closed = 1;
nodes = (
(222,0,l),
(222,41,ls),
(222,53,o),
(217,60,o),
(206,62,cs),
(131,78,l),
(120,0,l)
);
},
{
closed = 1;
nodes = (
(636,0,l),
(625,78,l),
(550,62,ls),
(539,60,o),
(534,53,o),
(534,41,cs),
(534,0,l)
);
},
{
closed = 1;
nodes = (
(743,0,l),
(743,41,ls),
(743,53,o),
(738,60,o),
(727,62,cs),
(652,78,l),
(641,0,l)
);
},
{
closed = 1;
nodes = (
(409,-181,o),
(435,-156,o),
(435,-124,cs),
(435,-92,o),
(409,-66,o),
(378,-67,cs),
(346,-68,o),
(321,-92,o),
(321,-124,cs),
(321,-156,o),
(346,-181,o),
(378,-181,cs)
);
}
);
};
layerId = "BF33A826-8254-4501-9165-758AB68FE84B";
shapes = (
{
ref = A;
},
{
pos = (311,0);
ref = dotbelowcomb;
}
);
width = 756;
},
{
background = {
anchors = (
{
name = bottom;
pos = (407,-194);
},
{
name = ogonek;
pos = (645,2);
},
{
name = top;
pos = (407,729);
}
);
shapes = (
{
closed = 1;
nodes = (
(170,0,ls),
(198,0,o),
(218,18,o),
(225,37,c),
(374,477,ls),
(385,510,o),
(396,537,o),
(407,579,c),
(417,538,o),
(429,507,o),
(439,478,cs),
(588,37,ls),
(595,16,o),
(614,0,o),
(644,0,cs),
(775,0,l),
(493,729,l),
(320,729,l),
(38,0,l)
);
},
{
closed = 1;
nodes = (
(260,0,l),
(260,71,l),
(138,71,l),
(138,0,l)
);
},
{
closed = 1;
nodes = (
(574,190,l),
(564,305,l),
(238,305,l),
(228,190,l)
);
},
{
closed = 1;
nodes = (
(665,0,l),
(665,71,l),
(533,71,l),
(533,0,l)
);
},
{
closed = 1;
nodes = (
(105,0,l),
(91,118,l),
(47,109,ls),
(23,104,o),
(8,94,o),
(8,71,cs),
(8,0,l)
);
},
{
closed = 1;
nodes = (
(319,0,l),
(319,71,ls),
(319,94,o),
(304,104,o),
(280,109,cs),
(236,118,l),
(222,0,l)
);
},
{
closed = 1;
nodes = (
(591,0,l),
(577,118,l),
(533,109,ls),
(509,104,o),
(494,94,o),
(494,71,cs),
(494,0,l)
);
},
{
closed = 1;
nodes = (
(805,0,l),
(805,71,ls),
(805,94,o),
(790,104,o),
(766,109,cs),
(722,118,l),
(708,0,l)
);
},
{
closed = 1;
nodes = (
(451,-194,o),
(488,-158,o),
(488,-115,cs),
(488,-72,o),
(451,-36,o),
(405,-36,cs),
(362,-36,o),
(325,-73,o),
(325,-115,cs),
(325,-157,o),
(362,-194,o),
(405,-194,cs)
);
}
);
};
layerId = "2C516476-8145-48E3-8501-3D313ADE77C9";
shapes = (
{
ref = A;
},
{
pos = (315,0);
ref = dotbelowcomb;
}
);
width = 813;
}
);
unicode = 7840;
},
{
glyphname = Agrave;
layers = (
{
background = {
anchors = (
{
name = bottom;
pos = (380,0);
},
{
name = ogonek;
pos = (665,2);
},
{
name = top;
pos = (380,700);
}
);
shapes = (
{
closed = 1;
nodes = (
(91,0,ls),
(95,0,o),
(97,2,o),
(98,5,c),
(372,663,ls),
(374,668,o),
(379,680,o),
(380,684,c),
(381,680,o),
(386,668,o),
(388,663,cs),
(662,5,l),
(663,2,o),
(665,0,o),
(668,0,cs),
(677,0,l),
(385,700,l),
(375,700,l),
(83,0,l)
);
},
{
closed = 1;
nodes = (
(102,0,l),
(102,11,l),
(89,11,l),
(89,0,l)
);
},
{
closed = 1;
nodes = (
(565,250,l),
(563,260,l),
(196,260,l),
(194,250,l)
);
},
{
closed = 1;
nodes = (
(669,0,l),
(669,11,l),
(656,11,l),
(656,0,l)
);
},
{
closed = 1;
nodes = (
(101,0,l),
(100,12,l),
(23,10,ls),
(20,10,o),
(16,8,o),
(16,5,cs),
(16,0,l)
);
},
{
closed = 1;
nodes = (
(184,0,l),
(184,5,ls),
(184,8,o),
(180,10,o),
(177,10,cs),
(100,12,l),
(99,0,l)
);
},
{
closed = 1;
nodes = (
(661,0,l),
(660,12,l),
(583,10,ls),
(580,10,o),
(576,8,o),
(576,5,cs),
(576,0,l)
);
},
{
closed = 1;
nodes = (
(744,0,l),
(744,5,ls),
(744,8,o),
(740,10,o),
(737,10,cs),
(660,12,l),
(659,0,l)
);
},
{
closed = 1;
nodes = (
(370,793,ls),
(372,790,o),
(375,789,o),
(378,789,cs),
(385,789,l),
(303,907,l),
(298,916,o),
(294,918,o),
(282,918,cs),
(269,918,l),
(269,918,l)
);
}
);
};
layerId = "A1468767-BE48-4A45-9F09-053256197B3B";
shapes = (
{
ref = A;
},
{
pos = (219,210);
ref = gravecomb;
}
);
width = 760;
},
{
background = {
anchors = (
{
name = bottom;
pos = (378,0);
},
{
name = ogonek;
pos = (636,2);
},
{
name = top;
pos = (378,717);
}
);
shapes = (
{
closed = 1;
nodes = (
(117,0,ls),
(134,0,o),
(146,11,o),
(150,23,c),
(357,557,ls),
(364,576,o),
(370,598,o),
(378,625,c),
(385,598,o),
(392,576,o),
(399,558,cs),
(606,23,l),
(611,10,o),
(622,0,o),
(639,0,cs),
(714,0,l),
(427,717,l),
(329,717,l),
(42,0,l)
);
},
{
closed = 1;
nodes = (
(169,0,l),
(169,62,l),
(116,62,l),
(116,0,l)
);
},
{
closed = 1;
nodes = (
(554,212,l),
(527,282,l),
(232,282,l),
(205,212,l)
);
},
{
closed = 1;
nodes = (
(643,0,l),
(643,62,l),
(590,62,l),
(590,0,l)
);
},
{
closed = 1;
nodes = (
(115,0,l),
(104,78,l),
(29,62,ls),
(18,60,o),
(13,53,o),
(13,41,cs),
(13,0,l)
);
},
{
closed = 1;
nodes = (
(222,0,l),
(222,41,ls),
(222,53,o),
(217,60,o),
(206,62,cs),
(131,78,l),
(120,0,l)
);
},
{
closed = 1;
nodes = (
(636,0,l),
(625,78,l),
(550,62,ls),
(539,60,o),
(534,53,o),
(534,41,cs),
(534,0,l)
);
},
{
closed = 1;
nodes = (
(743,0,l),
(743,41,ls),
(743,53,o),
(738,60,o),
(727,62,cs),
(652,78,l),
(641,0,l)
);
},
{
closed = 1;
nodes = (
(328,806,ls),
(337,795,o),
(344,792,o),
(359,792,cs),
(410,792,l),
(335,913,ls),
(326,928,o),
(317,935,o),
(296,935,cs),
(211,935,l),
(211,935,l)
);
}
);
};
layerId = "BF33A826-8254-4501-9165-758AB68FE84B";
shapes = (
{
ref = A;
},
{
pos = (191,210);
ref = gravecomb;
}
);
width = 756;
},
{
background = {
anchors = (
{
name = bottom;
pos = (407,0);
},
{
name = ogonek;
pos = (645,2);
},
{
name = top;
pos = (407,729);
}
);
shapes = (
{
closed = 1;
nodes = (
(170,0,ls),
(198,0,o),
(218,18,o),
(225,37,c),
(374,477,ls),
(385,510,o),
(396,537,o),
(407,579,c),
(417,538,o),
(429,507,o),
(439,478,cs),
(588,37,ls),
(595,16,o),
(614,0,o),
(644,0,cs),
(775,0,l),
(493,729,l),
(320,729,l),
(38,0,l)
);
},
{
closed = 1;
nodes = (
(260,0,l),
(260,71,l),
(138,71,l),
(138,0,l)
);
},
{
closed = 1;
nodes = (
(574,190,l),
(564,305,l),
(238,305,l),
(228,190,l)
);
},
{
closed = 1;
nodes = (
(665,0,l),
(665,71,l),
(533,71,l),
(533,0,l)
);
},
{
closed = 1;
nodes = (
(105,0,l),
(91,118,l),
(47,109,ls),
(23,104,o),
(8,94,o),
(8,71,cs),
(8,0,l)
);
},
{
closed = 1;
nodes = (
(319,0,l),
(319,71,ls),
(319,94,o),
(304,104,o),
(280,109,cs),
(236,118,l),
(222,0,l)
);
},
{
closed = 1;
nodes = (
(591,0,l),
(577,118,l),
(533,109,ls),
(509,104,o),
(494,94,o),
(494,71,cs),
(494,0,l)
);
},
{
closed = 1;
nodes = (
(805,0,l),
(805,71,ls),
(805,94,o),
(790,104,o),
(766,109,cs),
(722,118,l),
(708,0,l)
);
},
{
closed = 1;
nodes = (
(325,815,ls),
(341,800,o),
(352,794,o),
(375,794,cs),
(463,794,l),
(395,917,ls),
(384,936,o),
(372,947,o),
(340,947,cs),
(195,947,l),
(195,947,l)
);
}
);
};
layerId = "2C516476-8145-48E3-8501-3D313ADE77C9";
shapes = (
{
ref = A;
},
{
pos = (186,210);
ref = gravecomb;
}
);
width = 813;
}
);
unicode = 192;
},
{
glyphname = Ahookabove;
layers = (
{
background = {
anchors = (
{
name = bottom;
pos = (380,0);
},
{
name = ogonek;
pos = (665,2);
},
{
name = top;
pos = (380,907);
}
);
shapes = (
{
closed = 1;
nodes = (
(91,0,ls),
(95,0,o),
(97,2,o),
(98,5,c),
(372,663,ls),
(374,668,o),
(379,680,o),
(380,684,c),
(381,680,o),
(386,668,o),
(388,663,cs),
(662,5,l),
(663,2,o),
(665,0,o),
(668,0,cs),
(677,0,l),
(385,700,l),
(375,700,l),
(83,0,l)
);
},
{
closed = 1;
nodes = (
(102,0,l),
(102,11,l),
(89,11,l),
(89,0,l)
);
},
{
closed = 1;
nodes = (
(565,250,l),
(563,260,l),
(196,260,l),
(194,250,l)
);
},
{
closed = 1;
nodes = (
(669,0,l),
(669,11,l),
(656,11,l),
(656,0,l)
);
},
{
closed = 1;
nodes = (
(101,0,l),
(100,12,l),
(23,10,ls),
(20,10,o),
(16,8,o),
(16,5,cs),
(16,0,l)
);
},
{
closed = 1;
nodes = (
(184,0,l),
(184,5,ls),
(184,8,o),
(180,10,o),
(177,10,cs),
(100,12,l),
(99,0,l)
);
},
{
closed = 1;
nodes = (
(661,0,l),
(660,12,l),
(583,10,ls),
(580,10,o),
(576,8,o),
(576,5,cs),
(576,0,l)
);
},
{
closed = 1;
nodes = (
(744,0,l),
(744,5,ls),
(744,8,o),
(740,10,o),
(737,10,cs),
(660,12,l),
(659,0,l)
);
},
{
closed = 1;
nodes = (
(381,770,l),
(383,809,l),
(423,818,o),
(436,835,o),
(436,858,cs),
(436,885,o),
(418,907,o),
(377,907,cs),
(357,907,o),
(340,901,o),
(324,888,c),
(327,884,ls),
(328,882,o),
(329,882,o),
(330,882,cs),
(334,882,o),
(357,898,o),
(376,898,cs),
(410,898,o),
(426,879,o),
(426,858,cs),
(426,837,o),
(410,820,o),
(373,815,c),
(373,770,l)
);
}
);
};
layerId = "A1468767-BE48-4A45-9F09-053256197B3B";
shapes = (
{
ref = A;
},
{
pos = (181,210);
ref = hookabovecomb;
}
);
width = 760;
},
{
background = {
anchors = (
{
name = bottom;
pos = (378,0);
},
{
name = ogonek;
pos = (636,2);
},
{
name = top;
pos = (378,944);
}
);
shapes = (
{
closed = 1;
nodes = (
(117,0,ls),
(134,0,o),
(146,11,o),
(150,23,c),
(357,557,ls),
(364,576,o),
(370,598,o),
(378,625,c),
(385,598,o),
(392,576,o),
(399,558,cs),
(606,23,l),
(611,10,o),
(622,0,o),
(639,0,cs),
(714,0,l),
(427,717,l),
(329,717,l),
(42,0,l)
);
},
{
closed = 1;
nodes = (
(169,0,l),
(169,62,l),
(116,62,l),
(116,0,l)
);
},
{
closed = 1;
nodes = (
(554,212,l),
(527,282,l),
(232,282,l),
(205,212,l)
);
},
{
closed = 1;
nodes = (
(643,0,l),
(643,62,l),
(590,62,l),
(590,0,l)
);
},
{
closed = 1;
nodes = (
(115,0,l),
(104,78,l),
(29,62,ls),
(18,60,o),
(13,53,o),
(13,41,cs),
(13,0,l)
);
},
{
closed = 1;
nodes = (
(222,0,l),
(222,41,ls),
(222,53,o),
(217,60,o),
(206,62,cs),
(131,78,l),
(120,0,l)
);
},
{
closed = 1;
nodes = (
(636,0,l),
(625,78,l),
(550,62,ls),
(539,60,o),
(534,53,o),
(534,41,cs),
(534,0,l)
);
},
{
closed = 1;
nodes = (
(743,0,l),
(743,41,ls),
(743,53,o),
(738,60,o),
(727,62,cs),
(652,78,l),
(641,0,l)
);
},
{
closed = 1;
nodes = (
(400,770,l),
(408,811,l),
(443,824,o),
(467,849,o),
(467,881,cs),
(467,921,o),
(433,944,o),
(378,944,cs),
(342,944,o),
(309,935,o),
(289,919,c),
(306,895,l),
(309,890,o),
(312,887,o),
(317,887,cs),
(327,887,o),
(349,901,o),
(367,901,cs),
(394,901,o),
(403,887,o),
(403,872,cs),
(403,855,o),
(392,841,o),
(356,836,c),
(356,770,l)
);
}
);
};
layerId = "BF33A826-8254-4501-9165-758AB68FE84B";
shapes = (
{
ref = A;
},
{
pos = (182,210);
ref = hookabovecomb;
}
);
width = 756;
},
{
background = {
anchors = (
{
name = bottom;
pos = (407,0);
},
{
name = ogonek;
pos = (645,2);
},
{
name = top;
pos = (407,973);
}
);
shapes = (
{
closed = 1;
nodes = (
(170,0,ls),
(198,0,o),
(218,18,o),
(225,37,c),
(374,477,ls),
(385,510,o),
(396,537,o),
(407,579,c),
(417,538,o),
(429,507,o),
(439,478,cs),
(588,37,ls),
(595,16,o),
(614,0,o),
(644,0,cs),
(775,0,l),
(493,729,l),
(320,729,l),
(38,0,l)
);
},
{
closed = 1;
nodes = (
(260,0,l),
(260,71,l),
(138,71,l),
(138,0,l)
);
},
{
closed = 1;
nodes = (
(574,190,l),
(564,305,l),
(238,305,l),
(228,190,l)
);
},
{
closed = 1;
nodes = (
(665,0,l),
(665,71,l),
(533,71,l),
(533,0,l)
);
},
{
closed = 1;
nodes = (
(105,0,l),
(91,118,l),
(47,109,ls),
(23,104,o),
(8,94,o),
(8,71,cs),
(8,0,l)
);
},
{
closed = 1;
nodes = (
(319,0,l),
(319,71,ls),
(319,94,o),
(304,104,o),
(280,109,cs),
(236,118,l),
(222,0,l)
);
},
{
closed = 1;
nodes = (
(591,0,l),
(577,118,l),
(533,109,ls),
(509,104,o),
(494,94,o),
(494,71,cs),
(494,0,l)
);
},
{
closed = 1;
nodes = (
(805,0,l),
(805,71,ls),
(805,94,o),
(790,104,o),
(766,109,cs),
(722,118,l),
(708,0,l)
);
},
{
closed = 1;
nodes = (
(447,770,l),
(461,816,l),
(495,834,o),
(524,862,o),
(524,899,cs),
(524,942,o),
(487,973,o),
(410,973,cs),
(361,973,o),
(314,960,o),
(290,943,c),
(318,904,ls),
(323,896,o),
(329,890,o),
(338,890,cs),
(348,890,o),
(372,903,o),
(390,903,cs),
(407,903,o),
(415,895,o),
(415,882,cs),
(415,863,o),
(395,855,o),
(374,852,c),
(374,770,l)
);
}
);
};
layerId = "2C516476-8145-48E3-8501-3D313ADE77C9";
shapes = (
{
ref = A;
},
{
pos = (214,210);
ref = hookabovecomb;
}
);
width = 813;
}
);
unicode = 7842;
},
{
glyphname = "Alpha-latin";
kernLeft = C;
kernRight = I;
layers = (
{
anchors = (
{
name = bottom;
pos = (370,0);
},
{
name = top;
pos = (370,700);
}
);
background = {
anchors = (
{
name = bottom;
pos = (370,0);
},
{
name = top;
pos = (370,700);
}
);
shapes = (
{
closed = 1;
nodes = (
(476,-8,o),
(553,29,o),
(616,89,c),
(612,93,ls),
(611,94,o),
(610,95,o),
(609,95,cs),
(607,95,o),
(606,94,o),
(604,92,cs),
(555,42,o),
(478,2,o),
(373,2,cs),
(176,2,o),
(55,148,o),
(55,350,cs),
(55,553,o),
(175,698,o),
(388,698,cs),
(478,698,o),
(560,672,o),
(604,640,c),
(613,639,l),
(613,645,l),
(571,683,o),
(475,708,o),
(384,708,cs),
(276,708,o),
(195,673,o),
(136,610,cs),
(77,546,o),
(43,457,o),
(43,350,cs),
(43,239,o),
(78,151,o),
(136,89,cs),
(194,27,o),
(273,-8,o),
(373,-8,cs)
);
},
{
closed = 1;
nodes = (
(616,0,l),
(616,700,l),
(611,700,ls),
(609,700,o),
(607,698,o),
(607,696,cs),
(604,648,l),
(604,85,l),
(607,4,ls),
(607,2,o),
(609,0,o),
(611,0,cs)
);
},
{
closed = 1;
nodes = (
(698,0,l),
(698,5,ls),
(698,8,o),
(694,10,o),
(691,10,cs),
(614,12,l),
(613,0,l)
);
}
);
};
layerId = "A1468767-BE48-4A45-9F09-053256197B3B";
shapes = (
{
closed = 1;
nodes = (
(476,-8,o),
(553,29,o),
(616,89,c),
(612,93,ls),
(611,94,o),
(610,95,o),
(609,95,cs),
(607,95,o),
(606,94,o),
(604,92,cs),
(555,42,o),
(478,2,o),
(373,2,cs),
(176,2,o),
(55,148,o),
(55,350,cs),
(55,553,o),
(175,698,o),
(388,698,cs),
(478,698,o),
(560,672,o),
(604,640,c),
(613,639,l),
(613,645,l),
(571,683,o),
(475,708,o),
(384,708,cs),
(276,708,o),
(195,673,o),
(136,610,cs),
(77,546,o),
(43,457,o),
(43,350,cs),
(43,239,o),
(78,151,o),
(136,89,cs),
(194,27,o),
(273,-8,o),
(373,-8,cs)
);
},
{
closed = 1;
nodes = (
(616,0,l),
(616,700,l),
(611,700,ls),
(609,700,o),
(607,698,o),
(607,696,cs),
(604,648,l),
(604,85,l),
(607,4,ls),
(607,2,o),
(609,0,o),
(611,0,cs)
);
},
{
pos = (616,0);
ref = SerifBottomRight;
}
);
width = 740;
},
{
anchors = (
{
name = bottom;
pos = (376,0);
},
{
name = top;
pos = (370,717);
}
);
background = {
anchors = (
{
name = bottom;
pos = (376,0);
},
{
name = top;
pos = (370,717);
}
);
shapes = (
{
closed = 1;
nodes = (
(495,-8,o),
(554,38,o),
(607,132,c),
(592,142,ls),
(584,148,o),
(582,148,o),
(578,148,cs),
(572,148,o),
(567,146,o),
(561,141,cs),
(508,93,o),
(454,76,o),
(390,76,cs),
(217,76,o),
(129,198,o),
(129,356,cs),
(129,527,o),
(233,641,o),
(393,641,cs),
(451,641,o),
(502,626,o),
(544,612,c),
(614,599,l),
(604,644,l),
(527,695,o),
(467,725,o),
(386,725,cs),
(283,725,o),
(194,687,o),
(130,622,cs),
(67,558,o),
(30,466,o),
(30,356,cs),
(30,261,o),
(58,169,o),
(118,100,cs),
(180,29,o),
(269,-8,o),
(376,-8,cs)
);
},
{
closed = 1;
nodes = (
(635,0,l),
(635,717,l),
(579,717,ls),
(562,717,o),
(550,710,o),
(543,693,cs),
(538,681,l),
(538,58,l),
(547,26,ls),
(552,9,o),
(563,0,o),
(581,0,cs)
);
},
{
closed = 1;
nodes = (
(708,0,l),
(708,41,ls),
(708,53,o),
(703,60,o),
(692,62,cs),
(617,78,l),
(606,0,l)
);
}
);
};
layerId = "BF33A826-8254-4501-9165-758AB68FE84B";
shapes = (
{
closed = 1;
nodes = (
(495,-8,o),
(554,38,o),
(607,132,c),
(592,142,ls),
(584,148,o),
(582,148,o),
(578,148,cs),
(572,148,o),
(567,146,o),
(561,141,cs),
(508,93,o),
(454,76,o),
(390,76,cs),
(217,76,o),
(129,198,o),
(129,356,cs),
(129,527,o),
(233,641,o),
(393,641,cs),
(451,641,o),
(502,626,o),
(544,612,c),
(614,599,l),
(604,644,l),
(527,695,o),
(467,725,o),
(386,725,cs),
(283,725,o),
(194,687,o),
(130,622,cs),
(67,558,o),
(30,466,o),
(30,356,cs),
(30,261,o),
(58,169,o),
(118,100,cs),
(180,29,o),
(269,-8,o),
(376,-8,cs)
);
},
{
closed = 1;
nodes = (
(635,0,l),
(635,717,l),
(579,717,ls),
(562,717,o),
(550,710,o),
(543,693,cs),
(538,681,l),
(538,58,l),
(547,26,ls),
(552,9,o),
(563,0,o),
(581,0,cs)
);
},
{
pos = (636,0);
ref = SerifBottomRight;
}
);
width = 741;
},
{
anchors = (
{
name = bottom;
pos = (394,0);
},
{
name = top;
pos = (394,749);
}
);
background = {
anchors = (
{
name = bottom;
pos = (394,0);
},
{
name = top;
pos = (394,749);
}
);
shapes = (
{
closed = 1;
nodes = (
(487,-8,o),
(572,76,o),
(637,159,c),
(570,179,ls),
(562,181,o),
(555,189,o),
(547,189,cs),
(536,189,o),
(526,183,o),
(519,177,cs),
(482,145,o),
(438,131,o),
(390,131,cs),
(263,131,o),
(188,227,o),
(188,365,cs),
(188,504,o),
(265,597,o),
(406,597,cs),
(455,597,o),
(525,586,o),
(564,561,c),
(630,578,l),
(630,631,l),
(577,667,o),
(491,739,o),
(375,739,cs),
(290,739,o),
(193,700,o),
(121,631,cs),
(54,567,o),
(15,474,o),
(15,363,cs),
(15,254,o),
(52,159,o),
(114,94,cs),
(173,32,o),
(264,-8,o),
(366,-8,cs)
);
},
{
closed = 1;
nodes = (
(691,0,l),
(691,729,l),
(581,729,ls),
(560,729,o),
(545,721,o),
(532,705,cs),
(521,691,l),
(521,56,l),
(536,28,ls),
(546,9,o),
(561,0,o),
(583,0,cs)
);
},
{
closed = 1;
nodes = (
(768,0,l),
(768,71,ls),
(768,94,o),
(753,104,o),
(729,109,cs),
(685,118,l),
(671,0,l)
);
}
);
};
layerId = "2C516476-8145-48E3-8501-3D313ADE77C9";
shapes = (
{
closed = 1;
nodes = (
(487,-8,o),
(572,76,o),
(637,159,c),
(570,179,ls),
(562,181,o),
(555,189,o),
(547,189,cs),
(536,189,o),
(526,183,o),
(519,177,cs),
(482,145,o),
(438,131,o),
(390,131,cs),
(263,131,o),
(188,227,o),
(188,365,cs),
(188,504,o),
(265,597,o),
(406,597,cs),
(455,597,o),
(525,586,o),
(564,561,c),
(630,578,l),
(630,631,l),
(577,667,o),
(491,739,o),
(375,739,cs),
(290,739,o),
(193,700,o),
(121,631,cs),
(54,567,o),
(15,474,o),
(15,363,cs),
(15,254,o),
(52,159,o),
(114,94,cs),
(173,32,o),
(264,-8,o),
(366,-8,cs)
);
},
{
closed = 1;
nodes = (
(691,0,l),
(691,729,l),
(581,729,ls),
(560,729,o),
(545,721,o),
(532,705,cs),
(521,691,l),
(521,56,l),
(536,28,ls),
(546,9,o),
(561,0,o),
(583,0,cs)
);
},
{
pos = (691,0);
ref = SerifBottomRight;
}
);
width = 788;
}
);
metricLeft = C;
metricRight = I;
unicode = 11373;
},
{
glyphname = Amacron;
layers = (
{
background = {
anchors = (
{
name = bottom;
pos = (380,0);
},
{
name = center;
pos = (380,850);
},
{
name = ogonek;
pos = (665,2);
},
{
name = top;
pos = (380,855);
}
);
shapes = (
{
closed = 1;
nodes = (
(91,0,ls),
(95,0,o),
(97,2,o),
(98,5,c),
(372,663,ls),
(374,668,o),
(379,680,o),
(380,684,c),
(381,680,o),
(386,668,o),
(388,663,cs),
(662,5,l),
(663,2,o),
(665,0,o),
(668,0,cs),
(677,0,l),
(385,700,l),
(375,700,l),
(83,0,l)
);
},
{
closed = 1;
nodes = (
(102,0,l),
(102,11,l),
(89,11,l),
(89,0,l)
);
},
{
closed = 1;
nodes = (
(565,250,l),
(563,260,l),
(196,260,l),
(194,250,l)
);
},
{
closed = 1;
nodes = (
(669,0,l),
(669,11,l),
(656,11,l),
(656,0,l)
);
},
{
closed = 1;
nodes = (
(101,0,l),
(100,12,l),
(23,10,ls),
(20,10,o),
(16,8,o),
(16,5,cs),
(16,0,l)
);
},
{
closed = 1;
nodes = (
(184,0,l),
(184,5,ls),
(184,8,o),
(180,10,o),
(177,10,cs),
(100,12,l),
(99,0,l)
);
},
{
closed = 1;
nodes = (
(661,0,l),
(660,12,l),
(583,10,ls),
(580,10,o),
(576,8,o),
(576,5,cs),
(576,0,l)
);
},
{
closed = 1;
nodes = (
(744,0,l),
(744,5,ls),
(744,8,o),
(740,10,o),
(737,10,cs),
(660,12,l),
(659,0,l)
);
},
{
closed = 1;
nodes = (
(510,845,l),
(510,855,l),
(250,855,l),
(250,845,l)
);
}
);
};
layerId = "A1468767-BE48-4A45-9F09-053256197B3B";
shapes = (
{
ref = A;
},
{
pos = (240,210);
ref = macroncomb;
}
);
width = 760;
},
{
background = {
anchors = (
{
name = bottom;
pos = (378,0);
},
{
name = center;
pos = (380,854);
},
{
name = ogonek;
pos = (636,2);
},
{
name = top;
pos = (378,884);
}
);
shapes = (
{
closed = 1;
nodes = (
(117,0,ls),
(134,0,o),
(146,11,o),
(150,23,c),
(357,557,ls),
(364,576,o),
(370,598,o),
(378,625,c),
(385,598,o),
(392,576,o),
(399,558,cs),
(606,23,l),
(611,10,o),
(622,0,o),
(639,0,cs),
(714,0,l),
(427,717,l),
(329,717,l),
(42,0,l)
);
},
{
closed = 1;
nodes = (
(169,0,l),
(169,62,l),
(116,62,l),
(116,0,l)
);
},
{
closed = 1;
nodes = (
(554,212,l),
(527,282,l),
(232,282,l),
(205,212,l)
);
},
{
closed = 1;
nodes = (
(643,0,l),
(643,62,l),
(590,62,l),
(590,0,l)
);
},
{
closed = 1;
nodes = (
(115,0,l),
(104,78,l),
(29,62,ls),
(18,60,o),
(13,53,o),
(13,41,cs),
(13,0,l)
);
},
{
closed = 1;
nodes = (
(222,0,l),
(222,41,ls),
(222,53,o),
(217,60,o),
(206,62,cs),
(131,78,l),
(120,0,l)
);
},
{
closed = 1;
nodes = (
(636,0,l),
(625,78,l),
(550,62,ls),
(539,60,o),
(534,53,o),
(534,41,cs),
(534,0,l)
);
},
{
closed = 1;
nodes = (
(743,0,l),
(743,41,ls),
(743,53,o),
(738,60,o),
(727,62,cs),
(652,78,l),
(641,0,l)
);
},
{
closed = 1;
nodes = (
(525,826,l),
(525,884,l),
(238,884,l),
(238,826,l)
);
}
);
};
layerId = "BF33A826-8254-4501-9165-758AB68FE84B";
shapes = (
{
ref = A;
},
{
pos = (231,210);
ref = macroncomb;
}
);
width = 756;
},
{
background = {
anchors = (
{
name = bottom;
pos = (407,0);
},
{
name = center;
pos = (407,858);
},
{
name = ogonek;
pos = (645,2);
},
{
name = top;
pos = (407,906);
}
);
shapes = (
{
closed = 1;
nodes = (
(170,0,ls),
(198,0,o),
(218,18,o),
(225,37,c),
(374,477,ls),
(385,510,o),
(396,537,o),
(407,579,c),
(417,538,o),
(429,507,o),
(439,478,cs),
(588,37,ls),
(595,16,o),
(614,0,o),
(644,0,cs),
(775,0,l),
(493,729,l),
(320,729,l),
(38,0,l)
);
},
{
closed = 1;
nodes = (
(260,0,l),
(260,71,l),
(138,71,l),
(138,0,l)
);
},
{
closed = 1;
nodes = (
(574,190,l),
(564,305,l),
(238,305,l),
(228,190,l)
);
},
{
closed = 1;
nodes = (
(665,0,l),
(665,71,l),
(533,71,l),
(533,0,l)
);
},
{
closed = 1;
nodes = (
(105,0,l),
(91,118,l),
(47,109,ls),
(23,104,o),
(8,94,o),
(8,71,cs),
(8,0,l)
);
},
{
closed = 1;
nodes = (
(319,0,l),
(319,71,ls),
(319,94,o),
(304,104,o),
(280,109,cs),
(236,118,l),
(222,0,l)
);
},
{
closed = 1;
nodes = (
(591,0,l),
(577,118,l),
(533,109,ls),
(509,104,o),
(494,94,o),
(494,71,cs),
(494,0,l)
);
},
{
closed = 1;
nodes = (
(805,0,l),
(805,71,ls),
(805,94,o),
(790,104,o),
(766,109,cs),
(722,118,l),
(708,0,l)
);
},
{
closed = 1;
nodes = (
(562,815,l),
(562,899,l),
(252,899,l),
(252,815,l)
);
}
);
};
layerId = "2C516476-8145-48E3-8501-3D313ADE77C9";
shapes = (
{
ref = A;
},
{
pos = (242,210);
ref = macroncomb;
}
);
width = 813;
}
);
unicode = 256;
},
{
glyphname = Aogonek;
layers = (
{
background = {
anchors = (
{
name = bottom;
pos = (380,0);
},
{
name = ogonek;
pos = (665,2);
},
{
name = top;
pos = (380,700);
}
);
shapes = (
{
closed = 1;
nodes = (
(91,0,ls),
(95,0,o),
(97,2,o),
(98,5,c),
(372,663,ls),
(374,668,o),
(379,680,o),
(380,684,c),
(381,680,o),
(386,668,o),
(388,663,cs),
(662,5,l),
(663,2,o),
(665,0,o),
(668,0,cs),
(677,0,l),
(385,700,l),
(375,700,l),
(83,0,l)
);
},
{
closed = 1;
nodes = (
(102,0,l),
(102,11,l),
(89,11,l),
(89,0,l)
);
},
{
closed = 1;
nodes = (
(565,250,l),
(563,260,l),
(196,260,l),
(194,250,l)
);
},
{
closed = 1;
nodes = (
(669,0,l),
(669,11,l),
(656,11,l),
(656,0,l)
);
},
{
closed = 1;
nodes = (
(101,0,l),
(100,12,l),
(23,10,ls),
(20,10,o),
(16,8,o),
(16,5,cs),
(16,0,l)
);
},
{
closed = 1;
nodes = (
(184,0,l),
(184,5,ls),
(184,8,o),
(180,10,o),
(177,10,cs),
(100,12,l),
(99,0,l)
);
},
{
closed = 1;
nodes = (
(661,0,l),
(660,12,l),
(583,10,ls),
(580,10,o),
(576,8,o),
(576,5,cs),
(576,0,l)
);
},
{
closed = 1;
nodes = (
(744,0,l),
(744,5,ls),
(744,8,o),
(740,10,o),
(737,10,cs),
(660,12,l),
(659,0,l)
);
},
{
closed = 1;
nodes = (
(733,-133,ls),
(729,-133,o),
(694,-155,o),
(668,-155,cs),
(631,-155,o),
(601,-133,o),
(601,-96,cs),
(601,-50,o),
(643,-16,o),
(674,2,c),
(668,9,l),
(635,-10,o),
(590,-51,o),
(590,-96,cs),
(590,-141,o),
(623,-165,o),
(667,-165,cs),
(695,-165,o),
(723,-155,o),
(740,-138,c),
(737,-135,ls),
(736,-134,o),
(734,-133,o),
(733,-133,c)
);
}
);
};
layerId = "A1468767-BE48-4A45-9F09-053256197B3B";
shapes = (
{
ref = A;
},
{
pos = (525,2);
ref = ogonekcomb;
}
);
width = 760;
},
{
background = {
anchors = (
{
name = bottom;
pos = (378,0);
},
{
name = ogonek;
pos = (636,2);
},
{
name = top;
pos = (378,717);
}
);
shapes = (
{
closed = 1;
nodes = (
(117,0,ls),
(134,0,o),
(146,11,o),
(150,23,c),
(357,557,ls),
(364,576,o),
(370,598,o),
(378,625,c),
(385,598,o),
(392,576,o),
(399,558,cs),
(606,23,l),
(611,10,o),
(622,0,o),
(639,0,cs),
(714,0,l),
(427,717,l),
(329,717,l),
(42,0,l)
);
},
{
closed = 1;
nodes = (
(169,0,l),
(169,62,l),
(116,62,l),
(116,0,l)
);
},
{
closed = 1;
nodes = (
(554,212,l),
(527,282,l),
(232,282,l),
(205,212,l)
);
},
{
closed = 1;
nodes = (
(643,0,l),
(643,62,l),
(590,62,l),
(590,0,l)
);
},
{
closed = 1;
nodes = (
(115,0,l),
(104,78,l),
(29,62,ls),
(18,60,o),
(13,53,o),
(13,41,cs),
(13,0,l)
);
},
{
closed = 1;
nodes = (
(222,0,l),
(222,41,ls),
(222,53,o),
(217,60,o),
(206,62,cs),
(131,78,l),
(120,0,l)
);
},
{
closed = 1;
nodes = (
(636,0,l),
(625,78,l),
(550,62,ls),
(539,60,o),
(534,53,o),
(534,41,cs),
(534,0,l)
);
},
{
closed = 1;
nodes = (
(743,0,l),
(743,41,ls),
(743,53,o),
(738,60,o),
(727,62,cs),
(652,78,l),
(641,0,l)
);
},
{
closed = 1;
nodes = (
(701,-104,l),
(696,-104,o),
(674,-116,o),
(655,-116,cs),
(627,-116,o),
(610,-100,o),
(610,-75,cs),
(610,-40,o),
(642,-14,o),
(669,2,c),
(623,9,l),
(580,-16,o),
(542,-55,o),
(542,-97,cs),
(542,-141,o),
(578,-169,o),
(637,-169,cs),
(670,-169,o),
(704,-159,o),
(724,-143,c),
(710,-110,ls),
(709,-107,o),
(705,-104,o),
(701,-104,c)
);
}
);
};
layerId = "BF33A826-8254-4501-9165-758AB68FE84B";
shapes = (
{
ref = A;
},
{
pos = (482,2);
ref = ogonekcomb;
}
);
width = 756;
},
{
background = {
anchors = (
{
name = bottom;
pos = (407,0);
},
{
name = ogonek;
pos = (645,2);
},
{
name = top;
pos = (407,729);
}
);
shapes = (
{
closed = 1;
nodes = (
(170,0,ls),
(198,0,o),
(218,18,o),
(225,37,c),
(374,477,ls),
(385,510,o),
(396,537,o),
(407,579,c),
(417,538,o),
(429,507,o),
(439,478,cs),
(588,37,ls),
(595,16,o),
(614,0,o),
(644,0,cs),
(775,0,l),
(493,729,l),
(320,729,l),
(38,0,l)
);
},
{
closed = 1;
nodes = (
(260,0,l),
(260,71,l),
(138,71,l),
(138,0,l)
);
},
{
closed = 1;
nodes = (
(574,190,l),
(564,305,l),
(238,305,l),
(228,190,l)
);
},
{
closed = 1;
nodes = (
(665,0,l),
(665,71,l),
(533,71,l),
(533,0,l)
);
},
{
closed = 1;
nodes = (
(105,0,l),
(91,118,l),
(47,109,ls),
(23,104,o),
(8,94,o),
(8,71,cs),
(8,0,l)
);
},
{
closed = 1;
nodes = (
(319,0,l),
(319,71,ls),
(319,94,o),
(304,104,o),
(280,109,cs),
(236,118,l),
(222,0,l)
);
},
{
closed = 1;
nodes = (
(591,0,l),
(577,118,l),
(533,109,ls),
(509,104,o),
(494,94,o),
(494,71,cs),
(494,0,l)
);
},
{
closed = 1;
nodes = (
(805,0,l),
(805,71,ls),
(805,94,o),
(790,104,o),
(766,109,cs),
(722,118,l),
(708,0,l)
);
},
{
closed = 1;
nodes = (
(707,-82,l),
(702,-82,o),
(693,-86,o),
(678,-86,cs),
(661,-86,o),
(651,-75,o),
(651,-59,cs),
(651,-34,o),
(673,-13,o),
(698,2,c),
(618,8,l),
(561,-23,o),
(536,-61,o),
(536,-97,cs),
(536,-141,o),
(574,-172,o),
(645,-172,cs),
(685,-172,o),
(721,-160,o),
(744,-147,c),
(721,-91,ls),
(719,-85,o),
(714,-82,o),
(707,-82,c)
);
}
);
};
layerId = "2C516476-8145-48E3-8501-3D313ADE77C9";
shapes = (
{
ref = A;
},
{
pos = (480,2);
ref = ogonekcomb;
}
);
width = 813;
}
);
unicode = 260;
},
{
glyphname = Aring;
layers = (
{
background = {
anchors = (
{
name = bottom;
pos = (380,0);
},
{
name = ogonek;
pos = (665,2);
},
{
name = top;
pos = (380,700);
}
);
shapes = (
{
closed = 1;
nodes = (
(91,0,ls),
(95,0,o),
(97,2,o),
(98,5,c),
(372,663,ls),
(374,668,o),
(379,680,o),
(380,684,c),
(381,680,o),
(386,668,o),
(388,663,cs),
(662,5,l),
(663,2,o),
(665,0,o),
(668,0,cs),
(677,0,l),
(385,700,l),
(375,700,l),
(83,0,l)
);
},
{
closed = 1;
nodes = (
(102,0,l),
(102,11,l),
(89,11,l),
(89,0,l)
);
},
{
closed = 1;
nodes = (
(565,250,l),
(563,260,l),
(196,260,l),
(194,250,l)
);
},
{
closed = 1;
nodes = (
(669,0,l),
(669,11,l),
(656,11,l),
(656,0,l)
);
},
{
closed = 1;
nodes = (
(101,0,l),
(100,12,l),
(23,10,ls),
(20,10,o),
(16,8,o),
(16,5,cs),
(16,0,l)
);
},
{
closed = 1;
nodes = (
(184,0,l),
(184,5,ls),
(184,8,o),
(180,10,o),
(177,10,cs),
(100,12,l),
(99,0,l)
);
},
{
closed = 1;
nodes = (
(661,0,l),
(660,12,l),
(583,10,ls),
(580,10,o),
(576,8,o),
(576,5,cs),
(576,0,l)
);
},
{
closed = 1;
nodes = (
(744,0,l),
(744,5,ls),
(744,8,o),
(740,10,o),
(737,10,cs),
(660,12,l),
(659,0,l)
);
},
{
closed = 1;
nodes = (
(422,783,o),
(454,815,o),
(454,855,cs),
(454,896,o),
(422,927,o),
(380,927,cs),
(340,927,o),
(306,896,o),
(306,855,cs),
(306,815,o),
(341,783,o),
(380,783,cs)
);
},
{
closed = 1;
nodes = (
(345,792,o),
(317,820,o),
(317,855,cs),
(317,892,o),
(345,918,o),
(380,918,cs),
(417,918,o),
(443,892,o),
(443,855,cs),
(443,820,o),
(417,792,o),
(380,792,cs)
);
}
);
};
layerId = "A1468767-BE48-4A45-9F09-053256197B3B";
shapes = (
{
ref = A;
},
{
pos = (240,210);
ref = ringcomb;
}
);
width = 760;
},
{
background = {
anchors = (
{
name = bottom;
pos = (378,0);
},
{
name = ogonek;
pos = (636,2);
},
{
name = top;
pos = (378,717);
}
);
shapes = (
{
closed = 1;
nodes = (
(117,0,ls),
(134,0,o),
(146,11,o),
(150,23,c),
(357,557,ls),
(364,576,o),
(370,598,o),
(378,625,c),
(385,598,o),
(392,576,o),
(399,558,cs),
(606,23,l),
(611,10,o),
(622,0,o),
(639,0,cs),
(714,0,l),
(427,717,l),
(329,717,l),
(42,0,l)
);
},
{
closed = 1;
nodes = (
(169,0,l),
(169,62,l),
(116,62,l),
(116,0,l)
);
},
{
closed = 1;
nodes = (
(554,212,l),
(527,282,l),
(232,282,l),
(205,212,l)
);
},
{
closed = 1;
nodes = (
(643,0,l),
(643,62,l),
(590,62,l),
(590,0,l)
);
},
{
closed = 1;
nodes = (
(115,0,l),
(104,78,l),
(29,62,ls),
(18,60,o),
(13,53,o),
(13,41,cs),
(13,0,l)
);
},
{
closed = 1;
nodes = (
(222,0,l),
(222,41,ls),
(222,53,o),
(217,60,o),
(206,62,cs),
(131,78,l),
(120,0,l)
);
},
{
closed = 1;
nodes = (
(636,0,l),
(625,78,l),
(550,62,ls),
(539,60,o),
(534,53,o),
(534,41,cs),
(534,0,l)
);
},
{
closed = 1;
nodes = (
(743,0,l),
(743,41,ls),
(743,53,o),
(738,60,o),
(727,62,cs),
(652,78,l),
(641,0,l)
);
},
{
closed = 1;
nodes = (
(432,776,o),
(478,813,o),
(478,868,cs),
(478,924,o),
(432,961,o),
(377,961,cs),
(323,961,o),
(277,923,o),
(277,868,cs),
(277,813,o),
(323,776,o),
(377,776,cs)
);
},
{
closed = 1;
nodes = (
(346,818,o),
(327,839,o),
(327,868,cs),
(327,897,o),
(346,918,o),
(378,918,cs),
(407,918,o),
(428,897,o),
(428,868,cs),
(428,839,o),
(407,818,o),
(378,818,cs)
);
}
);
};
layerId = "BF33A826-8254-4501-9165-758AB68FE84B";
shapes = (
{
ref = A;
},
{
pos = (224,210);
ref = ringcomb;
}
);
width = 756;
},
{
background = {
anchors = (
{
name = bottom;
pos = (407,0);
},
{
name = ogonek;
pos = (645,2);
},
{
name = top;
pos = (407,729);
}
);
shapes = (
{
closed = 1;
nodes = (
(170,0,ls),
(198,0,o),
(218,18,o),
(225,37,c),
(374,477,ls),
(385,510,o),
(396,537,o),
(407,579,c),
(417,538,o),
(429,507,o),
(439,478,cs),
(588,37,ls),
(595,16,o),
(614,0,o),
(644,0,cs),
(775,0,l),
(493,729,l),
(320,729,l),
(38,0,l)
);
},
{
closed = 1;
nodes = (
(260,0,l),
(260,71,l),
(138,71,l),
(138,0,l)
);
},
{
closed = 1;
nodes = (
(574,190,l),
(564,305,l),
(238,305,l),
(228,190,l)
);
},
{
closed = 1;
nodes = (
(665,0,l),
(665,71,l),
(533,71,l),
(533,0,l)
);
},
{
closed = 1;
nodes = (
(105,0,l),
(91,118,l),
(47,109,ls),
(23,104,o),
(8,94,o),
(8,71,cs),
(8,0,l)
);
},
{
closed = 1;
nodes = (
(319,0,l),
(319,71,ls),
(319,94,o),
(304,104,o),
(280,109,cs),
(236,118,l),
(222,0,l)
);
},
{
closed = 1;
nodes = (
(591,0,l),
(577,118,l),
(533,109,ls),
(509,104,o),
(494,94,o),
(494,71,cs),
(494,0,l)
);
},
{
closed = 1;
nodes = (
(805,0,l),
(805,71,ls),
(805,94,o),
(790,104,o),
(766,109,cs),
(722,118,l),
(708,0,l)
);
},
{
closed = 1;
nodes = (
(473,770,o),
(530,812,o),
(530,877,cs),
(530,944,o),
(473,987,o),
(406,987,cs),
(341,987,o),
(285,944,o),
(285,877,cs),
(285,812,o),
(341,770,o),
(406,770,cs)
);
},
{
closed = 1;
nodes = (
(381,837,o),
(368,854,o),
(368,877,cs),
(368,902,o),
(381,918,o),
(408,918,cs),
(432,918,o),
(447,902,o),
(447,877,cs),
(447,854,o),
(432,837,o),
(408,837,cs)
);
}
);
};
layerId = "2C516476-8145-48E3-8501-3D313ADE77C9";
shapes = (
{
ref = A;
},
{
pos = (242,210);
ref = ringcomb;
}
);
width = 813;
}
);
unicode = 197;
},
{
glyphname = Aringacute;
layers = (
{
background = {
anchors = (
{
name = bottom;
pos = (380,0);
},
{
name = ogonek;
pos = (665,2);
},
{
name = top;
pos = (380,910);
}
);
shapes = (
{
closed = 1;
nodes = (
(91,0,ls),
(95,0,o),
(97,2,o),
(98,5,c),
(372,663,ls),
(374,668,o),
(379,680,o),
(380,684,c),
(381,680,o),
(386,668,o),
(388,663,cs),
(662,5,l),
(663,2,o),
(665,0,o),
(668,0,cs),
(677,0,l),
(385,700,l),
(375,700,l),
(83,0,l)
);
},
{
closed = 1;
nodes = (
(102,0,l),
(102,11,l),
(89,11,l),
(89,0,l)
);
},
{
closed = 1;
nodes = (
(565,250,l),
(563,260,l),
(196,260,l),
(194,250,l)
);
},
{
closed = 1;
nodes = (
(669,0,l),
(669,11,l),
(656,11,l),
(656,0,l)
);
},
{
closed = 1;
nodes = (
(101,0,l),
(100,12,l),
(23,10,ls),
(20,10,o),
(16,8,o),
(16,5,cs),
(16,0,l)
);
},
{
closed = 1;
nodes = (
(184,0,l),
(184,5,ls),
(184,8,o),
(180,10,o),
(177,10,cs),
(100,12,l),
(99,0,l)
);
},
{
closed = 1;
nodes = (
(661,0,l),
(660,12,l),
(583,10,ls),
(580,10,o),
(576,8,o),
(576,5,cs),
(576,0,l)
);
},
{
closed = 1;
nodes = (
(744,0,l),
(744,5,ls),
(744,8,o),
(740,10,o),
(737,10,cs),
(660,12,l),
(659,0,l)
);
},
{
closed = 1;
nodes = (
(422,783,o),
(454,815,o),
(454,855,cs),
(454,896,o),
(422,927,o),
(380,927,cs),
(340,927,o),
(306,896,o),
(306,855,cs),
(306,815,o),
(341,783,o),
(380,783,cs)
);
},
{
closed = 1;
nodes = (
(345,792,o),
(317,820,o),
(317,855,cs),
(317,892,o),
(345,918,o),
(380,918,cs),
(417,918,o),
(443,892,o),
(443,855,cs),
(443,820,o),
(417,792,o),
(380,792,cs)
);
},
{
closed = 1;
nodes = (
(436,895,ls),
(439,895,o),
(442,895,o),
(444,898,cs),
(565,1003,l),
(553,1006,ls),
(542,1008,o),
(538,1006,o),
(530,998,cs),
(429,897,l)
);
}
);
};
layerId = "A1468767-BE48-4A45-9F09-053256197B3B";
shapes = (
{
ref = A;
},
{
pos = (256,210);
ref = ringacutecomb;
}
);
width = 760;
},
{
background = {
anchors = (
{
name = bottom;
pos = (378,0);
},
{
name = ogonek;
pos = (636,2);
},
{
name = top;
pos = (378,927);
}
);
shapes = (
{
closed = 1;
nodes = (
(117,0,ls),
(134,0,o),
(146,11,o),
(150,23,c),
(357,557,ls),
(364,576,o),
(370,598,o),
(378,625,c),
(385,598,o),
(392,576,o),
(399,558,cs),
(606,23,l),
(611,10,o),
(622,0,o),
(639,0,cs),
(714,0,l),
(427,717,l),
(329,717,l),
(42,0,l)
);
},
{
closed = 1;
nodes = (
(169,0,l),
(169,62,l),
(116,62,l),
(116,0,l)
);
},
{
closed = 1;
nodes = (
(554,212,l),
(527,282,l),
(232,282,l),
(205,212,l)
);
},
{
closed = 1;
nodes = (
(643,0,l),
(643,62,l),
(590,62,l),
(590,0,l)
);
},
{
closed = 1;
nodes = (
(115,0,l),
(104,78,l),
(29,62,ls),
(18,60,o),
(13,53,o),
(13,41,cs),
(13,0,l)
);
},
{
closed = 1;
nodes = (
(222,0,l),
(222,41,ls),
(222,53,o),
(217,60,o),
(206,62,cs),
(131,78,l),
(120,0,l)
);
},
{
closed = 1;
nodes = (
(636,0,l),
(625,78,l),
(550,62,ls),
(539,60,o),
(534,53,o),
(534,41,cs),
(534,0,l)
);
},
{
closed = 1;
nodes = (
(743,0,l),
(743,41,ls),
(743,53,o),
(738,60,o),
(727,62,cs),
(652,78,l),
(641,0,l)
);
},
{
closed = 1;
nodes = (
(433,776,o),
(479,813,o),
(479,868,cs),
(479,924,o),
(433,961,o),
(378,961,cs),
(324,961,o),
(278,923,o),
(278,868,cs),
(278,813,o),
(324,776,o),
(378,776,cs)
);
},
{
closed = 1;
nodes = (
(347,818,o),
(328,839,o),
(328,868,cs),
(328,897,o),
(347,918,o),
(379,918,cs),
(408,918,o),
(429,897,o),
(429,868,cs),
(429,839,o),
(408,818,o),
(379,818,cs)
);
},
{
closed = 1;
nodes = (
(449,907,ls),
(463,904,o),
(471,906,o),
(482,915,cs),
(619,1022,l),
(534,1037,ls),
(513,1041,o),
(502,1036,o),
(490,1023,cs),
(396,916,l)
);
}
);
};
layerId = "BF33A826-8254-4501-9165-758AB68FE84B";
shapes = (
{
ref = A;
},
{
pos = (238,210);
ref = ringacutecomb;
}
);
width = 756;
},
{
background = {
anchors = (
{
name = bottom;
pos = (407,0);
},
{
name = ogonek;
pos = (645,2);
},
{
name = top;
pos = (407,939);
}
);
shapes = (
{
closed = 1;
nodes = (
(170,0,ls),
(198,0,o),
(218,18,o),
(225,37,c),
(374,477,ls),
(385,510,o),
(396,537,o),
(407,579,c),
(417,538,o),
(429,507,o),
(439,478,cs),
(588,37,ls),
(595,16,o),
(614,0,o),
(644,0,cs),
(775,0,l),
(493,729,l),
(320,729,l),
(38,0,l)
);
},
{
closed = 1;
nodes = (
(260,0,l),
(260,71,l),
(138,71,l),
(138,0,l)
);
},
{
closed = 1;
nodes = (
(574,190,l),
(564,305,l),
(238,305,l),
(228,190,l)
);
},
{
closed = 1;
nodes = (
(665,0,l),
(665,71,l),
(533,71,l),
(533,0,l)
);
},
{
closed = 1;
nodes = (
(105,0,l),
(91,118,l),
(47,109,ls),
(23,104,o),
(8,94,o),
(8,71,cs),
(8,0,l)
);
},
{
closed = 1;
nodes = (
(319,0,l),
(319,71,ls),
(319,94,o),
(304,104,o),
(280,109,cs),
(236,118,l),
(222,0,l)
);
},
{
closed = 1;
nodes = (
(591,0,l),
(577,118,l),
(533,109,ls),
(509,104,o),
(494,94,o),
(494,71,cs),
(494,0,l)
);
},
{
closed = 1;
nodes = (
(805,0,l),
(805,71,ls),
(805,94,o),
(790,104,o),
(766,109,cs),
(722,118,l),
(708,0,l)
);
},
{
closed = 1;
nodes = (
(473,782,o),
(530,824,o),
(530,889,cs),
(530,956,o),
(473,999,o),
(406,999,cs),
(341,999,o),
(285,956,o),
(285,889,cs),
(285,824,o),
(341,782,o),
(406,782,cs)
);
},
{
closed = 1;
nodes = (
(381,849,o),
(368,866,o),
(368,889,cs),
(368,914,o),
(381,930,o),
(408,930,cs),
(432,930,o),
(447,914,o),
(447,889,cs),
(447,866,o),
(432,849,o),
(408,849,cs)
);
},
{
closed = 1;
nodes = (
(490,917,ls),
(513,913,o),
(525,917,o),
(542,929,cs),
(693,1036,l),
(546,1062,ls),
(515,1068,o),
(501,1059,o),
(486,1042,c),
(398,933,l)
);
}
);
};
layerId = "2C516476-8145-48E3-8501-3D313ADE77C9";
shapes = (
{
ref = A;
},
{
pos = (264,222);
ref = ringacutecomb;
}
);
width = 813;
}
);
unicode = 506;
},
{
glyphname = Atilde;
layers = (
{
background = {
anchors = (
{
name = bottom;
pos = (380,0);
},
{
name = ogonek;
pos = (665,2);
},
{
name = top;
pos = (380,867);
}
);
shapes = (
{
closed = 1;
nodes = (
(91,0,ls),
(95,0,o),
(97,2,o),
(98,5,c),
(372,663,ls),
(374,668,o),
(379,680,o),
(380,684,c),
(381,680,o),
(386,668,o),
(388,663,cs),
(662,5,l),
(663,2,o),
(665,0,o),
(668,0,cs),
(677,0,l),
(385,700,l),
(375,700,l),
(83,0,l)
);
},
{
closed = 1;
nodes = (
(102,0,l),
(102,11,l),
(89,11,l),
(89,0,l)
);
},
{
closed = 1;
nodes = (
(565,250,l),
(563,260,l),
(196,260,l),
(194,250,l)
);
},
{
closed = 1;
nodes = (
(669,0,l),
(669,11,l),
(656,11,l),
(656,0,l)
);
},
{
closed = 1;
nodes = (
(101,0,l),
(100,12,l),
(23,10,ls),
(20,10,o),
(16,8,o),
(16,5,cs),
(16,0,l)
);
},
{
closed = 1;
nodes = (
(184,0,l),
(184,5,ls),
(184,8,o),
(180,10,o),
(177,10,cs),
(100,12,l),
(99,0,l)
);
},
{
closed = 1;
nodes = (
(661,0,l),
(660,12,l),
(583,10,ls),
(580,10,o),
(576,8,o),
(576,5,cs),
(576,0,l)
);
},
{
closed = 1;
nodes = (
(744,0,l),
(744,5,ls),
(744,8,o),
(740,10,o),
(737,10,cs),
(660,12,l),
(659,0,l)
);
},
{
closed = 1;
nodes = (
(436,831,l),
(396,831,o),
(368,889,o),
(324,889,cs),
(287,889,o),
(265,859,o),
(265,822,c),
(274,822,l),
(277,854,o),
(291,879,o),
(324,879,cs),
(361,879,o),
(396,821,o),
(436,821,cs),
(475,821,o),
(494,851,o),
(494,888,c),
(486,888,l),
(485,856,o),
(469,831,o),
(436,831,c)
);
}
);
};
layerId = "A1468767-BE48-4A45-9F09-053256197B3B";
shapes = (
{
ref = A;
},
{
pos = (240,210);
ref = tildecomb;
}
);
width = 760;
},
{
background = {
anchors = (
{
name = bottom;
pos = (378,0);
},
{
name = ogonek;
pos = (636,2);
},
{
name = top;
pos = (378,902);
}
);
shapes = (
{
closed = 1;
nodes = (
(117,0,ls),
(134,0,o),
(146,11,o),
(150,23,c),
(357,557,ls),
(364,576,o),
(370,598,o),
(378,625,c),
(385,598,o),
(392,576,o),
(399,558,cs),
(606,23,l),
(611,10,o),
(622,0,o),
(639,0,cs),
(714,0,l),
(427,717,l),
(329,717,l),
(42,0,l)
);
},
{
closed = 1;
nodes = (
(169,0,l),
(169,62,l),
(116,62,l),
(116,0,l)
);
},
{
closed = 1;
nodes = (
(554,212,l),
(527,282,l),
(232,282,l),
(205,212,l)
);
},
{
closed = 1;
nodes = (
(643,0,l),
(643,62,l),
(590,62,l),
(590,0,l)
);
},
{
closed = 1;
nodes = (
(115,0,l),
(104,78,l),
(29,62,ls),
(18,60,o),
(13,53,o),
(13,41,cs),
(13,0,l)
);
},
{
closed = 1;
nodes = (
(222,0,l),
(222,41,ls),
(222,53,o),
(217,60,o),
(206,62,cs),
(131,78,l),
(120,0,l)
);
},
{
closed = 1;
nodes = (
(636,0,l),
(625,78,l),
(550,62,ls),
(539,60,o),
(534,53,o),
(534,41,cs),
(534,0,l)
);
},
{
closed = 1;
nodes = (
(743,0,l),
(743,41,ls),
(743,53,o),
(738,60,o),
(727,62,cs),
(652,78,l),
(641,0,l)
);
},
{
closed = 1;
nodes = (
(432,873,l),
(404,873,o),
(364,919,o),
(322,919,cs),
(267,919,o),
(232,872,o),
(232,811,c),
(288,811,l),
(289,840,o),
(301,855,o),
(325,855,cs),
(354,855,o),
(393,809,o),
(435,809,cs),
(489,809,o),
(524,855,o),
(524,916,c),
(470,916,l),
(469,887,o),
(456,873,o),
(432,873,c)
);
}
);
};
layerId = "BF33A826-8254-4501-9165-758AB68FE84B";
shapes = (
{
ref = A;
},
{
pos = (224,210);
ref = tildecomb;
}
);
width = 756;
},
{
background = {
anchors = (
{
name = bottom;
pos = (407,0);
},
{
name = ogonek;
pos = (645,2);
},
{
name = top;
pos = (407,939);
}
);
shapes = (
{
closed = 1;
nodes = (
(170,0,ls),
(198,0,o),
(218,18,o),
(225,37,c),
(374,477,ls),
(385,510,o),
(396,537,o),
(407,579,c),
(417,538,o),
(429,507,o),
(439,478,cs),
(588,37,ls),
(595,16,o),
(614,0,o),
(644,0,cs),
(775,0,l),
(493,729,l),
(320,729,l),
(38,0,l)
);
},
{
closed = 1;
nodes = (
(260,0,l),
(260,71,l),
(138,71,l),
(138,0,l)
);
},
{
closed = 1;
nodes = (
(574,190,l),
(564,305,l),
(238,305,l),
(228,190,l)
);
},
{
closed = 1;
nodes = (
(665,0,l),
(665,71,l),
(533,71,l),
(533,0,l)
);
},
{
closed = 1;
nodes = (
(105,0,l),
(91,118,l),
(47,109,ls),
(23,104,o),
(8,94,o),
(8,71,cs),
(8,0,l)
);
},
{
closed = 1;
nodes = (
(319,0,l),
(319,71,ls),
(319,94,o),
(304,104,o),
(280,109,cs),
(236,118,l),
(222,0,l)
);
},
{
closed = 1;
nodes = (
(591,0,l),
(577,118,l),
(533,109,ls),
(509,104,o),
(494,94,o),
(494,71,cs),
(494,0,l)
);
},
{
closed = 1;
nodes = (
(805,0,l),
(805,71,ls),
(805,94,o),
(790,104,o),
(766,109,cs),
(722,118,l),
(708,0,l)
);
},
{
closed = 1;
nodes = (
(458,904,l),
(435,904,o),
(391,941,o),
(349,941,cs),
(283,941,o),
(234,882,o),
(234,803,c),
(329,803,l),
(329,831,o),
(339,837,o),
(355,837,cs),
(379,837,o),
(421,800,o),
(464,800,cs),
(533,800,o),
(579,856,o),
(579,937,c),
(485,937,l),
(485,909,o),
(474,904,o),
(458,904,c)
);
}
);
};
layerId = "2C516476-8145-48E3-8501-3D313ADE77C9";
shapes = (
{
ref = A;
},
{
pos = (229,210);
ref = tildecomb;
}
);
width = 813;
}
);
unicode = 195;
},
{
glyphname = AE;
kernLeft = A;
kernRight = E;
layers = (
{
anchors = (
{
name = bottom;
pos = (509,0);
},
{
name = top;
pos = (503,700);
}
);
background = {
anchors = (
{
name = bottom;
pos = (509,0);
},
{
name = top;
pos = (503,700);
}
);
shapes = (
{
closed = 1;
nodes = (
(63,0,ls),
(66,0,o),
(68,1,o),
(70,4,c),
(448,663,l),
(454,674,o),
(457,680,o),
(461,689,c),
(550,0,l),
(908,0,l),
(909,11,l),
(560,11,l),
(516,350,l),
(820,350,l),
(820,361,l),
(514,361,l),
(472,689,l),
(908,689,l),
(908,700,l),
(455,700,l),
(53,0,l)
);
},
{
closed = 1;
nodes = (
(523,250,l),
(521,260,l),
(207,260,l),
(205,250,l)
);
},
{
closed = 1;
nodes = (
(909,11,l),
(909,105,l),
(903,105,ls),
(900,105,o),
(898,101,o),
(898,98,cs),
(895,5,l)
);
},
{
closed = 1;
nodes = (
(897,602,ls),
(897,599,o),
(899,595,o),
(902,595,cs),
(908,595,l),
(908,689,l),
(894,695,l),
(894,695,l)
);
},
{
closed = 1;
nodes = (
(373,700,l),
(373,695,ls),
(373,692,o),
(377,690,o),
(380,690,cs),
(457,688,l),
(458,700,l)
);
},
{
closed = 1;
nodes = (
(553,0,l),
(552,12,l),
(475,10,ls),
(472,10,o),
(468,8,o),
(468,5,cs),
(468,0,l)
);
},
{
closed = 1;
nodes = (
(157,0,l),
(157,5,ls),
(157,8,o),
(153,10,o),
(150,10,cs),
(73,12,l),
(72,0,l)
);
},
{
closed = 1;
nodes = (
(74,0,l),
(73,12,l),
(-4,10,ls),
(-7,10,o),
(-11,8,o),
(-11,5,cs),
(-11,0,l)
);
}
);
};
layerId = "A1468767-BE48-4A45-9F09-053256197B3B";
shapes = (
{
closed = 1;
nodes = (
(63,0,ls),
(66,0,o),
(68,1,o),
(70,4,c),
(448,663,l),
(454,674,o),
(457,680,o),
(461,689,c),
(550,0,l),
(908,0,l),
(909,11,l),
(560,11,l),
(516,350,l),
(820,350,l),
(820,361,l),
(514,361,l),
(472,689,l),
(908,689,l),
(908,700,l),
(455,700,l),
(53,0,l)
);
},
{
closed = 1;
nodes = (
(523,250,l),
(521,260,l),
(207,260,l),
(205,250,l)
);
},
{
pos = (909,11);
ref = SerifUpLeftCaps;
},
{
angle = 180;
pos = (908,689);
ref = SerifUpRightCaps;
},
{
pos = (455,700);
ref = SerifSpurLeft;
},
{
pos = (550,0);
ref = SerifBottomLeft;
},
{
pos = (75,0);
ref = SerifBottomRight;
},
{
pos = (71,0);
ref = SerifBottomLeft;
}
);
userData = {
assembly = "SVTCA[0]	/* SetFreedomAndProjectionVectorToAxis */
PUSHW[ ]	/* 1 value pushed */
0 
RCVT[ ]	/* ReadCVT */
IF[ ]	/* If */
PUSHW[ ]	/* 1 value pushed */
0 
MDAP[1]	/* MoveDirectAbsPt */
ELSE[ ]	/* Else */
PUSHW[ ]	/* 2 values pushed */
0 11 
MIAP[0]	/* MoveIndirectAbsPt */
EIF[ ]	/* EndIf */
PUSHW[ ]	/* 1 value pushed */
0 
RCVT[ ]	/* ReadCVT */
IF[ ]	/* If */
PUSHW[ ]	/* 1 value pushed */
10 
MDAP[1]	/* MoveDirectAbsPt */
ELSE[ ]	/* Else */
PUSHW[ ]	/* 2 values pushed */
10 5 
MIAP[0]	/* MoveIndirectAbsPt */
EIF[ ]	/* EndIf */
PUSHW[ ]	/* 1 value pushed */
0 
RCVT[ ]	/* ReadCVT */
IF[ ]	/* If */
PUSHW[ ]	/* 1 value pushed */
16 
MDAP[1]	/* MoveDirectAbsPt */
ELSE[ ]	/* Else */
PUSHW[ ]	/* 2 values pushed */
16 5 
MIAP[0]	/* MoveIndirectAbsPt */
EIF[ ]	/* EndIf */
PUSHW[ ]	/* 4 values pushed */
19 1 12 4 
CALL[ ]	/* CallFunction */
PUSHW[ ]	/* 4 values pushed */
5 1 6 4 
CALL[ ]	/* CallFunction */
PUSHW[ ]	/* 1 value pushed */
0 
SRP0[ ]	/* SetRefPoint0 */
PUSHW[ ]	/* 2 values pushed */
2 1 
MIRP[10100]	/* MoveIndirectRelPt */
PUSHW[ ]	/* 1 value pushed */
10 
SRP0[ ]	/* SetRefPoint0 */
PUSHW[ ]	/* 2 values pushed */
8 1 
MIRP[10100]	/* MoveIndirectRelPt */
IUP[0]	/* InterpolateUntPts */
IUP[1]	/* InterpolateUntPts */";
};
width = 957;
},
{
anchors = (
{
name = bottom;
pos = (465,0);
},
{
name = top;
pos = (465,729);
}
);
background = {
anchors = (
{
name = bottom;
pos = (465,0);
},
{
name = top;
pos = (465,729);
}
);
shapes = (
{
closed = 1;
nodes = (
(193,0,ls),
(197,0,o),
(194,15,o),
(204,37,c),
(408,503,ls),
(420,531,o),
(435,565,o),
(448,605,c),
(521,0,l),
(931,0,l),
(931,130,l),
(665,130,l),
(644,304,l),
(856,304,l),
(856,429,l),
(629,429,l),
(609,599,l),
(931,599,l),
(931,729,l),
(371,729,l),
(13,0,l)
);
},
{
closed = 1;
nodes = (
(553,190,l),
(543,305,l),
(217,305,l),
(207,190,l)
);
},
{
closed = 1;
nodes = (
(931,130,l),
(931,216,l),
(875,216,ls),
(852,216,o),
(842,201,o),
(837,177,cs),
(822,108,l)
);
},
{
closed = 1;
nodes = (
(837,552,ls),
(842,528,o),
(852,513,o),
(875,513,cs),
(931,513,l),
(931,599,l),
(822,621,l),
(822,621,l)
);
},
{
closed = 1;
nodes = (
(274,729,l),
(274,658,ls),
(274,635,o),
(289,625,o),
(313,620,cs),
(357,611,l),
(371,729,l)
);
},
{
closed = 1;
nodes = (
(522,0,l),
(508,118,l),
(464,109,ls),
(440,104,o),
(425,94,o),
(425,71,cs),
(425,0,l)
);
},
{
closed = 1;
nodes = (
(287,0,l),
(287,71,ls),
(287,94,o),
(272,104,o),
(248,109,cs),
(204,118,l),
(190,0,l)
);
},
{
closed = 1;
nodes = (
(86,0,l),
(72,118,l),
(28,109,ls),
(4,104,o),
(-11,94,o),
(-11,71,cs),
(-11,0,l)
);
}
);
};
layerId = "2C516476-8145-48E3-8501-3D313ADE77C9";
shapes = (
{
closed = 1;
nodes = (
(193,0,ls),
(197,0,o),
(194,15,o),
(204,37,c),
(408,503,ls),
(420,531,o),
(435,565,o),
(448,605,c),
(521,0,l),
(931,0,l),
(931,130,l),
(665,130,l),
(644,304,l),
(856,304,l),
(856,429,l),
(629,429,l),
(609,599,l),
(931,599,l),
(931,729,l),
(371,729,l),
(13,0,l)
);
},
{
closed = 1;
nodes = (
(553,190,l),
(543,305,l),
(217,305,l),
(207,190,l)
);
},
{
pos = (931,130);
ref = SerifUpLeftCaps;
},
{
angle = 180;
pos = (931,599);
ref = SerifUpRightCaps;
},
{
pos = (381,729);
ref = SerifSpurLeft;
},
{
pos = (502,0);
ref = SerifBottomLeft;
},
{
pos = (210,0);
ref = SerifBottomRight;
},
{
pos = (66,0);
ref = SerifBottomLeft;
}
);
userData = {
assembly = "NPUSHB[ ]	/* 20 values pushed */
20 19 18 16 13 12 11 10 9 8 7 6 5 4 3 2 1 0 9 7 
CALL[ ]	/* CallFunction */
MPPEM[ ]	/* MeasurePixelPerEm */
PUSHB[ ]	/* 1 value pushed */
94 
LT[ ]	/* LessThan */
IF[ ]	/* If */
NPUSHB[ ]	/* 53 values pushed */
21 1 1 0 1 30 0 2 0 3 8 2 3 0 0 38 0 8 0 6 4 8 6 0 0 38 0 1 1 0 0 0 36 0 0 0 11 31 0 4 4 5 1 0 36 7 1 5 5 12 5 32 7 
ELSE[ ]	/* Else */
MPPEM[ ]	/* MeasurePixelPerEm */
PUSHB[ ]	/* 1 value pushed */
232 
LT[ ]	/* LessThan */
IF[ ]	/* If */
NPUSHB[ ]	/* 60 values pushed */
21 1 1 0 1 30 0 0 0 1 2 0 1 0 0 38 0 2 0 3 8 2 3 0 0 38 0 8 0 6 4 8 6 0 0 38 0 4 5 5 4 0 0 35 0 4 4 5 1 0 36 7 1 5 4 5 1 0 33 7 
ELSE[ ]	/* Else */
NPUSHB[ ]	/* 67 values pushed */
21 1 1 0 1 30 0 7 4 5 4 7 5 50 0 0 0 1 2 0 1 0 0 38 0 2 0 3 8 2 3 0 0 38 0 8 0 6 4 8 6 0 0 38 0 4 7 5 4 0 0 35 0 4 4 5 0 0 36 0 5 4 5 0 0 33 8 
EIF[ ]	/* EndIf */
EIF[ ]	/* EndIf */
PUSHB[ ]	/* 1 value pushed */
56 
CALL[ ]	/* CallFunction */";
};
width = 964;
},
{
anchors = (
{
name = bottom;
pos = (453,0);
},
{
name = top;
pos = (453,717);
}
);
background = {
anchors = (
{
name = bottom;
pos = (453,0);
},
{
name = top;
pos = (453,717);
}
);
shapes = (
{
closed = 1;
nodes = (
(107,0,ls),
(109,0,o),
(122,10,o),
(129,23,c),
(413,572,l),
(426,597,o),
(435,623,o),
(441,643,c),
(521,0,l),
(907,0,l),
(907,79,l),
(603,79,l),
(572,324,l),
(827,324,l),
(827,400,l),
(563,400,l),
(533,638,l),
(907,638,l),
(907,717,l),
(397,717,l),
(18,0,l)
);
},
{
closed = 1;
nodes = (
(529,212,l),
(502,282,l),
(207,282,l),
(180,212,l)
);
},
{
closed = 1;
nodes = (
(907,79,l),
(907,170,l),
(861,170,ls),
(850,170,o),
(842,166,o),
(840,154,cs),
(825,54,l)
);
},
{
closed = 1;
nodes = (
(840,563,ls),
(842,551,o),
(850,547,o),
(861,547,cs),
(907,547,l),
(907,638,l),
(825,663,l),
(825,663,l)
);
},
{
closed = 1;
nodes = (
(298,717,l),
(298,676,ls),
(298,664,o),
(303,657,o),
(314,655,cs),
(389,639,l),
(400,717,l)
);
},
{
closed = 1;
nodes = (
(551,0,l),
(540,78,l),
(465,62,ls),
(454,60,o),
(449,53,o),
(449,41,cs),
(449,0,l)
);
},
{
closed = 1;
nodes = (
(207,0,l),
(207,41,ls),
(207,53,o),
(202,60,o),
(191,62,cs),
(116,78,l),
(105,0,l)
);
},
{
closed = 1;
nodes = (
(91,0,l),
(80,78,l),
(5,62,ls),
(-6,60,o),
(-11,53,o),
(-11,41,cs),
(-11,0,l)
);
}
);
};
layerId = "BF33A826-8254-4501-9165-758AB68FE84B";
shapes = (
{
closed = 1;
nodes = (
(107,0,ls),
(109,0,o),
(122,10,o),
(129,23,c),
(413,572,l),
(426,597,o),
(435,623,o),
(441,643,c),
(521,0,l),
(907,0,l),
(907,79,l),
(603,79,l),
(572,324,l),
(827,324,l),
(827,400,l),
(563,400,l),
(533,638,l),
(907,638,l),
(907,717,l),
(397,717,l),
(18,0,l)
);
},
{
closed = 1;
nodes = (
(529,212,l),
(502,282,l),
(207,282,l),
(180,212,l)
);
},
{
pos = (907,79);
ref = SerifUpLeftCaps;
},
{
angle = 180;
pos = (907,638);
ref = SerifUpRightCaps;
},
{
pos = (370,717);
ref = SerifSpurLeft;
},
{
pos = (521,0);
ref = SerifBottomLeft;
},
{
pos = (135,0);
ref = SerifBottomRight;
},
{
pos = (61,0);
ref = SerifBottomLeft;
}
);
userData = {
assembly = "NPUSHB[ ]	/* 20 values pushed */
20 19 18 16 13 12 11 10 9 8 7 6 5 4 3 2 1 0 9 7 
CALL[ ]	/* CallFunction */
MPPEM[ ]	/* MeasurePixelPerEm */
PUSHB[ ]	/* 1 value pushed */
95 
LT[ ]	/* LessThan */
IF[ ]	/* If */
NPUSHB[ ]	/* 53 values pushed */
21 1 1 0 1 30 0 2 0 3 8 2 3 0 0 38 0 8 0 6 4 8 6 0 0 38 0 1 1 0 0 0 36 0 0 0 11 31 0 4 4 5 1 0 36 7 1 5 5 12 5 32 7 
ELSE[ ]	/* Else */
MPPEM[ ]	/* MeasurePixelPerEm */
PUSHB[ ]	/* 1 value pushed */
108 
LT[ ]	/* LessThan */
IF[ ]	/* If */
NPUSHB[ ]	/* 51 values pushed */
21 1 1 0 1 30 0 0 0 1 2 0 1 0 0 38 0 2 0 3 8 2 3 0 0 38 0 8 0 6 4 8 6 0 0 38 0 4 4 5 1 0 36 7 1 5 5 15 5 32 6 
ELSE[ ]	/* Else */
MPPEM[ ]	/* MeasurePixelPerEm */
PUSHB[ ]	/* 1 value pushed */
232 
LT[ ]	/* LessThan */
IF[ ]	/* If */
NPUSHB[ ]	/* 60 values pushed */
21 1 1 0 1 30 0 0 0 1 2 0 1 0 0 38 0 2 0 3 8 2 3 0 0 38 0 8 0 6 4 8 6 0 0 38 0 4 5 5 4 0 0 35 0 4 4 5 1 0 36 7 1 5 4 5 1 0 33 7 
ELSE[ ]	/* Else */
NPUSHB[ ]	/* 67 values pushed */
21 1 1 0 1 30 0 7 4 5 4 7 5 50 0 0 0 1 2 0 1 0 0 38 0 2 0 3 8 2 3 0 0 38 0 8 0 6 4 8 6 0 0 38 0 4 7 5 4 0 0 35 0 4 4 5 0 0 36 0 5 4 5 0 0 33 8 
EIF[ ]	/* EndIf */
EIF[ ]	/* EndIf */
EIF[ ]	/* EndIf */
PUSHB[ ]	/* 1 value pushed */
56 
CALL[ ]	/* CallFunction */";
};
width = 952;
}
);
metricRight = E;
note = AE;
unicode = 198;
},
{
glyphname = AEacute;
layers = (
{
background = {
anchors = (
{
name = bottom;
pos = (509,0);
},
{
name = top;
pos = (503,700);
}
);
shapes = (
{
closed = 1;
nodes = (
(63,0,ls),
(66,0,o),
(68,1,o),
(70,4,c),
(448,663,l),
(454,674,o),
(457,680,o),
(461,689,c),
(550,0,l),
(908,0,l),
(909,11,l),
(560,11,l),
(516,350,l),
(820,350,l),
(820,361,l),
(514,361,l),
(472,689,l),
(908,689,l),
(908,700,l),
(455,700,l),
(53,0,l)
);
},
{
closed = 1;
nodes = (
(523,250,l),
(521,260,l),
(207,260,l),
(205,250,l)
);
},
{
closed = 1;
nodes = (
(909,11,l),
(909,105,l),
(903,105,ls),
(900,105,o),
(898,101,o),
(898,98,cs),
(895,5,l)
);
},
{
closed = 1;
nodes = (
(897,602,ls),
(897,599,o),
(899,595,o),
(902,595,cs),
(908,595,l),
(908,689,l),
(894,695,l),
(894,695,l)
);
},
{
closed = 1;
nodes = (
(373,700,l),
(373,695,ls),
(373,692,o),
(377,690,o),
(380,690,cs),
(457,688,l),
(458,700,l)
);
},
{
closed = 1;
nodes = (
(553,0,l),
(552,12,l),
(475,10,ls),
(472,10,o),
(468,8,o),
(468,5,cs),
(468,0,l)
);
},
{
closed = 1;
nodes = (
(157,0,l),
(157,5,ls),
(157,8,o),
(153,10,o),
(150,10,cs),
(73,12,l),
(72,0,l)
);
},
{
closed = 1;
nodes = (
(74,0,l),
(73,12,l),
(-4,10,ls),
(-7,10,o),
(-11,8,o),
(-11,5,cs),
(-11,0,l)
);
},
{
closed = 1;
nodes = (
(500,789,ls),
(503,789,o),
(506,790,o),
(508,793,cs),
(609,918,l),
(596,918,ls),
(585,918,o),
(582,916,o),
(575,907,cs),
(493,789,l)
);
}
);
};
layerId = "A1468767-BE48-4A45-9F09-053256197B3B";
shapes = (
{
ref = AE;
},
{
pos = (377,210);
ref = acutecomb;
}
);
width = 957;
},
{
background = {
anchors = (
{
name = bottom;
pos = (453,0);
},
{
name = top;
pos = (453,717);
}
);
shapes = (
{
closed = 1;
nodes = (
(107,0,ls),
(109,0,o),
(122,10,o),
(129,23,c),
(413,572,l),
(426,597,o),
(435,623,o),
(441,643,c),
(521,0,l),
(907,0,l),
(907,79,l),
(603,79,l),
(572,324,l),
(827,324,l),
(827,400,l),
(563,400,l),
(533,638,l),
(907,638,l),
(907,717,l),
(397,717,l),
(18,0,l)
);
},
{
closed = 1;
nodes = (
(529,212,l),
(502,282,l),
(207,282,l),
(180,212,l)
);
},
{
closed = 1;
nodes = (
(907,79,l),
(907,170,l),
(861,170,ls),
(850,170,o),
(842,166,o),
(840,154,cs),
(825,54,l)
);
},
{
closed = 1;
nodes = (
(840,563,ls),
(842,551,o),
(850,547,o),
(861,547,cs),
(907,547,l),
(907,638,l),
(825,663,l),
(825,663,l)
);
},
{
closed = 1;
nodes = (
(298,717,l),
(298,676,ls),
(298,664,o),
(303,657,o),
(314,655,cs),
(389,639,l),
(400,717,l)
);
},
{
closed = 1;
nodes = (
(551,0,l),
(540,78,l),
(465,62,ls),
(454,60,o),
(449,53,o),
(449,41,cs),
(449,0,l)
);
},
{
closed = 1;
nodes = (
(207,0,l),
(207,41,ls),
(207,53,o),
(202,60,o),
(191,62,cs),
(116,78,l),
(105,0,l)
);
},
{
closed = 1;
nodes = (
(91,0,l),
(80,78,l),
(5,62,ls),
(-6,60,o),
(-11,53,o),
(-11,41,cs),
(-11,0,l)
);
},
{
closed = 1;
nodes = (
(466,792,ls),
(481,792,o),
(488,795,o),
(497,806,cs),
(614,935,l),
(527,935,ls),
(506,935,o),
(496,928,o),
(487,913,cs),
(413,792,l)
);
}
);
};
layerId = "BF33A826-8254-4501-9165-758AB68FE84B";
shapes = (
{
ref = AE;
},
{
pos = (322,210);
ref = acutecomb;
}
);
width = 952;
},
{
background = {
anchors = (
{
name = bottom;
pos = (465,0);
},
{
name = top;
pos = (465,729);
}
);
shapes = (
{
closed = 1;
nodes = (
(193,0,ls),
(197,0,o),
(194,15,o),
(204,37,c),
(408,503,ls),
(420,531,o),
(435,565,o),
(448,605,c),
(521,0,l),
(931,0,l),
(931,130,l),
(665,130,l),
(644,304,l),
(856,304,l),
(856,429,l),
(629,429,l),
(609,599,l),
(931,599,l),
(931,729,l),
(371,729,l),
(13,0,l)
);
},
{
closed = 1;
nodes = (
(553,190,l),
(543,305,l),
(217,305,l),
(207,190,l)
);
},
{
closed = 1;
nodes = (
(931,130,l),
(931,216,l),
(875,216,ls),
(852,216,o),
(842,201,o),
(837,177,cs),
(822,108,l)
);
},
{
closed = 1;
nodes = (
(837,552,ls),
(842,528,o),
(852,513,o),
(875,513,cs),
(931,513,l),
(931,599,l),
(822,621,l),
(822,621,l)
);
},
{
closed = 1;
nodes = (
(274,729,l),
(274,658,ls),
(274,635,o),
(289,625,o),
(313,620,cs),
(357,611,l),
(371,729,l)
);
},
{
closed = 1;
nodes = (
(522,0,l),
(508,118,l),
(464,109,ls),
(440,104,o),
(425,94,o),
(425,71,cs),
(425,0,l)
);
},
{
closed = 1;
nodes = (
(287,0,l),
(287,71,ls),
(287,94,o),
(272,104,o),
(248,109,cs),
(204,118,l),
(190,0,l)
);
},
{
closed = 1;
nodes = (
(86,0,l),
(72,118,l),
(28,109,ls),
(4,104,o),
(-11,94,o),
(-11,71,cs),
(-11,0,l)
);
},
{
closed = 1;
nodes = (
(473,794,ls),
(497,794,o),
(508,800,o),
(523,815,cs),
(653,947,l),
(503,947,ls),
(472,947,o),
(460,936,o),
(448,917,c),
(380,794,l)
);
}
);
};
layerId = "2C516476-8145-48E3-8501-3D313ADE77C9";
shapes = (
{
ref = AE;
},
{
pos = (336,210);
ref = acutecomb;
}
);
width = 964;
}
);
unicode = 508;
},
{
glyphname = B;
kernRight = B;
layers = (
{
anchors = (
{
name = bottom;
pos = (300,0);
},
{
name = top;
pos = (300,700);
}
);
background = {
anchors = (
{
name = bottom;
pos = (300,0);
},
{
name = top;
pos = (300,700);
}
);
shapes = (
{
closed = 1;
nodes = (
(333,0,ls),
(473,0,o),
(560,62,o),
(560,184,cs),
(560,286,o),
(482,349,o),
(367,357,c),
(457,368,o),
(527,441,o),
(527,526,cs),
(527,639,o),
(455,700,o),
(306,700,cs),
(124,700,l),
(124,0,l)
);
},
{
closed = 1;
nodes = (
(136,350,l),
(334,350,ls),
(460,350,o),
(548,290,o),
(548,184,cs),
(548,67,o),
(465,10,o),
(333,10,cs),
(136,10,l)
);
},
{
closed = 1;
nodes = (
(136,690,l),
(306,690,ls),
(449,690,o),
(516,630,o),
(516,526,cs),
(516,438,o),
(445,360,o),
(311,360,cs),
(136,360,l)
);
},
{
closed = 1;
nodes = (
(127,0,l),
(126,12,l),
(49,10,ls),
(46,10,o),
(42,8,o),
(42,5,cs),
(42,0,l)
);
},
{
closed = 1;
nodes = (
(42,700,l),
(42,695,ls),
(42,692,o),
(46,690,o),
(49,690,cs),
(126,688,l),
(127,700,l)
);
}
);
};
layerId = "A1468767-BE48-4A45-9F09-053256197B3B";
shapes = (
{
closed = 1;
nodes = (
(333,0,ls),
(473,0,o),
(560,62,o),
(560,184,cs),
(560,286,o),
(482,349,o),
(367,357,c),
(457,368,o),
(527,441,o),
(527,526,cs),
(527,639,o),
(455,700,o),
(306,700,cs),
(124,700,l),
(124,0,l)
);
},
{
closed = 1;
nodes = (
(136,350,l),
(334,350,ls),
(460,350,o),
(548,290,o),
(548,184,cs),
(548,67,o),
(465,10,o),
(333,10,cs),
(136,10,l)
);
},
{
closed = 1;
nodes = (
(136,690,l),
(306,690,ls),
(449,690,o),
(516,630,o),
(516,526,cs),
(516,438,o),
(445,360,o),
(311,360,cs),
(136,360,l)
);
},
{
pos = (124,0);
ref = SerifBottomLeft;
},
{
pos = (124,700);
ref = SerifSpurLeft;
}
);
userData = {
assembly = "PUSHW[ ]	/* 4 values pushed */
22 3 0 4 
CALL[ ]	/* CallFunction */
PUSHW[ ]	/* 4 values pushed */
5 3 40 4 
CALL[ ]	/* CallFunction */
PUSHW[ ]	/* 4 values pushed */
15 3 28 4 
CALL[ ]	/* CallFunction */
PUSHW[ ]	/* 3 values pushed */
10 0 15 
SRP1[ ]	/* SetRefPoint1 */
SRP2[ ]	/* SetRefPoint2 */
IP[ ]	/* InterpolatePts */
PUSHW[ ]	/* 1 value pushed */
22 
SRP0[ ]	/* SetRefPoint0 */
PUSHW[ ]	/* 1 value pushed */
34 
MDRP[10000]	/* MoveDirectRelPt */
PUSHW[ ]	/* 1 value pushed */
15 
SRP0[ ]	/* SetRefPoint0 */
PUSHW[ ]	/* 1 value pushed */
46 
MDRP[11100]	/* MoveDirectRelPt */
SVTCA[0]	/* SetFreedomAndProjectionVectorToAxis */
PUSHW[ ]	/* 1 value pushed */
0 
RCVT[ ]	/* ReadCVT */
IF[ ]	/* If */
PUSHW[ ]	/* 1 value pushed */
1 
MDAP[1]	/* MoveDirectAbsPt */
ELSE[ ]	/* Else */
PUSHW[ ]	/* 2 values pushed */
1 11 
MIAP[0]	/* MoveIndirectAbsPt */
EIF[ ]	/* EndIf */
PUSHW[ ]	/* 1 value pushed */
0 
RCVT[ ]	/* ReadCVT */
IF[ ]	/* If */
PUSHW[ ]	/* 1 value pushed */
0 
MDAP[1]	/* MoveDirectAbsPt */
ELSE[ ]	/* Else */
PUSHW[ ]	/* 2 values pushed */
0 5 
MIAP[0]	/* MoveIndirectAbsPt */
EIF[ ]	/* EndIf */
PUSHW[ ]	/* 4 values pushed */
34 1 21 4 
CALL[ ]	/* CallFunction */
PUSHW[ ]	/* 1 value pushed */
0 
SRP0[ ]	/* SetRefPoint0 */
PUSHW[ ]	/* 2 values pushed */
22 1 
MIRP[10100]	/* MoveIndirectRelPt */
PUSHW[ ]	/* 1 value pushed */
1 
SRP0[ ]	/* SetRefPoint0 */
PUSHW[ ]	/* 2 values pushed */
43 1 
MIRP[10100]	/* MoveIndirectRelPt */
IUP[0]	/* InterpolateUntPts */
IUP[1]	/* InterpolateUntPts */";
};
width = 600;
},
{
anchors = (
{
name = bottom;
pos = (343,0);
},
{
name = top;
pos = (343,749);
}
);
background = {
anchors = (
{
name = bottom;
pos = (343,0);
},
{
name = top;
pos = (343,749);
}
);
shapes = (
{
closed = 1;
nodes = (
(388,0,ls),
(554,0,o),
(661,87,o),
(661,220,cs),
(661,301,o),
(616,354,o),
(520,377,c),
(603,407,o),
(644,462,o),
(644,532,cs),
(644,678,o),
(533,729,o),
(365,729,cs),
(97,729,l),
(97,0,l)
);
},
{
closed = 1;
nodes = (
(266,309,l),
(384,309,ls),
(463,309,o),
(494,281,o),
(494,223,cs),
(494,169,o),
(466,128,o),
(385,128,cs),
(266,128,l)
);
},
{
closed = 1;
nodes = (
(266,602,l),
(365,602,ls),
(440,602,o),
(475,581,o),
(475,512,cs),
(475,441,o),
(431,422,o),
(354,422,cs),
(266,422,l)
);
},
{
closed = 1;
nodes = (
(117,0,l),
(103,118,l),
(59,109,ls),
(35,104,o),
(20,94,o),
(20,71,cs),
(20,0,l)
);
},
{
closed = 1;
nodes = (
(20,729,l),
(20,658,ls),
(20,635,o),
(35,625,o),
(59,620,cs),
(103,611,l),
(117,729,l)
);
}
);
};
layerId = "2C516476-8145-48E3-8501-3D313ADE77C9";
shapes = (
{
closed = 1;
nodes = (
(388,0,ls),
(554,0,o),
(661,87,o),
(661,220,cs),
(661,301,o),
(616,354,o),
(520,377,c),
(603,407,o),
(644,462,o),
(644,532,cs),
(644,678,o),
(533,729,o),
(365,729,cs),
(97,729,l),
(97,0,l)
);
},
{
closed = 1;
nodes = (
(266,309,l),
(384,309,ls),
(463,309,o),
(494,281,o),
(494,223,cs),
(494,169,o),
(466,128,o),
(385,128,cs),
(266,128,l)
);
},
{
closed = 1;
nodes = (
(266,602,l),
(365,602,ls),
(440,602,o),
(475,581,o),
(475,512,cs),
(475,441,o),
(431,422,o),
(354,422,cs),
(266,422,l)
);
},
{
pos = (97,0);
ref = SerifBottomLeft;
},
{
pos = (127,729);
ref = SerifSpurLeft;
}
);
userData = {
assembly = "NPUSHB[ ]	/* 22 values pushed */
21 21 0 0 46 44 36 34 21 33 21 32 24 22 0 20 0 19 3 1 8 7 
CALL[ ]	/* CallFunction */
MPPEM[ ]	/* MeasurePixelPerEm */
PUSHB[ ]	/* 1 value pushed */
94 
LT[ ]	/* LessThan */
IF[ ]	/* If */
NPUSHB[ ]	/* 44 values pushed */
12 1 3 4 1 30 0 4 7 1 3 2 4 3 1 0 38 0 5 5 0 1 0 36 0 0 0 11 31 0 2 2 1 1 0 36 6 1 1 1 12 1 32 6 
ELSE[ ]	/* Else */
NPUSHB[ ]	/* 51 values pushed */
12 1 3 4 1 30 0 0 0 5 4 0 5 1 0 38 0 4 7 1 3 2 4 3 1 0 38 0 2 1 1 2 1 0 35 0 2 2 1 1 0 36 6 1 1 2 1 1 0 33 6 
EIF[ ]	/* EndIf */
PUSHB[ ]	/* 1 value pushed */
56 
CALL[ ]	/* CallFunction */";
};
width = 685;
},
{
anchors = (
{
name = bottom;
pos = (320,0);
},
{
name = top;
pos = (320,737);
}
);
background = {
anchors = (
{
name = bottom;
pos = (320,0);
},
{
name = top;
pos = (320,737);
}
);
shapes = (
{
closed = 1;
nodes = (
(359,0,ls),
(512,0,o),
(610,78,o),
(610,204,cs),
(610,293,o),
(556,348,o),
(452,369,c),
(539,394,o),
(586,456,o),
(586,530,cs),
(586,654,o),
(499,717,o),
(334,717,cs),
(105,717,l),
(105,0,l)
);
},
{
closed = 1;
nodes = (
(202,327,l),
(357,327,ls),
(462,327,o),
(515,280,o),
(515,207,cs),
(515,125,o),
(461,77,o),
(357,77,cs),
(202,77,l)
);
},
{
closed = 1;
nodes = (
(202,640,l),
(334,640,ls),
(441,640,o),
(490,602,o),
(490,518,cs),
(490,441,o),
(432,396,o),
(330,396,cs),
(202,396,l)
);
},
{
closed = 1;
nodes = (
(135,0,l),
(124,78,l),
(49,62,ls),
(38,60,o),
(33,53,o),
(33,41,cs),
(33,0,l)
);
},
{
closed = 1;
nodes = (
(33,717,l),
(33,676,ls),
(33,664,o),
(38,657,o),
(49,655,cs),
(124,639,l),
(135,717,l)
);
}
);
};
layerId = "BF33A826-8254-4501-9165-758AB68FE84B";
shapes = (
{
closed = 1;
nodes = (
(359,0,ls),
(512,0,o),
(610,78,o),
(610,204,cs),
(610,293,o),
(556,348,o),
(452,369,c),
(539,394,o),
(586,456,o),
(586,530,cs),
(586,654,o),
(499,717,o),
(334,717,cs),
(105,717,l),
(105,0,l)
);
},
{
closed = 1;
nodes = (
(202,327,l),
(357,327,ls),
(462,327,o),
(515,280,o),
(515,207,cs),
(515,125,o),
(461,77,o),
(357,77,cs),
(202,77,l)
);
},
{
closed = 1;
nodes = (
(202,640,l),
(334,640,ls),
(441,640,o),
(490,602,o),
(490,518,cs),
(490,441,o),
(432,396,o),
(330,396,cs),
(202,396,l)
);
},
{
pos = (105,0);
ref = SerifBottomLeft;
},
{
pos = (105,717);
ref = SerifSpurLeft;
}
);
userData = {
assembly = "NPUSHB[ ]	/* 22 values pushed */
21 21 0 0 42 40 34 32 21 31 21 30 24 22 0 20 0 19 3 1 8 7 
CALL[ ]	/* CallFunction */
MPPEM[ ]	/* MeasurePixelPerEm */
PUSHB[ ]	/* 1 value pushed */
95 
LT[ ]	/* LessThan */
IF[ ]	/* If */
NPUSHB[ ]	/* 44 values pushed */
12 1 3 4 1 30 0 4 7 1 3 2 4 3 1 0 38 0 5 5 0 1 0 36 0 0 0 11 31 0 2 2 1 1 0 36 6 1 1 1 12 1 32 6 
ELSE[ ]	/* Else */
MPPEM[ ]	/* MeasurePixelPerEm */
PUSHB[ ]	/* 1 value pushed */
108 
LT[ ]	/* LessThan */
IF[ ]	/* If */
NPUSHB[ ]	/* 42 values pushed */
12 1 3 4 1 30 0 0 0 5 4 0 5 1 0 38 0 4 7 1 3 2 4 3 1 0 38 0 2 2 1 1 0 36 6 1 1 1 15 1 32 5 
ELSE[ ]	/* Else */
NPUSHB[ ]	/* 51 values pushed */
12 1 3 4 1 30 0 0 0 5 4 0 5 1 0 38 0 4 7 1 3 2 4 3 1 0 38 0 2 1 1 2 1 0 35 0 2 2 1 1 0 36 6 1 1 2 1 1 0 33 6 
EIF[ ]	/* EndIf */
EIF[ ]	/* EndIf */
PUSHB[ ]	/* 1 value pushed */
56 
CALL[ ]	/* CallFunction */";
};
width = 640;
}
);
metricLeft = H;
note = B;
unicode = 66;
},
{
glyphname = Bdotbelow;
layers = (
{
background = {
anchors = (
{
name = bottom;
pos = (300,-164);
},
{
name = top;
pos = (300,700);
}
);
shapes = (
{
closed = 1;
nodes = (
(333,0,ls),
(473,0,o),
(560,62,o),
(560,184,cs),
(560,286,o),
(482,349,o),
(367,357,c),
(457,368,o),
(527,441,o),
(527,526,cs),
(527,639,o),
(455,700,o),
(306,700,cs),
(124,700,l),
(124,0,l)
);
},
{
closed = 1;
nodes = (
(136,350,l),
(334,350,ls),
(460,350,o),
(548,290,o),
(548,184,cs),
(548,67,o),
(465,10,o),
(333,10,cs),
(136,10,l)
);
},
{
closed = 1;
nodes = (
(136,690,l),
(306,690,ls),
(449,690,o),
(516,630,o),
(516,526,cs),
(516,438,o),
(445,360,o),
(311,360,cs),
(136,360,l)
);
},
{
closed = 1;
nodes = (
(127,0,l),
(126,12,l),
(49,10,ls),
(46,10,o),
(42,8,o),
(42,5,cs),
(42,0,l)
);
},
{
closed = 1;
nodes = (
(42,700,l),
(42,695,ls),
(42,692,o),
(46,690,o),
(49,690,cs),
(126,688,l),
(127,700,l)
);
},
{
closed = 1;
nodes = (
(315,-164,o),
(328,-150,o),
(328,-137,cs),
(328,-121,o),
(315,-109,o),
(300,-109,cs),
(285,-109,o),
(272,-121,o),
(272,-137,cs),
(272,-150,o),
(285,-164,o),
(300,-164,cs)
);
}
);
};
layerId = "A1468767-BE48-4A45-9F09-053256197B3B";
shapes = (
{
ref = B;
},
{
pos = (262,0);
ref = dotbelowcomb;
}
);
width = 600;
},
{
background = {
anchors = (
{
name = bottom;
pos = (320,-181);
},
{
name = top;
pos = (320,737);
}
);
shapes = (
{
closed = 1;
nodes = (
(359,0,ls),
(512,0,o),
(610,78,o),
(610,204,cs),
(610,293,o),
(556,348,o),
(452,369,c),
(539,394,o),
(586,456,o),
(586,530,cs),
(586,654,o),
(499,717,o),
(334,717,cs),
(105,717,l),
(105,0,l)
);
},
{
closed = 1;
nodes = (
(202,327,l),
(357,327,ls),
(462,327,o),
(515,280,o),
(515,207,cs),
(515,125,o),
(461,77,o),
(357,77,cs),
(202,77,l)
);
},
{
closed = 1;
nodes = (
(202,640,l),
(334,640,ls),
(441,640,o),
(490,602,o),
(490,518,cs),
(490,441,o),
(432,396,o),
(330,396,cs),
(202,396,l)
);
},
{
closed = 1;
nodes = (
(135,0,l),
(124,78,l),
(49,62,ls),
(38,60,o),
(33,53,o),
(33,41,cs),
(33,0,l)
);
},
{
closed = 1;
nodes = (
(33,717,l),
(33,676,ls),
(33,664,o),
(38,657,o),
(49,655,cs),
(124,639,l),
(135,717,l)
);
},
{
closed = 1;
nodes = (
(351,-181,o),
(377,-156,o),
(377,-124,cs),
(377,-92,o),
(351,-66,o),
(320,-67,cs),
(288,-68,o),
(263,-92,o),
(263,-124,cs),
(263,-156,o),
(288,-181,o),
(320,-181,cs)
);
}
);
};
layerId = "BF33A826-8254-4501-9165-758AB68FE84B";
shapes = (
{
ref = B;
},
{
pos = (253,0);
ref = dotbelowcomb;
}
);
width = 640;
},
{
background = {
anchors = (
{
name = bottom;
pos = (343,-194);
},
{
name = top;
pos = (343,749);
}
);
shapes = (
{
closed = 1;
nodes = (
(388,0,ls),
(554,0,o),
(661,87,o),
(661,220,cs),
(661,301,o),
(616,354,o),
(520,377,c),
(603,407,o),
(644,462,o),
(644,532,cs),
(644,678,o),
(533,729,o),
(365,729,cs),
(97,729,l),
(97,0,l)
);
},
{
closed = 1;
nodes = (
(266,309,l),
(384,309,ls),
(463,309,o),
(494,281,o),
(494,223,cs),
(494,169,o),
(466,128,o),
(385,128,cs),
(266,128,l)
);
},
{
closed = 1;
nodes = (
(266,602,l),
(365,602,ls),
(440,602,o),
(475,581,o),
(475,512,cs),
(475,441,o),
(431,422,o),
(354,422,cs),
(266,422,l)
);
},
{
closed = 1;
nodes = (
(117,0,l),
(103,118,l),
(59,109,ls),
(35,104,o),
(20,94,o),
(20,71,cs),
(20,0,l)
);
},
{
closed = 1;
nodes = (
(20,729,l),
(20,658,ls),
(20,635,o),
(35,625,o),
(59,620,cs),
(103,611,l),
(117,729,l)
);
},
{
closed = 1;
nodes = (
(387,-194,o),
(424,-158,o),
(424,-115,cs),
(424,-72,o),
(387,-36,o),
(341,-36,cs),
(298,-36,o),
(261,-73,o),
(261,-115,cs),
(261,-157,o),
(298,-194,o),
(341,-194,cs)
);
}
);
};
layerId = "2C516476-8145-48E3-8501-3D313ADE77C9";
shapes = (
{
ref = B;
},
{
pos = (251,0);
ref = dotbelowcomb;
}
);
width = 685;
}
);
unicode = 7684;
},
{
glyphname = Bhook;
layers = (
{
anchors = (
{
name = bottom;
pos = (412,0);
},
{
name = top;
pos = (412,700);
}
);
background = {
anchors = (
{
name = bottom;
pos = (412,0);
},
{
name = top;
pos = (412,700);
}
);
shapes = (
{
closed = 1;
nodes = (
(445,0,ls),
(585,0,o),
(672,62,o),
(672,184,cs),
(672,286,o),
(594,349,o),
(479,357,c),
(569,368,o),
(639,441,o),
(639,526,cs),
(639,639,o),
(567,700,o),
(418,700,cs),
(236,700,l),
(236,0,l)
);
},
{
closed = 1;
nodes = (
(248,350,l),
(446,350,ls),
(572,350,o),
(660,290,o),
(660,184,cs),
(660,67,o),
(577,10,o),
(445,10,cs),
(248,10,l)
);
},
{
closed = 1;
nodes = (
(248,690,l),
(418,690,ls),
(561,690,o),
(628,630,o),
(628,526,cs),
(628,438,o),
(557,360,o),
(423,360,cs),
(248,360,l)
);
},
{
closed = 1;
nodes = (
(239,0,l),
(238,12,l),
(161,10,ls),
(158,10,o),
(154,8,o),
(154,5,cs),
(154,0,l)
);
},
{
closed = 1;
nodes = (
(55,502,ls),
(60,503,o),
(60,507,o),
(58,512,cs),
(50,532,o),
(48,551,o),
(48,568,cs),
(48,644,o),
(101,690,o),
(208,690,cs),
(236,690,l),
(236,700,l),
(208,700,ls),
(103,700,o),
(38,654,o),
(38,568,cs),
(38,547,o),
(42,525,o),
(51,501,c)
);
}
);
};
layerId = "A1468767-BE48-4A45-9F09-053256197B3B";
shapes = (
{
closed = 1;
nodes = (
(445,0,ls),
(585,0,o),
(672,62,o),
(672,184,cs),
(672,286,o),
(594,349,o),
(479,357,c),
(569,368,o),
(639,441,o),
(639,526,cs),
(639,639,o),
(567,700,o),
(418,700,cs),
(236,700,l),
(236,0,l)
);
},
{
closed = 1;
nodes = (
(248,350,l),
(446,350,ls),
(572,350,o),
(660,290,o),
(660,184,cs),
(660,67,o),
(577,10,o),
(445,10,cs),
(248,10,l)
);
},
{
closed = 1;
nodes = (
(248,690,l),
(418,690,ls),
(561,690,o),
(628,630,o),
(628,526,cs),
(628,438,o),
(557,360,o),
(423,360,cs),
(248,360,l)
);
},
{
pos = (236,0);
ref = SerifBottomLeft;
},
{
ref = hookleft_caps_part;
}
);
width = 712;
},
{
anchors = (
{
name = bottom;
pos = (456,0);
},
{
name = top;
pos = (456,737);
}
);
background = {
anchors = (
{
name = bottom;
pos = (456,0);
},
{
name = top;
pos = (456,737);
}
);
shapes = (
{
closed = 1;
nodes = (
(495,0,ls),
(648,0,o),
(746,78,o),
(746,204,cs),
(746,293,o),
(692,348,o),
(588,369,c),
(675,394,o),
(722,456,o),
(722,530,cs),
(722,654,o),
(635,717,o),
(470,717,cs),
(241,717,l),
(241,0,l)
);
},
{
closed = 1;
nodes = (
(338,327,l),
(493,327,ls),
(598,327,o),
(651,280,o),
(651,207,cs),
(651,125,o),
(597,77,o),
(493,77,cs),
(338,77,l)
);
},
{
closed = 1;
nodes = (
(338,640,l),
(470,640,ls),
(577,640,o),
(626,602,o),
(626,518,cs),
(626,441,o),
(568,396,o),
(466,396,cs),
(338,396,l)
);
},
{
closed = 1;
nodes = (
(271,0,l),
(260,78,l),
(185,62,ls),
(174,60,o),
(169,53,o),
(169,41,cs),
(169,0,l)
);
},
{
closed = 1;
nodes = (
(96,472,ls),
(113,476,o),
(118,489,o),
(113,504,cs),
(109,515,o),
(105,532,o),
(105,549,cs),
(105,610,o),
(142,645,o),
(227,645,cs),
(241,645,l),
(241,717,l),
(227,717,ls),
(102,717,o),
(23,655,o),
(23,550,cs),
(23,517,o),
(31,491,o),
(41,460,c)
);
}
);
};
layerId = "BF33A826-8254-4501-9165-758AB68FE84B";
shapes = (
{
closed = 1;
nodes = (
(495,0,ls),
(648,0,o),
(746,78,o),
(746,204,cs),
(746,293,o),
(692,348,o),
(588,369,c),
(675,394,o),
(722,456,o),
(722,530,cs),
(722,654,o),
(635,717,o),
(470,717,cs),
(241,717,l),
(241,0,l)
);
},
{
closed = 1;
nodes = (
(338,327,l),
(493,327,ls),
(598,327,o),
(651,280,o),
(651,207,cs),
(651,125,o),
(597,77,o),
(493,77,cs),
(338,77,l)
);
},
{
closed = 1;
nodes = (
(338,640,l),
(470,640,ls),
(577,640,o),
(626,602,o),
(626,518,cs),
(626,441,o),
(568,396,o),
(466,396,cs),
(338,396,l)
);
},
{
pos = (241,0);
ref = SerifBottomLeft;
},
{
ref = hookleft_caps_part;
}
);
width = 776;
},
{
anchors = (
{
name = bottom;
pos = (492,0);
},
{
name = top;
pos = (492,749);
}
);
background = {
anchors = (
{
name = bottom;
pos = (492,0);
},
{
name = top;
pos = (492,749);
}
);
shapes = (
{
closed = 1;
nodes = (
(537,0,ls),
(703,0,o),
(810,87,o),
(810,220,cs),
(810,301,o),
(765,354,o),
(669,377,c),
(752,407,o),
(793,462,o),
(793,532,cs),
(793,678,o),
(682,729,o),
(514,729,cs),
(246,729,l),
(246,0,l)
);
},
{
closed = 1;
nodes = (
(415,309,l),
(533,309,ls),
(612,309,o),
(643,281,o),
(643,223,cs),
(643,169,o),
(615,128,o),
(534,128,cs),
(415,128,l)
);
},
{
closed = 1;
nodes = (
(415,602,l),
(514,602,ls),
(589,602,o),
(624,581,o),
(624,512,cs),
(624,441,o),
(580,422,o),
(503,422,cs),
(415,422,l)
);
},
{
closed = 1;
nodes = (
(266,0,l),
(252,118,l),
(208,109,ls),
(184,104,o),
(169,94,o),
(169,71,cs),
(169,0,l)
);
},
{
closed = 1;
nodes = (
(131,450,ls),
(158,456,o),
(165,475,o),
(159,497,cs),
(157,502,o),
(154,518,o),
(154,535,cs),
(154,588,o),
(179,611,o),
(244,611,cs),
(246,611,l),
(246,729,l),
(244,729,ls),
(101,729,o),
(11,657,o),
(11,536,cs),
(11,495,o),
(18,465,o),
(33,429,c)
);
}
);
};
layerId = "2C516476-8145-48E3-8501-3D313ADE77C9";
shapes = (
{
closed = 1;
nodes = (
(537,0,ls),
(703,0,o),
(810,87,o),
(810,220,cs),
(810,301,o),
(765,354,o),
(669,377,c),
(752,407,o),
(793,462,o),
(793,532,cs),
(793,678,o),
(682,729,o),
(514,729,cs),
(246,729,l),
(246,0,l)
);
},
{
closed = 1;
nodes = (
(415,309,l),
(533,309,ls),
(612,309,o),
(643,281,o),
(643,223,cs),
(643,169,o),
(615,128,o),
(534,128,cs),
(415,128,l)
);
},
{
closed = 1;
nodes = (
(415,602,l),
(514,602,ls),
(589,602,o),
(624,581,o),
(624,512,cs),
(624,441,o),
(580,422,o),
(503,422,cs),
(415,422,l)
);
},
{
pos = (246,0);
ref = SerifBottomLeft;
},
{
ref = hookleft_caps_part;
}
);
width = 834;
}
);
metricRight = B;
unicode = 385;
},
{
glyphname = Bstroke;
layers = (
{
background = {
anchors = (
{
name = bottom;
pos = (300,0);
},
{
name = top;
pos = (300,700);
}
);
shapes = (
{
closed = 1;
nodes = (
(333,0,ls),
(473,0,o),
(560,62,o),
(560,184,cs),
(560,286,o),
(482,349,o),
(367,357,c),
(457,368,o),
(527,441,o),
(527,526,cs),
(527,639,o),
(455,700,o),
(306,700,cs),
(124,700,l),
(124,0,l)
);
},
{
closed = 1;
nodes = (
(136,350,l),
(334,350,ls),
(460,350,o),
(548,290,o),
(548,184,cs),
(548,67,o),
(465,10,o),
(333,10,cs),
(136,10,l)
);
},
{
closed = 1;
nodes = (
(136,690,l),
(306,690,ls),
(449,690,o),
(516,630,o),
(516,526,cs),
(516,438,o),
(445,360,o),
(311,360,cs),
(136,360,l)
);
},
{
closed = 1;
nodes = (
(127,0,l),
(126,12,l),
(49,10,ls),
(46,10,o),
(42,8,o),
(42,5,cs),
(42,0,l)
);
},
{
closed = 1;
nodes = (
(42,700,l),
(42,695,ls),
(42,692,o),
(46,690,o),
(49,690,cs),
(126,688,l),
(127,700,l)
);
},
{
closed = 1;
nodes = (
(286,205,l),
(286,215,l),
(26,215,l),
(26,205,l)
);
}
);
};
layerId = "A1468767-BE48-4A45-9F09-053256197B3B";
shapes = (
{
ref = B;
},
{
pos = (16,-430);
ref = strokeshortcomb;
}
);
width = 600;
},
{
background = {
anchors = (
{
name = bottom;
pos = (320,0);
},
{
name = top;
pos = (320,737);
}
);
shapes = (
{
closed = 1;
nodes = (
(359,0,ls),
(512,0,o),
(610,78,o),
(610,204,cs),
(610,293,o),
(556,348,o),
(452,369,c),
(539,394,o),
(586,456,o),
(586,530,cs),
(586,654,o),
(499,717,o),
(334,717,cs),
(105,717,l),
(105,0,l)
);
},
{
closed = 1;
nodes = (
(202,327,l),
(357,327,ls),
(462,327,o),
(515,280,o),
(515,207,cs),
(515,125,o),
(461,77,o),
(357,77,cs),
(202,77,l)
);
},
{
closed = 1;
nodes = (
(202,640,l),
(334,640,ls),
(441,640,o),
(490,602,o),
(490,518,cs),
(490,441,o),
(432,396,o),
(330,396,cs),
(202,396,l)
);
},
{
closed = 1;
nodes = (
(135,0,l),
(124,78,l),
(49,62,ls),
(38,60,o),
(33,53,o),
(33,41,cs),
(33,0,l)
);
},
{
closed = 1;
nodes = (
(33,717,l),
(33,676,ls),
(33,664,o),
(38,657,o),
(49,655,cs),
(124,639,l),
(135,717,l)
);
},
{
closed = 1;
nodes = (
(312,182,l),
(312,240,l),
(25,240,l),
(25,182,l)
);
}
);
};
layerId = "BF33A826-8254-4501-9165-758AB68FE84B";
shapes = (
{
ref = B;
},
{
pos = (18,-434);
ref = strokeshortcomb;
}
);
width = 640;
},
{
background = {
anchors = (
{
name = bottom;
pos = (343,0);
},
{
name = top;
pos = (343,749);
}
);
shapes = (
{
closed = 1;
nodes = (
(388,0,ls),
(554,0,o),
(661,87,o),
(661,220,cs),
(661,301,o),
(616,354,o),
(520,377,c),
(603,407,o),
(644,462,o),
(644,532,cs),
(644,678,o),
(533,729,o),
(365,729,cs),
(97,729,l),
(97,0,l)
);
},
{
closed = 1;
nodes = (
(266,309,l),
(384,309,ls),
(463,309,o),
(494,281,o),
(494,223,cs),
(494,169,o),
(466,128,o),
(385,128,cs),
(266,128,l)
);
},
{
closed = 1;
nodes = (
(266,602,l),
(365,602,ls),
(440,602,o),
(475,581,o),
(475,512,cs),
(475,441,o),
(431,422,o),
(354,422,cs),
(266,422,l)
);
},
{
closed = 1;
nodes = (
(117,0,l),
(103,118,l),
(59,109,ls),
(35,104,o),
(20,94,o),
(20,71,cs),
(20,0,l)
);
},
{
closed = 1;
nodes = (
(20,729,l),
(20,658,ls),
(20,635,o),
(35,625,o),
(59,620,cs),
(103,611,l),
(117,729,l)
);
},
{
closed = 1;
nodes = (
(343,177,l),
(343,261,l),
(33,261,l),
(33,177,l)
);
}
);
};
layerId = "2C516476-8145-48E3-8501-3D313ADE77C9";
shapes = (
{
ref = B;
},
{
pos = (23,-428);
ref = strokeshortcomb;
}
);
width = 685;
}
);
unicode = (579,384);
},
{
glyphname = C;
kernLeft = C;
layers = (
{
anchors = (
{
name = bottom;
pos = (373,0);
},
{
name = top;
pos = (373,700);
}
);
background = {
anchors = (
{
name = bottom;
pos = (373,0);
},
{
name = top;
pos = (373,700);
}
);
shapes = (
{
closed = 1;
nodes = (
(476,-8,o),
(553,29,o),
(616,89,c),
(612,93,ls),
(611,94,o),
(610,95,o),
(609,95,cs),
(607,95,o),
(606,94,o),
(604,92,cs),
(555,43,o),
(478,2,o),
(373,2,cs),
(176,2,o),
(55,148,o),
(55,350,cs),
(55,553,o),
(175,698,o),
(388,698,cs),
(478,698,o),
(560,672,o),
(604,640,c),
(613,639,l),
(613,645,l),
(571,683,o),
(475,708,o),
(384,708,cs),
(276,708,o),
(195,673,o),
(136,610,cs),
(77,546,o),
(43,457,o),
(43,350,cs),
(43,239,o),
(78,151,o),
(136,89,cs),
(194,27,o),
(273,-8,o),
(373,-8,cs)
);
},
{
closed = 1;
nodes = (
(602,552,ls),
(602,549,o),
(604,545,o),
(607,545,cs),
(613,545,l),
(613,639,l),
(599,645,l),
(599,645,l)
);
}
);
};
layerId = "A1468767-BE48-4A45-9F09-053256197B3B";
shapes = (
{
closed = 1;
nodes = (
(476,-8,o),
(553,29,o),
(616,89,c),
(612,93,ls),
(611,94,o),
(610,95,o),
(609,95,cs),
(607,95,o),
(606,94,o),
(604,92,cs),
(555,43,o),
(478,2,o),
(373,2,cs),
(176,2,o),
(55,148,o),
(55,350,cs),
(55,553,o),
(175,698,o),
(388,698,cs),
(478,698,o),
(560,672,o),
(604,640,c),
(613,639,l),
(613,645,l),
(571,683,o),
(475,708,o),
(384,708,cs),
(276,708,o),
(195,673,o),
(136,610,cs),
(77,546,o),
(43,457,o),
(43,350,cs),
(43,239,o),
(78,151,o),
(136,89,cs),
(194,27,o),
(273,-8,o),
(373,-8,cs)
);
},
{
angle = 180;
pos = (613,639);
ref = SerifUpRightCaps;
}
);
userData = {
assembly = "PUSHW[ ]	/* 4 values pushed */
38 3 13 4 
CALL[ ]	/* CallFunction */
SVTCA[0]	/* SetFreedomAndProjectionVectorToAxis */
PUSHW[ ]	/* 1 value pushed */
0 
RCVT[ ]	/* ReadCVT */
IF[ ]	/* If */
PUSHW[ ]	/* 1 value pushed */
18 
MDAP[1]	/* MoveDirectAbsPt */
ELSE[ ]	/* Else */
PUSHW[ ]	/* 2 values pushed */
18 11 
MIAP[0]	/* MoveIndirectAbsPt */
EIF[ ]	/* EndIf */
PUSHW[ ]	/* 1 value pushed */
0 
RCVT[ ]	/* ReadCVT */
IF[ ]	/* If */
PUSHW[ ]	/* 1 value pushed */
8 
MDAP[1]	/* MoveDirectAbsPt */
ELSE[ ]	/* Else */
PUSHW[ ]	/* 2 values pushed */
8 5 
MIAP[0]	/* MoveIndirectAbsPt */
EIF[ ]	/* EndIf */
PUSHW[ ]	/* 4 values pushed */
23 2 26 4 
CALL[ ]	/* CallFunction */
PUSHW[ ]	/* 1 value pushed */
18 
SRP0[ ]	/* SetRefPoint0 */
PUSHW[ ]	/* 2 values pushed */
33 1 
MIRP[10100]	/* MoveIndirectRelPt */
PUSHW[ ]	/* 1 value pushed */
8 
SRP0[ ]	/* SetRefPoint0 */
PUSHW[ ]	/* 2 values pushed */
43 1 
MIRP[10100]	/* MoveIndirectRelPt */
IUP[0]	/* InterpolateUntPts */
IUP[1]	/* InterpolateUntPts */";
};
width = 658;
},
{
anchors = (
{
name = bottom;
pos = (379,0);
},
{
name = top;
pos = (369,729);
}
);
background = {
anchors = (
{
name = bottom;
pos = (379,0);
},
{
name = top;
pos = (369,729);
}
);
shapes = (
{
closed = 1;
nodes = (
(487,-8,o),
(578,31,o),
(637,108,c),
(570,179,ls),
(563,186,o),
(555,189,o),
(547,189,cs),
(536,189,o),
(526,183,o),
(519,177,cs),
(482,145,o),
(438,131,o),
(390,131,cs),
(263,131,o),
(188,227,o),
(188,365,cs),
(188,504,o),
(265,597,o),
(406,597,cs),
(455,597,o),
(525,586,o),
(564,561,c),
(630,578,l),
(630,679,l),
(577,707,o),
(496,738,o),
(398,738,cs),
(289,738,o),
(189,699,o),
(121,632,cs),
(54,567,o),
(15,473,o),
(15,362,cs),
(15,254,o),
(52,159,o),
(114,94,cs),
(173,32,o),
(260,-8,o),
(374,-8,cs)
);
},
{
closed = 1;
nodes = (
(536,531,ls),
(541,507,o),
(551,492,o),
(574,492,cs),
(630,492,l),
(630,578,l),
(521,600,l),
(521,600,l)
);
}
);
};
layerId = "2C516476-8145-48E3-8501-3D313ADE77C9";
shapes = (
{
closed = 1;
nodes = (
(487,-8,o),
(578,31,o),
(637,108,c),
(570,179,ls),
(563,186,o),
(555,189,o),
(547,189,cs),
(536,189,o),
(526,183,o),
(519,177,cs),
(482,145,o),
(438,131,o),
(390,131,cs),
(263,131,o),
(188,227,o),
(188,365,cs),
(188,504,o),
(265,597,o),
(406,597,cs),
(455,597,o),
(525,586,o),
(564,561,c),
(630,578,l),
(630,679,l),
(577,707,o),
(496,738,o),
(398,738,cs),
(289,738,o),
(189,699,o),
(121,632,cs),
(54,567,o),
(15,473,o),
(15,362,cs),
(15,254,o),
(52,159,o),
(114,94,cs),
(173,32,o),
(260,-8,o),
(374,-8,cs)
);
},
{
angle = 180;
pos = (630,578);
ref = SerifUpRightCaps;
}
);
userData = {
assembly = "NPUSHB[ ]	/* 18 values pushed */
1 0 44 42 34 32 27 25 18 16 8 6 0 50 1 50 7 7 
CALL[ ]	/* CallFunction */
MPPEM[ ]	/* MeasurePixelPerEm */
PUSHB[ ]	/* 1 value pushed */
94 
LT[ ]	/* LessThan */
IF[ ]	/* If */
NPUSHB[ ]	/* 52 values pushed */
22 1 4 2 4 1 1 5 2 30 0 3 4 0 4 3 0 50 6 1 0 5 4 0 5 48 0 4 4 2 1 0 36 0 2 2 17 31 0 5 5 1 1 0 36 0 1 1 18 1 32 7 
ELSE[ ]	/* Else */
NPUSHB[ ]	/* 59 values pushed */
22 1 4 2 4 1 1 5 2 30 0 3 4 0 4 3 0 50 6 1 0 5 4 0 5 48 0 2 0 4 3 2 4 1 0 38 0 5 1 1 5 1 0 35 0 5 5 1 1 0 36 0 1 5 1 1 0 33 7 
EIF[ ]	/* EndIf */
PUSHB[ ]	/* 1 value pushed */
56 
CALL[ ]	/* CallFunction */";
};
width = 668;
},
{
anchors = (
{
name = bottom;
pos = (376,0);
},
{
name = top;
pos = (370,717);
}
);
background = {
anchors = (
{
name = bottom;
pos = (376,0);
},
{
name = top;
pos = (370,717);
}
);
shapes = (
{
closed = 1;
nodes = (
(495,-8,o),
(577,38,o),
(630,100,c),
(592,142,ls),
(587,147,o),
(582,148,o),
(578,148,cs),
(572,148,o),
(567,146,o),
(561,141,cs),
(508,93,o),
(454,76,o),
(390,76,cs),
(217,76,o),
(129,198,o),
(129,356,cs),
(129,527,o),
(233,641,o),
(393,641,cs),
(451,641,o),
(502,626,o),
(544,612,c),
(614,599,l),
(614,672,l),
(537,701,o),
(467,725,o),
(386,725,cs),
(283,725,o),
(194,687,o),
(130,622,cs),
(67,558,o),
(30,466,o),
(30,356,cs),
(30,261,o),
(58,169,o),
(118,100,cs),
(180,29,o),
(269,-8,o),
(376,-8,cs)
);
},
{
closed = 1;
nodes = (
(547,524,ls),
(549,512,o),
(557,508,o),
(568,508,cs),
(614,508,l),
(614,599,l),
(532,624,l),
(532,624,l)
);
}
);
};
layerId = "BF33A826-8254-4501-9165-758AB68FE84B";
shapes = (
{
closed = 1;
nodes = (
(495,-8,o),
(577,38,o),
(630,100,c),
(592,142,ls),
(587,147,o),
(582,148,o),
(578,148,cs),
(572,148,o),
(567,146,o),
(561,141,cs),
(508,93,o),
(454,76,o),
(390,76,cs),
(217,76,o),
(129,198,o),
(129,356,cs),
(129,527,o),
(233,641,o),
(393,641,cs),
(451,641,o),
(502,626,o),
(544,612,c),
(614,599,l),
(614,672,l),
(537,701,o),
(467,725,o),
(386,725,cs),
(283,725,o),
(194,687,o),
(130,622,cs),
(67,558,o),
(30,466,o),
(30,356,cs),
(30,261,o),
(58,169,o),
(118,100,cs),
(180,29,o),
(269,-8,o),
(376,-8,cs)
);
},
{
angle = 180;
pos = (614,599);
ref = SerifUpRightCaps;
}
);
userData = {
assembly = "NPUSHB[ ]	/* 18 values pushed */
1 0 41 39 31 29 24 22 17 15 7 5 0 46 1 46 7 7 
CALL[ ]	/* CallFunction */
MPPEM[ ]	/* MeasurePixelPerEm */
PUSHB[ ]	/* 1 value pushed */
95 
LT[ ]	/* LessThan */
IF[ ]	/* If */
NPUSHB[ ]	/* 52 values pushed */
19 1 3 4 3 1 5 0 2 30 0 3 4 0 4 3 0 50 6 1 0 5 4 0 5 48 0 4 4 2 1 0 36 0 2 2 17 31 0 5 5 1 1 0 36 0 1 1 18 1 32 7 
ELSE[ ]	/* Else */
MPPEM[ ]	/* MeasurePixelPerEm */
PUSHB[ ]	/* 1 value pushed */
108 
LT[ ]	/* LessThan */
IF[ ]	/* If */
NPUSHB[ ]	/* 50 values pushed */
19 1 3 4 3 1 5 0 2 30 0 3 4 0 4 3 0 50 6 1 0 5 4 0 5 48 0 2 0 4 3 2 4 1 0 38 0 5 5 1 1 0 36 0 1 1 21 1 32 6 
ELSE[ ]	/* Else */
NPUSHB[ ]	/* 59 values pushed */
19 1 3 4 3 1 5 0 2 30 0 3 4 0 4 3 0 50 6 1 0 5 4 0 5 48 0 2 0 4 3 2 4 1 0 38 0 5 1 1 5 1 0 35 0 5 5 1 1 0 36 0 1 5 1 1 0 33 7 
EIF[ ]	/* EndIf */
EIF[ ]	/* EndIf */
PUSHB[ ]	/* 1 value pushed */
56 
CALL[ ]	/* CallFunction */";
};
width = 669;
},
{
associatedMasterId = "A1468767-BE48-4A45-9F09-053256197B3B";
layerId = "F1F24019-78CA-4986-A76E-5F267CDC180B";
name = "Jan 15 23, 17:19";
shapes = (
{
closed = 1;
nodes = (
(536,699,o),
(460,715,o),
(394,715,cs),
(188,715,o),
(48,569,o),
(48,354,cs),
(48,146,o),
(177,-8,o),
(380,-8,cs),
(479,-8,o),
(566,24,o),
(633,94,c),
(613,115,ls),
(607,121,o),
(601,119,o),
(595,114,c),
(534,58,o),
(469,36,o),
(384,36,cs),
(211,36,o),
(101,166,o),
(101,354,cs),
(101,539,o),
(213,671,o),
(394,671,cs),
(460,671,o),
(523,657,o),
(603,624,c),
(620,665,l)
);
},
{
closed = 1;
nodes = (
(569,641,l),
(574,531,l),
(575,515,o),
(582,507,o),
(596,507,cs),
(620,507,l),
(620,665,l)
);
}
);
userData = {
assembly = "PUSHW[ ]	/* 4 values pushed */
38 3 13 4 
CALL[ ]	/* CallFunction */
SVTCA[0]	/* SetFreedomAndProjectionVectorToAxis */
PUSHW[ ]	/* 1 value pushed */
0 
RCVT[ ]	/* ReadCVT */
IF[ ]	/* If */
PUSHW[ ]	/* 1 value pushed */
18 
MDAP[1]	/* MoveDirectAbsPt */
ELSE[ ]	/* Else */
PUSHW[ ]	/* 2 values pushed */
18 11 
MIAP[0]	/* MoveIndirectAbsPt */
EIF[ ]	/* EndIf */
PUSHW[ ]	/* 1 value pushed */
0 
RCVT[ ]	/* ReadCVT */
IF[ ]	/* If */
PUSHW[ ]	/* 1 value pushed */
8 
MDAP[1]	/* MoveDirectAbsPt */
ELSE[ ]	/* Else */
PUSHW[ ]	/* 2 values pushed */
8 5 
MIAP[0]	/* MoveIndirectAbsPt */
EIF[ ]	/* EndIf */
PUSHW[ ]	/* 4 values pushed */
23 2 26 4 
CALL[ ]	/* CallFunction */
PUSHW[ ]	/* 1 value pushed */
18 
SRP0[ ]	/* SetRefPoint0 */
PUSHW[ ]	/* 2 values pushed */
33 1 
MIRP[10100]	/* MoveIndirectRelPt */
PUSHW[ ]	/* 1 value pushed */
8 
SRP0[ ]	/* SetRefPoint0 */
PUSHW[ ]	/* 2 values pushed */
43 1 
MIRP[10100]	/* MoveIndirectRelPt */
IUP[0]	/* InterpolateUntPts */
IUP[1]	/* InterpolateUntPts */";
};
width = 719;
},
{
associatedMasterId = "BF33A826-8254-4501-9165-758AB68FE84B";
layerId = "A1B57D67-26C3-497C-94A8-57CB27341161";
name = "Jan 15 23, 17:20";
shapes = (
{
closed = 1;
nodes = (
(537,708,o),
(464,725,o),
(409,724,c),
(299,724,o),
(209,690,o),
(143,622,cs),
(77,554,o),
(43,466,o),
(43,358,cs),
(43,149,o),
(172,-8,o),
(385,-8,cs),
(495,-8,o),
(581,28,o),
(643,100,c),
(605,142,l),
(598,149,o),
(587,152,o),
(573,140,c),
(520,91,o),
(464,76,o),
(390,76,cs),
(238,76,o),
(141,192,o),
(141,358,cs),
(141,444,o),
(166,513,o),
(214,565,cs),
(290,645,o),
(401,662,o),
(551,614,c),
(559,524,l),
(561,512,o),
(569,506,o),
(581,506,cs),
(629,506,l),
(629,674,l)
);
}
);
userData = {
assembly = "NPUSHB[ ]	/* 18 values pushed */
1 0 41 39 31 29 24 22 17 15 7 5 0 46 1 46 7 7 
CALL[ ]	/* CallFunction */
MPPEM[ ]	/* MeasurePixelPerEm */
PUSHB[ ]	/* 1 value pushed */
95 
LT[ ]	/* LessThan */
IF[ ]	/* If */
NPUSHB[ ]	/* 52 values pushed */
19 1 3 4 3 1 5 0 2 30 0 3 4 0 4 3 0 50 6 1 0 5 4 0 5 48 0 4 4 2 1 0 36 0 2 2 17 31 0 5 5 1 1 0 36 0 1 1 18 1 32 7 
ELSE[ ]	/* Else */
MPPEM[ ]	/* MeasurePixelPerEm */
PUSHB[ ]	/* 1 value pushed */
108 
LT[ ]	/* LessThan */
IF[ ]	/* If */
NPUSHB[ ]	/* 50 values pushed */
19 1 3 4 3 1 5 0 2 30 0 3 4 0 4 3 0 50 6 1 0 5 4 0 5 48 0 2 0 4 3 2 4 1 0 38 0 5 5 1 1 0 36 0 1 1 21 1 32 6 
ELSE[ ]	/* Else */
NPUSHB[ ]	/* 59 values pushed */
19 1 3 4 3 1 5 0 2 30 0 3 4 0 4 3 0 50 6 1 0 5 4 0 5 48 0 2 0 4 3 2 4 1 0 38 0 5 1 1 5 1 0 35 0 5 5 1 1 0 36 0 1 5 1 1 0 33 7 
EIF[ ]	/* EndIf */
EIF[ ]	/* EndIf */
PUSHB[ ]	/* 1 value pushed */
56 
CALL[ ]	/* CallFunction */";
};
width = 685;
},
{
associatedMasterId = "2C516476-8145-48E3-8501-3D313ADE77C9";
layerId = "582078F1-09D5-4BB3-9817-96B77313C293";
name = "Jan 15 23, 17:20";
shapes = (
{
closed = 1;
nodes = (
(633,495,l),
(633,679,l),
(542,714,o),
(466,731,o),
(406,731,cs),
(351,731,o),
(300,722,o),
(255,704,cs),
(209,686,o),
(171,660,o),
(138,627,cs),
(105,594,o),
(80,556,o),
(62,511,cs),
(44,466,o),
(35,415,o),
(35,361,cs),
(35,307,o),
(43,258,o),
(59,213,cs),
(75,168,o),
(99,129,o),
(129,96,cs),
(159,63,o),
(196,38,o),
(239,20,cs),
(282,2,o),
(329,-8,o),
(383,-8,cs),
(443,-8,o),
(495,2,o),
(538,21,cs),
(581,40,o),
(617,68,o),
(646,104,c),
(593,162,l),
(588,168,o),
(581,170,o),
(574,170,cs),
(570,170,o),
(566,170,o),
(562,168,cs),
(558,166,o),
(554,164,o),
(551,161,c),
(540,151,o),
(529,142,o),
(518,135,cs),
(507,128,o),
(495,122,o),
(483,118,cs),
(471,114,o),
(457,111,o),
(442,109,cs),
(427,107,o),
(410,106,o),
(392,106,cs),
(361,106,o),
(333,111,o),
(306,123,cs),
(279,135,o),
(256,151,o),
(236,173,cs),
(216,195,o),
(202,221,o),
(190,253,cs),
(178,285,o),
(172,320,o),
(172,361,cs),
(172,400,o),
(178,436,o),
(190,468,cs),
(202,500,o),
(218,526,o),
(238,548,cs),
(258,570,o),
(282,587,o),
(311,599,cs),
(340,611,o),
(371,616,o),
(405,616,cs),
(443,616,o),
(488,609,o),
(543,593,c),
(547,549,o),
(550,522,o),
(552,513,cs),
(555,501,o),
(562,495,o),
(575,495,cs)
);
}
);
userData = {
assembly = "NPUSHB[ ]	/* 18 values pushed */
1 0 44 42 34 32 27 25 18 16 8 6 0 50 1 50 7 7 
CALL[ ]	/* CallFunction */
MPPEM[ ]	/* MeasurePixelPerEm */
PUSHB[ ]	/* 1 value pushed */
94 
LT[ ]	/* LessThan */
IF[ ]	/* If */
NPUSHB[ ]	/* 52 values pushed */
22 1 4 2 4 1 1 5 2 30 0 3 4 0 4 3 0 50 6 1 0 5 4 0 5 48 0 4 4 2 1 0 36 0 2 2 17 31 0 5 5 1 1 0 36 0 1 1 18 1 32 7 
ELSE[ ]	/* Else */
NPUSHB[ ]	/* 59 values pushed */
22 1 4 2 4 1 1 5 2 30 0 3 4 0 4 3 0 50 6 1 0 5 4 0 5 48 0 2 0 4 3 2 4 1 0 38 0 5 1 1 5 1 0 35 0 5 5 1 1 0 36 0 1 5 1 1 0 33 7 
EIF[ ]	/* EndIf */
PUSHB[ ]	/* 1 value pushed */
56 
CALL[ ]	/* CallFunction */";
};
width = 657;
},
{
associatedMasterId = "BF33A826-8254-4501-9165-758AB68FE84B";
layerId = "E754C961-89D5-4BBE-92D0-87FCBAB8F6B7";
name = "Jan 24 23, 22:46";
shapes = (
{
closed = 1;
nodes = (
(592,148,l),
(586.667,148,o),
(581.333,145.667,o),
(576,141,cs),
(522.645,93.262,o),
(475.134,76,o),
(393,76,cs),
(246.728,76,o),
(144,186.48,o),
(144,358,cs),
(144,526.647,o),
(249.163,641,o),
(405,641,cs),
(458.934,641,o),
(508.501,625.592,o),
(536.5,609,cs),
(556.051,597.414,o),
(579.765,578,o),
(591,578,cs),
(601.667,578,o),
(606.667,582.333,o),
(612,589,cs),
(643,634,l),
(584.333,690,o),
(510.333,725,o),
(405,725,cs),
(298.333,725,o),
(208.833,687.167,o),
(145.5,622.5,cs),
(82.167,557.833,o),
(45,466,o),
(45,358,cs),
(45,250,o),
(79.167,158,o),
(138.5,94,cs),
(197.833,30,o),
(283,-8,o),
(387,-8,cs),
(504.333,-8,o),
(586.333,32,o),
(645,100,c),
(607,142,l),
(602.333,146,o),
(597.333,148,o),
(592,148,c)
);
}
);
userData = {
assembly = "NPUSHB[ ]	/* 18 values pushed */
1 0 41 39 31 29 24 22 17 15 7 5 0 46 1 46 7 7 
CALL[ ]	/* CallFunction */
MPPEM[ ]	/* MeasurePixelPerEm */
PUSHB[ ]	/* 1 value pushed */
95 
LT[ ]	/* LessThan */
IF[ ]	/* If */
NPUSHB[ ]	/* 52 values pushed */
19 1 3 4 3 1 5 0 2 30 0 3 4 0 4 3 0 50 6 1 0 5 4 0 5 48 0 4 4 2 1 0 36 0 2 2 17 31 0 5 5 1 1 0 36 0 1 1 18 1 32 7 
ELSE[ ]	/* Else */
MPPEM[ ]	/* MeasurePixelPerEm */
PUSHB[ ]	/* 1 value pushed */
108 
LT[ ]	/* LessThan */
IF[ ]	/* If */
NPUSHB[ ]	/* 50 values pushed */
19 1 3 4 3 1 5 0 2 30 0 3 4 0 4 3 0 50 6 1 0 5 4 0 5 48 0 2 0 4 3 2 4 1 0 38 0 5 5 1 1 0 36 0 1 1 21 1 32 6 
ELSE[ ]	/* Else */
NPUSHB[ ]	/* 59 values pushed */
19 1 3 4 3 1 5 0 2 30 0 3 4 0 4 3 0 50 6 1 0 5 4 0 5 48 0 2 0 4 3 2 4 1 0 38 0 5 1 1 5 1 0 35 0 5 5 1 1 0 36 0 1 5 1 1 0 33 7 
EIF[ ]	/* EndIf */
EIF[ ]	/* EndIf */
PUSHB[ ]	/* 1 value pushed */
56 
CALL[ ]	/* CallFunction */";
};
width = 685;
},
{
associatedMasterId = "A1468767-BE48-4A45-9F09-053256197B3B";
layerId = "847439AD-413B-4905-8205-AB3F5B3316E8";
name = "Jan 24 23, 22:51";
shapes = (
{
closed = 1;
nodes = (
(642,95,l),
(641.333,95,o),
(640,94,o),
(638,92,cs),
(571.748,31.509,o),
(510.086,2,o),
(402,2,cs),
(312.667,2,o),
(235,35,o),
(179,95,cs),
(123,155,o),
(89,242,o),
(89,350,cs),
(89,456.667,o),
(122.667,543.833,o),
(180,604.5,cs),
(237.333,665.167,o),
(317.333,698,o),
(412,698,cs),
(478.457,698,o),
(538.003,681.513,o),
(573.5,660,cs),
(587.761,651.357,o),
(627.652,621,o),
(630,621,cs),
(632,621,o),
(633.667,622,o),
(635,624,cs),
(636,626,l),
(571.038,682.842,o),
(507.85,708,o),
(412,708,cs),
(313.333,708,o),
(228.667,672.833,o),
(170,609.5,cs),
(111.333,546.167,o),
(77,456.667,o),
(77,350,cs),
(77,239.333,o),
(111.5,150.5,o),
(169.5,88.5,cs),
(227.5,26.5,o),
(308.667,-8,o),
(402,-8,cs),
(512.443,-8,o),
(587.224,29.077,o),
(650,89,c),
(646,93,ls),
(644.667,94.333,o),
(643.333,95,o),
(642,95,c)
);
}
);
userData = {
assembly = "PUSHW[ ]	/* 4 values pushed */
38 3 13 4 
CALL[ ]	/* CallFunction */
SVTCA[0]	/* SetFreedomAndProjectionVectorToAxis */
PUSHW[ ]	/* 1 value pushed */
0 
RCVT[ ]	/* ReadCVT */
IF[ ]	/* If */
PUSHW[ ]	/* 1 value pushed */
18 
MDAP[1]	/* MoveDirectAbsPt */
ELSE[ ]	/* Else */
PUSHW[ ]	/* 2 values pushed */
18 11 
MIAP[0]	/* MoveIndirectAbsPt */
EIF[ ]	/* EndIf */
PUSHW[ ]	/* 1 value pushed */
0 
RCVT[ ]	/* ReadCVT */
IF[ ]	/* If */
PUSHW[ ]	/* 1 value pushed */
8 
MDAP[1]	/* MoveDirectAbsPt */
ELSE[ ]	/* Else */
PUSHW[ ]	/* 2 values pushed */
8 5 
MIAP[0]	/* MoveIndirectAbsPt */
EIF[ ]	/* EndIf */
PUSHW[ ]	/* 4 values pushed */
23 2 26 4 
CALL[ ]	/* CallFunction */
PUSHW[ ]	/* 1 value pushed */
18 
SRP0[ ]	/* SetRefPoint0 */
PUSHW[ ]	/* 2 values pushed */
33 1 
MIRP[10100]	/* MoveIndirectRelPt */
PUSHW[ ]	/* 1 value pushed */
8 
SRP0[ ]	/* SetRefPoint0 */
PUSHW[ ]	/* 2 values pushed */
43 1 
MIRP[10100]	/* MoveIndirectRelPt */
IUP[0]	/* InterpolateUntPts */
IUP[1]	/* InterpolateUntPts */";
};
width = 719;
},
{
associatedMasterId = "2C516476-8145-48E3-8501-3D313ADE77C9";
layerId = "91981851-6241-45DD-800B-49B28A572A29";
name = "Jan 24 23, 22:54";
shapes = (
{
closed = 1;
nodes = (
(550,189,l),
(539.333,189,o),
(530,183.667,o),
(522,177,cs),
(483.392,143.539,o),
(442.092,131,o),
(384,131,cs),
(272.091,131,o),
(191,224.135,o),
(191,365,cs),
(191,504.614,o),
(273.698,597,o),
(398,597,cs),
(440.991,597,o),
(483.498,585.001,o),
(504.5,571,cs),
(520.732,560.179,o),
(543.938,545,o),
(558,545,cs),
(576.667,545,o),
(585,554,o),
(592,563,cs),
(649,640,l),
(593.072,698.725,o),
(500.428,737,o),
(399,737,cs),
(287,737,o),
(191.833,698.5,o),
(124.5,632.5,cs),
(57.167,566.5,o),
(18,473,o),
(18,365,cs),
(18,258.333,o),
(51.667,164.5,o),
(113,98.5,cs),
(174.333,32.5,o),
(262.333,-8,o),
(373,-8,cs),
(494.333,-8,o),
(581.333,32,o),
(640,108,c),
(573,179,ls),
(567,186,o),
(558,189,o),
(550,189,c)
);
},
{
angle = 180;
pos = (633,578);
ref = SerifUpRightCaps;
}
);
userData = {
assembly = "NPUSHB[ ]	/* 18 values pushed */
1 0 44 42 34 32 27 25 18 16 8 6 0 50 1 50 7 7 
CALL[ ]	/* CallFunction */
MPPEM[ ]	/* MeasurePixelPerEm */
PUSHB[ ]	/* 1 value pushed */
94 
LT[ ]	/* LessThan */
IF[ ]	/* If */
NPUSHB[ ]	/* 52 values pushed */
22 1 4 2 4 1 1 5 2 30 0 3 4 0 4 3 0 50 6 1 0 5 4 0 5 48 0 4 4 2 1 0 36 0 2 2 17 31 0 5 5 1 1 0 36 0 1 1 18 1 32 7 
ELSE[ ]	/* Else */
NPUSHB[ ]	/* 59 values pushed */
22 1 4 2 4 1 1 5 2 30 0 3 4 0 4 3 0 50 6 1 0 5 4 0 5 48 0 2 0 4 3 2 4 1 0 38 0 5 1 1 5 1 0 35 0 5 5 1 1 0 36 0 1 5 1 1 0 33 7 
EIF[ ]	/* EndIf */
PUSHB[ ]	/* 1 value pushed */
56 
CALL[ ]	/* CallFunction */";
};
width = 657;
}
);
metricLeft = O;
note = C;
unicode = 67;
},
{
glyphname = Cacute;
layers = (
{
background = {
anchors = (
{
name = bottom;
pos = (373,0);
},
{
name = top;
pos = (373,700);
}
);
shapes = (
{
closed = 1;
nodes = (
(476,-8,o),
(553,29,o),
(616,89,c),
(612,93,ls),
(611,94,o),
(610,95,o),
(609,95,cs),
(607,95,o),
(606,94,o),
(604,92,cs),
(555,43,o),
(478,2,o),
(373,2,cs),
(176,2,o),
(55,148,o),
(55,350,cs),
(55,553,o),
(175,698,o),
(388,698,cs),
(478,698,o),
(560,672,o),
(604,640,c),
(613,639,l),
(613,645,l),
(571,683,o),
(475,708,o),
(384,708,cs),
(276,708,o),
(195,673,o),
(136,610,cs),
(77,546,o),
(43,457,o),
(43,350,cs),
(43,239,o),
(78,151,o),
(136,89,cs),
(194,27,o),
(273,-8,o),
(373,-8,cs)
);
},
{
closed = 1;
nodes = (
(602,552,ls),
(602,549,o),
(604,545,o),
(607,545,cs),
(613,545,l),
(613,639,l),
(599,645,l),
(599,645,l)
);
},
{
closed = 1;
nodes = (
(370,789,ls),
(373,789,o),
(376,790,o),
(378,793,cs),
(479,918,l),
(466,918,ls),
(455,918,o),
(452,916,o),
(445,907,cs),
(363,789,l)
);
}
);
};
layerId = "A1468767-BE48-4A45-9F09-053256197B3B";
shapes = (
{
ref = C;
},
{
pos = (247,210);
ref = acutecomb;
}
);
width = 658;
},
{
background = {
anchors = (
{
name = bottom;
pos = (376,0);
},
{
name = top;
pos = (370,717);
}
);
shapes = (
{
closed = 1;
nodes = (
(495,-8,o),
(577,38,o),
(630,100,c),
(592,142,ls),
(587,147,o),
(582,148,o),
(578,148,cs),
(572,148,o),
(567,146,o),
(561,141,cs),
(508,93,o),
(454,76,o),
(390,76,cs),
(217,76,o),
(129,198,o),
(129,356,cs),
(129,527,o),
(233,641,o),
(393,641,cs),
(451,641,o),
(502,626,o),
(544,612,c),
(614,599,l),
(614,672,l),
(537,701,o),
(467,725,o),
(386,725,cs),
(283,725,o),
(194,687,o),
(130,622,cs),
(67,558,o),
(30,466,o),
(30,356,cs),
(30,261,o),
(58,169,o),
(118,100,cs),
(180,29,o),
(269,-8,o),
(376,-8,cs)
);
},
{
closed = 1;
nodes = (
(547,524,ls),
(549,512,o),
(557,508,o),
(568,508,cs),
(614,508,l),
(614,599,l),
(532,624,l),
(532,624,l)
);
},
{
closed = 1;
nodes = (
(383,792,ls),
(398,792,o),
(405,795,o),
(414,806,cs),
(531,935,l),
(444,935,ls),
(423,935,o),
(413,928,o),
(404,913,cs),
(330,792,l)
);
}
);
};
layerId = "BF33A826-8254-4501-9165-758AB68FE84B";
shapes = (
{
ref = C;
},
{
pos = (239,210);
ref = acutecomb;
}
);
width = 669;
},
{
background = {
anchors = (
{
name = bottom;
pos = (379,0);
},
{
name = top;
pos = (369,729);
}
);
shapes = (
{
closed = 1;
nodes = (
(487,-8,o),
(578,31,o),
(637,108,c),
(570,179,ls),
(563,186,o),
(555,189,o),
(547,189,cs),
(536,189,o),
(526,183,o),
(519,177,cs),
(482,145,o),
(438,131,o),
(390,131,cs),
(263,131,o),
(188,227,o),
(188,365,cs),
(188,504,o),
(265,597,o),
(406,597,cs),
(455,597,o),
(525,586,o),
(564,561,c),
(630,578,l),
(630,679,l),
(577,707,o),
(496,738,o),
(398,738,cs),
(289,738,o),
(189,699,o),
(121,632,cs),
(54,567,o),
(15,473,o),
(15,362,cs),
(15,254,o),
(52,159,o),
(114,94,cs),
(173,32,o),
(260,-8,o),
(374,-8,cs)
);
},
{
closed = 1;
nodes = (
(536,531,ls),
(541,507,o),
(551,492,o),
(574,492,cs),
(630,492,l),
(630,578,l),
(521,600,l),
(521,600,l)
);
},
{
closed = 1;
nodes = (
(377,794,ls),
(401,794,o),
(412,800,o),
(427,815,cs),
(557,947,l),
(407,947,ls),
(376,947,o),
(364,936,o),
(352,917,c),
(284,794,l)
);
}
);
};
layerId = "2C516476-8145-48E3-8501-3D313ADE77C9";
shapes = (
{
ref = C;
},
{
pos = (240,210);
ref = acutecomb;
}
);
width = 668;
}
);
unicode = 262;
},
{
glyphname = Ccaron;
layers = (
{
background = {
anchors = (
{
name = bottom;
pos = (373,0);
},
{
name = top;
pos = (373,700);
}
);
shapes = (
{
closed = 1;
nodes = (
(476,-8,o),
(553,29,o),
(616,89,c),
(612,93,ls),
(611,94,o),
(610,95,o),
(609,95,cs),
(607,95,o),
(606,94,o),
(604,92,cs),
(555,43,o),
(478,2,o),
(373,2,cs),
(176,2,o),
(55,148,o),
(55,350,cs),
(55,553,o),
(175,698,o),
(388,698,cs),
(478,698,o),
(560,672,o),
(604,640,c),
(613,639,l),
(613,645,l),
(571,683,o),
(475,708,o),
(384,708,cs),
(276,708,o),
(195,673,o),
(136,610,cs),
(77,546,o),
(43,457,o),
(43,350,cs),
(43,239,o),
(78,151,o),
(136,89,cs),
(194,27,o),
(273,-8,o),
(373,-8,cs)
);
},
{
closed = 1;
nodes = (
(602,552,ls),
(602,549,o),
(604,545,o),
(607,545,cs),
(613,545,l),
(613,639,l),
(599,645,l),
(599,645,l)
);
},
{
closed = 1;
nodes = (
(474,910,ls),
(470,910,o),
(467,907,o),
(466,906,cs),
(373,805,l),
(280,906,ls),
(277,909,o),
(275,910,o),
(272,910,cs),
(263,910,l),
(369,795,l),
(377,795,l),
(483,910,l)
);
}
);
};
layerId = "A1468767-BE48-4A45-9F09-053256197B3B";
shapes = (
{
ref = C;
},
{
pos = (233,210);
ref = caroncomb;
}
);
width = 658;
},
{
background = {
anchors = (
{
name = bottom;
pos = (376,0);
},
{
name = top;
pos = (370,717);
}
);
shapes = (
{
closed = 1;
nodes = (
(495,-8,o),
(577,38,o),
(630,100,c),
(592,142,ls),
(587,147,o),
(582,148,o),
(578,148,cs),
(572,148,o),
(567,146,o),
(561,141,cs),
(508,93,o),
(454,76,o),
(390,76,cs),
(217,76,o),
(129,198,o),
(129,356,cs),
(129,527,o),
(233,641,o),
(393,641,cs),
(451,641,o),
(502,626,o),
(544,612,c),
(614,599,l),
(614,672,l),
(537,701,o),
(467,725,o),
(386,725,cs),
(283,725,o),
(194,687,o),
(130,622,cs),
(67,558,o),
(30,466,o),
(30,356,cs),
(30,261,o),
(58,169,o),
(118,100,cs),
(180,29,o),
(269,-8,o),
(376,-8,cs)
);
},
{
closed = 1;
nodes = (
(547,524,ls),
(549,512,o),
(557,508,o),
(568,508,cs),
(614,508,l),
(614,599,l),
(532,624,l),
(532,624,l)
);
},
{
closed = 1;
nodes = (
(461,927,ls),
(453,927,o),
(445,924,o),
(441,920,cs),
(369,849,l),
(296,920,ls),
(290,925,o),
(283,927,o),
(276,927,cs),
(217,927,l),
(328,795,l),
(411,795,l),
(523,927,l)
);
}
);
};
layerId = "BF33A826-8254-4501-9165-758AB68FE84B";
shapes = (
{
ref = C;
},
{
pos = (216,210);
ref = caroncomb;
}
);
width = 669;
},
{
background = {
anchors = (
{
name = bottom;
pos = (379,0);
},
{
name = top;
pos = (369,729);
}
);
shapes = (
{
closed = 1;
nodes = (
(487,-8,o),
(578,31,o),
(637,108,c),
(570,179,ls),
(563,186,o),
(555,189,o),
(547,189,cs),
(536,189,o),
(526,183,o),
(519,177,cs),
(482,145,o),
(438,131,o),
(390,131,cs),
(263,131,o),
(188,227,o),
(188,365,cs),
(188,504,o),
(265,597,o),
(406,597,cs),
(455,597,o),
(525,586,o),
(564,561,c),
(630,578,l),
(630,679,l),
(577,707,o),
(496,738,o),
(398,738,cs),
(289,738,o),
(189,699,o),
(121,632,cs),
(54,567,o),
(15,473,o),
(15,362,cs),
(15,254,o),
(52,159,o),
(114,94,cs),
(173,32,o),
(260,-8,o),
(374,-8,cs)
);
},
{
closed = 1;
nodes = (
(536,531,ls),
(541,507,o),
(551,492,o),
(574,492,cs),
(630,492,l),
(630,578,l),
(521,600,l),
(521,600,l)
);
},
{
closed = 1;
nodes = (
(452,939,ls),
(440,939,o),
(427,934,o),
(422,929,cs),
(369,880,l),
(312,929,ls),
(305,935,o),
(294,939,o),
(282,939,cs),
(179,939,l),
(296,794,l),
(442,794,l),
(559,939,l)
);
}
);
};
layerId = "2C516476-8145-48E3-8501-3D313ADE77C9";
shapes = (
{
ref = C;
},
{
pos = (174,210);
ref = caroncomb;
}
);
width = 668;
}
);
unicode = 268;
},
{
glyphname = Ccedilla;
layers = (
{
background = {
anchors = (
{
name = bottom;
pos = (373,-195);
},
{
name = top;
pos = (373,700);
}
);
shapes = (
{
closed = 1;
nodes = (
(476,-8,o),
(553,29,o),
(616,89,c),
(612,93,ls),
(611,94,o),
(610,95,o),
(609,95,cs),
(607,95,o),
(606,94,o),
(604,92,cs),
(555,43,o),
(478,2,o),
(373,2,cs),
(176,2,o),
(55,148,o),
(55,350,cs),
(55,553,o),
(175,698,o),
(388,698,cs),
(478,698,o),
(560,672,o),
(604,640,c),
(613,639,l),
(613,645,l),
(571,683,o),
(475,708,o),
(384,708,cs),
(276,708,o),
(195,673,o),
(136,610,cs),
(77,546,o),
(43,457,o),
(43,350,cs),
(43,239,o),
(78,151,o),
(136,89,cs),
(194,27,o),
(273,-8,o),
(373,-8,cs)
);
},
{
closed = 1;
nodes = (
(602,552,ls),
(602,549,o),
(604,545,o),
(607,545,cs),
(613,545,l),
(613,639,l),
(599,645,l),
(599,645,l)
);
},
{
closed = 1;
nodes = (
(423,-179,o),
(456,-158,o),
(456,-119,cs),
(456,-77,o),
(414,-63,o),
(361,-55,c),
(378,0,l),
(369,0,l),
(349,-63,l),
(400,-71,o),
(445,-77,o),
(445,-120,cs),
(445,-152,o),
(421,-170,o),
(381,-170,cs),
(356,-170,o),
(341,-166,o),
(317,-149,cs),
(314,-147,o),
(311,-148,o),
(309,-150,cs),
(306,-153,l),
(322,-169,o),
(351,-179,o),
(378,-179,cs)
);
}
);
};
layerId = "A1468767-BE48-4A45-9F09-053256197B3B";
shapes = (
{
ref = C;
},
{
pos = (233,0);
ref = cedillacomb;
}
);
width = 658;
},
{
background = {
anchors = (
{
name = bottom;
pos = (376,-195);
},
{
name = top;
pos = (370,717);
}
);
shapes = (
{
closed = 1;
nodes = (
(495,-8,o),
(577,38,o),
(630,100,c),
(592,142,ls),
(587,147,o),
(582,148,o),
(578,148,cs),
(572,148,o),
(567,146,o),
(561,141,cs),
(508,93,o),
(454,76,o),
(390,76,cs),
(217,76,o),
(129,198,o),
(129,356,cs),
(129,527,o),
(233,641,o),
(393,641,cs),
(451,641,o),
(502,626,o),
(544,612,c),
(614,599,l),
(614,672,l),
(537,701,o),
(467,725,o),
(386,725,cs),
(283,725,o),
(194,687,o),
(130,622,cs),
(67,558,o),
(30,466,o),
(30,356,cs),
(30,261,o),
(58,169,o),
(118,100,cs),
(180,29,o),
(269,-8,o),
(376,-8,cs)
);
},
{
closed = 1;
nodes = (
(547,524,ls),
(549,512,o),
(557,508,o),
(568,508,cs),
(614,508,l),
(614,599,l),
(532,624,l),
(532,624,l)
);
},
{
closed = 1;
nodes = (
(431,-176,o),
(480,-151,o),
(480,-107,cs),
(480,-71,o),
(454,-48,o),
(394,-35,c),
(406,5,l),
(350,5,l),
(329,-66,l),
(373,-71,o),
(409,-79,o),
(409,-106,cs),
(409,-123,o),
(395,-135,o),
(367,-135,cs),
(344,-135,o),
(326,-124,o),
(318,-124,cs),
(313,-124,o),
(309,-127,o),
(307,-133,cs),
(298,-160,l),
(319,-169,o),
(344,-176,o),
(371,-176,cs)
);
}
);
};
layerId = "BF33A826-8254-4501-9165-758AB68FE84B";
shapes = (
{
ref = C;
},
{
pos = (222,0);
ref = cedillacomb;
}
);
width = 669;
},
{
background = {
anchors = (
{
name = bottom;
pos = (379,-195);
},
{
name = top;
pos = (369,729);
}
);
shapes = (
{
closed = 1;
nodes = (
(487,-8,o),
(578,31,o),
(637,108,c),
(570,179,ls),
(563,186,o),
(555,189,o),
(547,189,cs),
(536,189,o),
(526,183,o),
(519,177,cs),
(482,145,o),
(438,131,o),
(390,131,cs),
(263,131,o),
(188,227,o),
(188,365,cs),
(188,504,o),
(265,597,o),
(406,597,cs),
(455,597,o),
(525,586,o),
(564,561,c),
(630,578,l),
(630,679,l),
(577,707,o),
(496,738,o),
(398,738,cs),
(289,738,o),
(189,699,o),
(121,632,cs),
(54,567,o),
(15,473,o),
(15,362,cs),
(15,254,o),
(52,159,o),
(114,94,cs),
(173,32,o),
(260,-8,o),
(374,-8,cs)
);
},
{
closed = 1;
nodes = (
(536,531,ls),
(541,507,o),
(551,492,o),
(574,492,cs),
(630,492,l),
(630,578,l),
(521,600,l),
(521,600,l)
);
},
{
closed = 1;
nodes = (
(436,-174,o),
(496,-147,o),
(496,-97,cs),
(496,-61,o),
(473,-37,o),
(419,-22,c),
(427,9,l),
(331,9,l),
(308,-68,l),
(341,-72,o),
(375,-77,o),
(375,-94,cs),
(375,-102,o),
(368,-109,o),
(351,-109,cs),
(333,-109,o),
(330,-105,o),
(319,-105,cs),
(310,-105,o),
(304,-110,o),
(302,-119,cs),
(288,-166,l),
(313,-171,o),
(335,-174,o),
(362,-174,cs)
);
}
);
};
layerId = "2C516476-8145-48E3-8501-3D313ADE77C9";
shapes = (
{
ref = C;
},
{
pos = (214,0);
ref = cedillacomb;
}
);
width = 668;
}
);
unicode = 199;
},
